<svg width="429" height="422" viewBox="0 0 429 422" fill="none" xmlns="http://www.w3.org/2000/svg">
<g clip-path="url(#clip0_1542_1646)">
<path d="M297.885 20.4016C276.066 32.8846 260.683 53.8756 242.026 70.7216C218.989 91.5226 190.441 106.164 160.106 112.735C135.151 118.142 108.992 118.219 84.8998 126.678C37.9408 143.168 5.70585 192.111 4.85085 241.874C3.99585 291.638 32.3489 339.844 73.9558 367.156C88.0858 376.431 103.645 383.522 119.915 388.101C150.52 396.714 182.968 396.333 214.591 393.04C269.213 387.353 326.471 356.337 360.896 312.606C376.251 293.099 389.213 271.723 399.539 249.152C416.496 212.088 426.371 171.742 428.06 131.001C429.51 95.9926 428.031 57.2006 400.291 31.6966C372.615 6.25056 330.441 1.77458 297.885 20.4016Z" fill="#46892E"/>
<g opacity="0.7">
<path d="M297.885 20.4016C276.066 32.8846 260.683 53.8756 242.026 70.7216C218.989 91.5226 190.441 106.164 160.106 112.735C135.151 118.142 108.992 118.219 84.8998 126.678C37.9408 143.168 5.70585 192.111 4.85085 241.874C3.99585 291.638 32.3489 339.844 73.9558 367.156C88.0858 376.431 103.645 383.522 119.915 388.101C150.52 396.714 182.968 396.333 214.591 393.04C269.213 387.353 326.471 356.337 360.896 312.606C376.251 293.099 389.213 271.723 399.539 249.152C416.496 212.088 426.371 171.742 428.06 131.001C429.51 95.9926 428.031 57.2006 400.291 31.6966C372.615 6.25056 330.441 1.77458 297.885 20.4016Z" fill="white"/>
</g>
<path d="M419.816 372.818C419.816 399.491 339.526 421.113 240.482 421.113C141.439 421.113 61.1474 399.491 61.1474 372.818C61.1474 346.143 141.439 324.52 240.482 324.52C339.526 324.52 419.816 346.143 419.816 372.818Z" fill="#46892E"/>
<g opacity="0.5">
<path d="M419.812 372.82C419.812 399.493 339.522 421.115 240.479 421.115C141.435 421.115 61.1435 399.493 61.1435 372.82C61.1435 346.145 141.435 324.522 240.479 324.522C339.522 324.522 419.812 346.145 419.812 372.82Z" fill="white"/>
</g>
<path d="M271.292 33.8191V152.003C271.292 156.947 267.285 160.954 262.341 160.954H51.5096C46.5646 160.954 42.5586 156.947 42.5586 152.003V33.8191C42.5586 28.8751 46.5646 24.8691 51.5096 24.8691H262.341C267.285 24.8691 271.292 28.8751 271.292 33.8191Z" fill="white"/>
<path d="M271.292 33.8191V37.3631H42.5586V33.8191C42.5586 28.8751 46.5646 24.8691 51.5096 24.8691H262.341C267.285 24.8691 271.292 28.8751 271.292 33.8191Z" fill="#666666"/>
<path d="M271.292 33.8191V152.003C271.292 156.947 267.285 160.954 262.341 160.954H51.5096C46.5646 160.954 42.5586 156.947 42.5586 152.003V33.8191C42.5586 28.8751 46.5646 24.8691 51.5096 24.8691H262.341C267.285 24.8691 271.292 28.8751 271.292 33.8191Z" stroke="#1A2E35" stroke-miterlimit="10" stroke-linecap="round" stroke-linejoin="round"/>
<path d="M271.292 33.8191V37.3631H42.5586V33.8191C42.5586 28.8751 46.5646 24.8691 51.5096 24.8691H262.341C267.285 24.8691 271.292 28.8751 271.292 33.8191Z" stroke="#1A2E35" stroke-miterlimit="10" stroke-linecap="round" stroke-linejoin="round"/>
<path d="M68.2461 31.1154C68.2461 32.3774 67.2231 33.4004 65.9611 33.4004C64.6991 33.4004 63.6761 32.3774 63.6761 31.1154C63.6761 29.8534 64.6991 28.8304 65.9611 28.8304C67.2231 28.8304 68.2461 29.8534 68.2461 31.1154Z" fill="white"/>
<path d="M80.1992 31.1154C80.1992 32.3774 79.1762 33.4004 77.9142 33.4004C76.6522 33.4004 75.6292 32.3774 75.6292 31.1154C75.6292 29.8534 76.6522 28.8304 77.9142 28.8304C79.1762 28.8304 80.1992 29.8534 80.1992 31.1154Z" fill="white"/>
<path d="M92.1484 31.1154C92.1484 32.3774 91.1254 33.4004 89.8634 33.4004C88.6014 33.4004 87.5784 32.3774 87.5784 31.1154C87.5784 29.8534 88.6014 28.8304 89.8634 28.8304C91.1254 28.8304 92.1484 29.8534 92.1484 31.1154Z" fill="white"/>
<path d="M124.483 85.7576H59.816C57.777 85.7576 56.125 84.1056 56.125 82.0676V50.9586C56.125 48.9206 57.777 47.2676 59.816 47.2676H124.483C126.521 47.2676 128.173 48.9206 128.173 50.9586V82.0676C128.173 84.1056 126.521 85.7576 124.483 85.7576Z" stroke="#1A2E35" stroke-miterlimit="10" stroke-linecap="round" stroke-linejoin="round"/>
<path d="M60.3633 80.918H122.836" stroke="#1A2E35" stroke-miterlimit="10" stroke-linecap="round" stroke-linejoin="round"/>
<path d="M64.9981 73.5703H72.2461V80.8183H64.9981V73.5703Z" fill="#666666" stroke="#1A2E35" stroke-miterlimit="10"/>
<path d="M75.6114 64.0391H82.8594V80.9181H75.6114V64.0391Z" fill="#666666" stroke="#1A2E35" stroke-miterlimit="10"/>
<path d="M87.5606 66.9434H94.8086V81.0894H87.5606V66.9434Z" fill="#666666" stroke="#1A2E35" stroke-miterlimit="10"/>
<path d="M100.115 52.8535H107.363V80.6045H100.115V52.8535Z" fill="#666666" stroke="#1A2E35" stroke-miterlimit="10"/>
<path d="M112.67 53.0664H119.918V80.8174H112.67V53.0664Z" fill="#666666" stroke="#1A2E35" stroke-miterlimit="10"/>
<path d="M237.766 67.48C237.766 78.674 228.691 87.75 217.496 87.75C206.302 87.75 197.226 78.674 197.226 67.48C197.226 56.285 206.302 47.21 217.496 47.21C228.691 47.21 237.766 56.285 237.766 67.48Z" fill="#46892E"/>
<path d="M197.226 67.48C197.226 56.2852 206.301 47.21 217.496 47.21C228.69 47.21 237.766 56.2852 237.766 67.48C237.766 78.6748 228.69 87.75 217.496 87.75C206.301 87.75 197.226 78.6748 197.226 67.48Z" stroke="#1A2E35" stroke-miterlimit="10"/>
<path d="M54.4375 105.424H60.3615" stroke="#1A2E35" stroke-miterlimit="10" stroke-linecap="round" stroke-linejoin="round"/>
<path d="M54.4375 116.865H60.3615" stroke="#1A2E35" stroke-miterlimit="10" stroke-linecap="round" stroke-linejoin="round"/>
<path d="M54.4375 128.307H60.3615" stroke="#1A2E35" stroke-miterlimit="10" stroke-linecap="round" stroke-linejoin="round"/>
<path d="M54.4375 139.748H60.3615" stroke="#1A2E35" stroke-miterlimit="10" stroke-linecap="round" stroke-linejoin="round"/>
<path d="M73.4062 148.395V143.795" stroke="#1A2E35" stroke-miterlimit="10" stroke-linecap="round" stroke-linejoin="round"/>
<path d="M82.7891 148.395V143.795" stroke="#1A2E35" stroke-miterlimit="10" stroke-linecap="round" stroke-linejoin="round"/>
<path d="M92.1719 148.395V143.795" stroke="#1A2E35" stroke-miterlimit="10" stroke-linecap="round" stroke-linejoin="round"/>
<path d="M101.555 148.395V143.795" stroke="#1A2E35" stroke-miterlimit="10" stroke-linecap="round" stroke-linejoin="round"/>
<path d="M110.938 148.395V143.795" stroke="#1A2E35" stroke-miterlimit="10" stroke-linecap="round" stroke-linejoin="round"/>
<path d="M120.32 148.395V143.795" stroke="#1A2E35" stroke-miterlimit="10" stroke-linecap="round" stroke-linejoin="round"/>
<path d="M129.703 148.395V143.795" stroke="#1A2E35" stroke-miterlimit="10" stroke-linecap="round" stroke-linejoin="round"/>
<path d="M139.086 148.395V143.795" stroke="#1A2E35" stroke-miterlimit="10" stroke-linecap="round" stroke-linejoin="round"/>
<path d="M148.469 148.395V143.795" stroke="#1A2E35" stroke-miterlimit="10" stroke-linecap="round" stroke-linejoin="round"/>
<path d="M157.852 148.395V143.795" stroke="#1A2E35" stroke-miterlimit="10" stroke-linecap="round" stroke-linejoin="round"/>
<path d="M167.234 148.395V143.795" stroke="#1A2E35" stroke-miterlimit="10" stroke-linecap="round" stroke-linejoin="round"/>
<path d="M176.613 148.395V143.795" stroke="#1A2E35" stroke-miterlimit="10" stroke-linecap="round" stroke-linejoin="round"/>
<path d="M185.996 148.395V143.795" stroke="#1A2E35" stroke-miterlimit="10" stroke-linecap="round" stroke-linejoin="round"/>
<path d="M195.379 148.395V143.795" stroke="#1A2E35" stroke-miterlimit="10" stroke-linecap="round" stroke-linejoin="round"/>
<path d="M204.762 148.395V143.795" stroke="#1A2E35" stroke-miterlimit="10" stroke-linecap="round" stroke-linejoin="round"/>
<path d="M213.789 148.395V143.795" stroke="#1A2E35" stroke-miterlimit="10" stroke-linecap="round" stroke-linejoin="round"/>
<path d="M222.816 148.395V143.795" stroke="#1A2E35" stroke-miterlimit="10" stroke-linecap="round" stroke-linejoin="round"/>
<path d="M231.844 148.395V143.795" stroke="#1A2E35" stroke-miterlimit="10" stroke-linecap="round" stroke-linejoin="round"/>
<path d="M255.723 98.4192V142.883C255.723 145.928 252.624 148.395 248.798 148.395H61.3635C58.8205 148.395 56.5925 147.306 55.3935 145.677C54.7885 144.858 54.4375 143.905 54.4375 142.883V98.4192C54.4375 95.3752 57.5375 92.9082 61.3635 92.9082H248.798C252.624 92.9082 255.723 95.3752 255.723 98.4192Z" stroke="black" stroke-miterlimit="10" stroke-linecap="round" stroke-linejoin="round"/>
<path d="M198.68 12.312L138.848 92.907L115.966 123.729L90.9732 107.812L60.3922 148.394H59.9492C57.9262 148.394 56.1532 147.305 55.1992 145.676L89.5662 100.065L114.54 115.963L131.651 92.907L194.036 8.87305L198.68 12.312Z" fill="black"/>
<path d="M183.499 13.3346L205.495 -0.000190879L199.41 23.0599L195.534 12.3917L183.499 13.3346Z" fill="#1A2E35"/>
<path d="M391.605 267.094H39.918L0.5 302.14" stroke="#1A2E35" stroke-miterlimit="10" stroke-linecap="round" stroke-linejoin="round"/>
<path d="M40.1406 242.549V174.397" stroke="#1A2E35" stroke-miterlimit="10" stroke-linecap="round" stroke-linejoin="round"/>
<path d="M40.1406 263.137V249.955" stroke="#1A2E35" stroke-miterlimit="10" stroke-linecap="round" stroke-linejoin="round"/>
<path d="M370.435 101.294C370.435 101.294 370.435 97.1756 364.665 91.4076C358.897 85.6386 355.198 82.3496 355.198 82.3496C355.198 82.3496 352.313 91.8186 357.664 97.5866C361.601 101.654 365.873 105.383 370.435 108.735V101.294Z" fill="#46892E"/>
<path d="M362.068 127.016C362.068 127.016 362.068 122.898 356.299 117.129C350.53 111.36 346.831 108.072 346.831 108.072C346.831 108.072 343.946 117.54 349.297 123.309C353.237 127.373 357.508 131.102 362.068 134.457V127.016Z" fill="#46892E"/>
<path d="M370.072 108.308C370.072 108.308 370.504 104.211 376.851 99.0831C383.198 93.9551 387.225 91.0781 387.225 91.0781C387.225 91.0781 389.093 100.832 383.156 105.967C378.812 109.587 374.172 112.836 369.285 115.68L370.072 108.308Z" fill="#46892E"/>
<path d="M359.967 138.687C359.967 138.687 360.83 134.66 367.672 130.229C374.514 125.798 378.821 123.352 378.821 123.352C378.821 123.352 379.656 133.218 373.246 137.74C368.546 140.879 363.591 143.62 358.434 145.933L359.967 138.687Z" fill="#46892E"/>
<path d="M361.867 171.802C361.867 171.802 361.867 167.684 367.629 161.922C373.391 156.16 377.104 152.865 377.104 152.865C377.104 152.865 379.989 162.341 374.632 168.102C370.697 172.17 366.428 175.899 361.867 179.25V171.802Z" fill="#46892E"/>
<path d="M361.768 179.89C361.768 179.89 362.354 175.814 357.462 169.286C352.572 162.758 349.373 158.967 349.373 158.967C349.373 158.967 345.193 167.934 349.66 174.407C352.981 178.981 356.68 183.269 360.716 187.227L361.768 179.89Z" fill="#46892E"/>
<path d="M356.086 203.845C356.086 203.845 356.086 199.727 361.848 193.966C367.609 188.203 371.323 184.908 371.323 184.908C371.323 184.908 374.208 194.384 368.85 200.145C364.915 204.213 360.646 207.942 356.086 211.293V203.845Z" fill="#46892E"/>
<path d="M359.929 225.569C359.929 225.569 358.891 221.584 363.015 214.533C367.14 207.482 369.885 203.385 369.885 203.385C369.885 203.385 375.069 211.823 371.355 218.756C368.572 223.676 365.381 228.356 361.817 232.746L359.929 225.569Z" fill="#46892E"/>
<path d="M370.96 100.27C370.667 104.558 370.139 108.826 369.378 113.055C367.1 124.83 361.4 132.431 359.122 143.063C356.844 153.695 363.387 167.407 361.638 181.07C359.889 194.732 354.565 202.327 356.064 211.447C357.562 220.567 365.561 245.252 365.561 245.252" stroke="#1A2E35" stroke-width="1.18" stroke-linecap="round" stroke-linejoin="round"/>
<path d="M370.02 111.047L376.234 106.275" stroke="#1A2E35" stroke-width="1.18" stroke-linecap="round" stroke-linejoin="round"/>
<path d="M370.305 105.557L367.705 100.93" stroke="#1A2E35" stroke-width="1.18" stroke-linecap="round" stroke-linejoin="round"/>
<path d="M359.469 142.545C359.469 142.545 364.666 138.645 370.018 134.742" stroke="#1A2E35" stroke-width="1.18" stroke-linecap="round" stroke-linejoin="round"/>
<path d="M362.067 134.408C362.067 134.408 357.735 125.908 352.823 120.271" stroke="#1A2E35" stroke-width="1.18" stroke-linecap="round" stroke-linejoin="round"/>
<path d="M362.07 177.662C365.048 172.189 368.802 167.177 373.217 162.781" stroke="#1A2E35" stroke-width="1.18" stroke-linecap="round" stroke-linejoin="round"/>
<path d="M361.057 183.444C359.477 179.722 357.591 176.138 355.42 172.728C352.382 168.248 351.938 167.67 351.938 167.67" stroke="#1A2E35" stroke-width="1.18" stroke-linecap="round" stroke-linejoin="round"/>
<path d="M356.086 211.419C357.401 208.146 358.967 204.978 360.768 201.943C362.569 199.131 364.599 196.473 366.836 193.994" stroke="#1A2E35" stroke-width="1.18" stroke-linecap="round" stroke-linejoin="round"/>
<path d="M361.812 232.738C361.812 232.738 361.206 227.804 363.373 223.617C365.54 219.43 367.992 213.932 369.009 211.773" stroke="#1A2E35" stroke-width="1.18" stroke-linecap="round" stroke-linejoin="round"/>
<path d="M332.681 156.314C332.681 156.314 332.228 153.736 335.224 149.493C338.22 145.25 340.178 142.77 340.178 142.77C340.178 142.77 343.013 148.392 340.283 152.593C338.253 155.565 335.979 158.362 333.482 160.954L332.681 156.314Z" fill="#46892E"/>
<path d="M340.72 171.538C340.72 171.538 340.267 168.953 343.256 164.71C346.245 160.467 348.217 158 348.217 158C348.217 158 351.052 163.63 348.322 167.824C346.293 170.797 344.019 173.594 341.522 176.185L340.72 171.538Z" fill="#46892E"/>
<path d="M333.671 160.676C333.671 160.676 332.974 158.154 328.417 155.632C323.861 153.11 321.039 151.73 321.039 151.73C321.039 151.73 320.928 158.001 325.22 160.634C328.338 162.428 331.601 163.959 334.974 165.212L333.671 160.676Z" fill="#46892E"/>
<path d="M343.308 178.624C343.308 178.624 342.326 176.192 337.553 174.158C332.781 172.123 329.805 171.064 329.805 171.064C329.805 171.064 330.356 177.335 334.884 179.474C338.173 180.932 341.579 182.114 345.064 183.006L343.308 178.624Z" fill="#46892E"/>
<path d="M345.707 199.601C345.707 199.601 345.262 197.017 341.019 194.027C336.775 191.038 334.093 189.373 334.093 189.373C334.093 189.373 333.312 195.644 337.298 198.661C340.207 200.773 343.288 202.637 346.509 204.234L345.707 199.601Z" fill="#46892E"/>
<path d="M346.642 204.659C346.642 204.659 345.834 202.165 348.189 197.545C350.544 192.926 352.147 190.195 352.147 190.195C352.147 190.195 355.748 195.365 353.645 199.907C352.047 203.137 350.183 206.227 348.071 209.146L346.642 204.659Z" fill="#46892E"/>
<path d="M353.884 225.492C353.884 225.492 354.184 222.886 358.245 219.66C362.308 216.434 364.893 214.623 364.893 214.623C364.893 214.623 366.029 220.816 362.224 224.077C359.44 226.354 356.471 228.396 353.348 230.18L353.884 225.492Z" fill="#46892E"/>
<path d="M352.81 219.069C352.81 219.069 352.365 216.484 348.122 213.495C343.878 210.506 341.203 208.84 341.203 208.84C341.203 208.84 340.422 215.111 344.401 218.128C347.312 220.241 350.395 222.105 353.619 223.702L352.81 219.069Z" fill="#46892E"/>
<path d="M352.751 233.108C352.751 233.108 352.975 230.495 349.63 226.531C346.285 222.566 344.112 220.26 344.112 220.26C344.112 220.26 341.771 226.113 344.857 230.056C347.137 232.844 349.644 235.438 352.355 237.81L352.751 233.108Z" fill="#46892E"/>
<path d="M332.234 155.707C332.883 158.366 333.678 160.987 334.617 163.559C337.32 170.693 341.716 174.839 344.301 181.263C346.886 187.686 344.301 196.988 346.851 205.363C349.402 213.738 353.596 217.904 353.63 223.812C353.666 229.72 351.345 246.044 351.345 246.044" stroke="#1A2E35" stroke-width="1.18" stroke-linecap="round" stroke-linejoin="round"/>
<path d="M333.996 162.383L329.586 160.07" stroke="#1A2E35" stroke-width="1.18" stroke-linecap="round" stroke-linejoin="round"/>
<path d="M333.223 158.977L334.352 155.792" stroke="#1A2E35" stroke-width="1.18" stroke-linecap="round" stroke-linejoin="round"/>
<path d="M344.038 180.993C344.038 180.993 340.352 179.111 336.576 177.245" stroke="#1A2E35" stroke-width="1.18" stroke-linecap="round" stroke-linejoin="round"/>
<path d="M341.523 176.213C342.607 172.789 344.035 169.483 345.787 166.347" stroke="#1A2E35" stroke-width="1.18" stroke-linecap="round" stroke-linejoin="round"/>
<path d="M346.217 203.295C343.76 200.185 340.863 197.449 337.62 195.171" stroke="#1A2E35" stroke-width="1.18" stroke-linecap="round" stroke-linejoin="round"/>
<path d="M347.48 206.812C348.066 204.312 348.858 201.865 349.849 199.496C351.243 196.354 351.48 195.943 351.48 195.943" stroke="#1A2E35" stroke-width="1.18" stroke-linecap="round" stroke-linejoin="round"/>
<path d="M353.438 228.272C353.438 228.272 356.356 224.691 358.181 223.346C359.278 222.536 360.307 221.639 361.261 220.664" stroke="#1A2E35" stroke-width="1.18" stroke-linecap="round" stroke-linejoin="round"/>
<path d="M353.632 223.812C352.45 221.903 351.125 220.086 349.668 218.377C348.233 216.81 346.671 215.364 345 214.051" stroke="#1A2E35" stroke-width="1.18" stroke-linecap="round" stroke-linejoin="round"/>
<path d="M352.356 237.809C352.21 235.809 351.532 233.885 350.391 232.236C348.573 229.839 346.433 226.662 345.57 225.414" stroke="#1A2E35" stroke-width="1.18" stroke-linecap="round" stroke-linejoin="round"/>
<path d="M371.556 274.214H345.296C344.215 274.214 343.339 273.338 343.339 272.256L339.57 243.195H377.284L373.514 272.256C373.514 273.338 372.638 274.214 371.556 274.214Z" fill="#1A2E35"/>
<path d="M376.95 248.115H339.571C337.95 248.115 336.632 246.809 336.617 245.189C336.617 243.561 337.936 242.242 339.564 242.242H376.95C378.578 242.238 379.901 243.554 379.904 245.182V245.189C379.889 246.809 378.571 248.115 376.95 248.115Z" fill="#1A2E35"/>
<path d="M292.678 131.886C292.678 149.114 280.663 163.55 264.546 167.255C264.507 167.268 264.481 167.268 264.441 167.282C263.488 167.493 262.535 167.678 261.556 167.824C259.863 168.062 258.129 168.195 256.369 168.195C236.31 168.195 220.047 151.932 220.047 131.886C220.047 112.276 235.595 96.2925 255.032 95.6045C255.364 95.5775 255.707 95.5774 256.052 95.5774C256.157 95.5644 256.263 95.5645 256.369 95.5645C256.489 95.5645 256.62 95.5644 256.74 95.5774C261.794 95.6174 266.598 96.7025 270.964 98.6345C283.746 104.244 292.678 117.027 292.678 131.886Z" fill="#46892E"/>
<g opacity="0.4">
<path d="M270.964 98.6345C229.031 96.451 228.834 143.002 228.834 143.002C228.834 143.002 222.43 127.811 232.882 110.98C238.719 101.573 248.894 97.4182 256.739 95.578C261.794 95.6183 266.599 96.7025 270.964 98.6345Z" fill="white"/>
</g>
<path d="M292.678 131.886C292.678 149.154 280.611 163.616 264.441 167.282C261.847 167.877 259.148 168.195 256.369 168.195C236.31 168.195 220.047 151.932 220.047 131.886C220.047 112.276 235.595 96.2925 255.032 95.6045C255.469 95.5775 255.919 95.5645 256.369 95.5645C276.415 95.5645 292.678 111.826 292.678 131.886Z" stroke="#1A2E35" stroke-miterlimit="10" stroke-linecap="round" stroke-linejoin="round"/>
<path d="M292.68 131.886C292.68 149.154 280.613 163.616 264.443 167.282C264.006 167.308 263.556 167.321 263.106 167.321C243.046 167.321 226.797 151.059 226.797 130.999C226.797 113.732 238.866 99.2695 255.034 95.6045C255.471 95.5775 255.921 95.5645 256.371 95.5645C276.417 95.5645 292.68 111.826 292.68 131.886Z" stroke="#1A2E35" stroke-miterlimit="10" stroke-linecap="round" stroke-linejoin="round"/>
<path d="M268.881 154.611L269.821 158.446L263.546 159.986L262.605 156.15C256.98 156.126 252.469 152.5 251.032 146.643L250.606 144.9L257.529 142.388L257.974 144.2C258.846 147.758 261.189 149.474 264.118 148.756C267.046 148.037 268.414 145.779 267.714 142.92C266.875 139.505 262.95 137.362 258.414 135.148C253.045 132.547 247.506 129.248 245.984 123.043C244.496 116.976 246.363 111.934 251.147 109.431L250.206 105.596L256.482 104.057L257.422 107.892C262.872 107.811 266.931 111.4 268.453 117.605L268.761 118.86L261.837 121.371L261.495 119.977C260.571 116.211 258.627 114.618 256.048 115.251C253.469 115.883 252.397 117.846 253.15 120.915C253.987 124.331 257.966 126.386 262.448 128.687C267.766 131.377 273.359 134.589 274.881 140.794C276.334 146.72 273.943 152.038 268.881 154.611Z" stroke="#1A2E35" stroke-miterlimit="10"/>
<g opacity="0.3">
<path d="M268.881 154.611L269.821 158.446L263.546 159.986L262.605 156.15C256.98 156.126 252.469 152.5 251.032 146.643L250.606 144.9L257.529 142.388L257.974 144.2C258.846 147.758 261.189 149.474 264.118 148.756C267.046 148.037 268.414 145.779 267.714 142.92C266.875 139.505 262.95 137.362 258.414 135.148C253.045 132.547 247.506 129.248 245.984 123.043C244.496 116.976 246.363 111.934 251.147 109.431L250.206 105.596L256.482 104.057L257.422 107.892C262.872 107.811 266.931 111.4 268.453 117.605L268.761 118.86L261.837 121.371L261.495 119.977C260.571 116.211 258.627 114.618 256.048 115.251C253.469 115.883 252.397 117.846 253.15 120.915C253.987 124.331 257.966 126.386 262.448 128.687C267.766 131.377 273.359 134.589 274.881 140.794C276.334 146.72 273.943 152.038 268.881 154.611Z" fill="black"/>
</g>
<path d="M237.812 163.1L245.483 162.748" stroke="#1A2E35" stroke-miterlimit="10" stroke-linecap="round" stroke-linejoin="round"/>
<path d="M234.121 160.552L240.815 159.986" stroke="#1A2E35" stroke-miterlimit="10" stroke-linecap="round" stroke-linejoin="round"/>
<path d="M231.117 157.861L237.812 157.293" stroke="#1A2E35" stroke-miterlimit="10" stroke-linecap="round" stroke-linejoin="round"/>
<path d="M230.199 106.699H235.931" stroke="#1A2E35" stroke-miterlimit="10" stroke-linecap="round" stroke-linejoin="round"/>
<path d="M233.031 104.057L238.738 103.798" stroke="#1A2E35" stroke-miterlimit="10" stroke-linecap="round" stroke-linejoin="round"/>
<path d="M236.605 101.412L242.628 100.845" stroke="#1A2E35" stroke-miterlimit="10" stroke-linecap="round" stroke-linejoin="round"/>
<g opacity="0.3">
<path d="M264.546 167.254C264.507 167.267 264.481 167.267 264.441 167.28C261.847 167.876 259.148 168.193 256.369 168.193C236.31 168.193 220.047 151.931 220.047 131.885C220.047 112.275 235.595 96.2912 255.032 95.6032C255.363 95.5762 255.707 95.5762 256.052 95.5762C247.199 98.3682 232.353 105.5 228.383 120.373C222.746 141.491 235.423 165.481 264.546 167.254Z" fill="black"/>
</g>
<path d="M301.963 356.332C292.598 367.45 281.602 377.192 269.119 384.682C265.21 387.019 261.216 389.102 257.124 390.94C228.714 403.715 196.334 404.543 166.048 397.2C102.383 381.77 68.6028 325.571 64.3158 263.185C63.1588 246.319 60.5768 228.113 67.4088 212.075C74.1798 196.171 88.0498 186.088 103.674 179.147C115.011 174.105 127.262 170.708 138.393 167.944C158.656 162.914 179.663 165.216 198.477 174.142C211.568 180.353 220.896 191.105 231.904 200.227C233.073 201.188 234.242 202.151 235.424 203.101C246.542 212.051 258.257 220.283 270.446 227.712C288.957 239 307.905 249.655 319.73 268.616C338.58 298.829 322.664 331.732 301.963 356.332Z" fill="#74C657"/>
<path d="M235.422 203.098C234.243 202.148 233.069 201.191 231.903 200.225C220.891 191.108 211.564 180.353 198.477 174.143C179.661 165.214 158.648 162.918 138.39 167.946C111.923 174.515 79.0886 184.629 67.4056 212.078C60.5786 228.117 63.1576 246.32 64.3166 263.181C68.6046 325.571 102.377 381.772 166.045 397.202C200.692 405.599 238.068 403.303 269.122 384.68C281.598 377.198 292.601 367.445 301.955 356.332C322.658 331.735 338.583 298.828 319.734 268.616C307.906 249.659 288.96 239.005 270.443 227.716C258.251 220.282 246.546 212.052 235.422 203.098Z" stroke="#1A2E35" stroke-miterlimit="10"/>
<path d="M138.93 314.351C133.677 315.973 128.385 318.003 123.563 320.533" stroke="#1A2E35" stroke-miterlimit="10" stroke-linecap="round" stroke-linejoin="round"/>
<path d="M171.423 308.174C171.423 308.174 161.011 308.887 148.368 311.817" stroke="#1A2E35" stroke-miterlimit="10" stroke-linecap="round" stroke-linejoin="round"/>
<path d="M164.629 306.567C164.629 306.567 134.747 289.187 98.6845 303.118" stroke="#1A2E35" stroke-miterlimit="10" stroke-linecap="round" stroke-linejoin="round"/>
<g opacity="0.1">
<path d="M301.96 356.332C292.595 367.45 281.599 377.192 269.116 384.682C265.207 387.019 261.213 389.102 257.121 390.94C253.87 389.941 250.68 388.785 247.55 387.434C228.894 379.42 213.233 365.903 197.926 352.557C188.695 344.519 179.318 336.36 168.273 331.087C153.514 324.036 136.137 322.611 120.427 327.154C128.538 317.936 139.936 311.664 152.065 309.74C144.174 302.556 133.178 299.535 122.498 299.341C111.818 299.133 105.936 300.461 95.5121 302.799C98.9951 296.381 108.262 290.572 115.568 290.743C108.262 290.572 99.9201 290.085 94.7931 289.269C85.3561 287.747 81.1431 276.653 79.7301 267.216C75.8331 241.228 79.7781 213.524 93.9651 191.422C96.9371 186.794 100.176 182.727 103.671 179.147C115.008 174.105 127.259 170.708 138.39 167.944C158.653 162.914 179.66 165.216 198.474 174.142C211.565 180.353 220.893 191.105 231.901 200.227C233.07 201.188 234.239 202.151 235.421 203.101C246.539 212.051 258.254 220.283 270.443 227.712C288.954 239 307.902 249.655 319.727 268.616C338.577 298.829 322.661 331.732 301.96 356.332Z" fill="black"/>
</g>
<path d="M312.341 355.592C312.341 355.592 320.743 362.664 329.905 368.537C341.799 369.337 336.465 383.713 336.465 383.713L326.285 390.256C326.285 390.256 308.898 376.436 299.408 371.946C289.918 367.456 312.341 355.592 312.341 355.592Z" fill="white"/>
<g opacity="0.3">
<path d="M227.892 204.274C227.892 204.274 226.259 188.143 223.663 183.609L184.182 175.542V172.485C184.182 172.485 185.093 167.162 176.292 163.833C167.491 160.504 149.156 164.833 144.427 168.411C139.697 171.989 141.43 178.149 141.43 178.149C141.43 178.149 125.521 186.21 118.367 189.275C111.213 192.34 101.288 198.275 101.288 198.275C101.288 198.275 98.0546 235.348 98.6876 243.957C99.3206 252.566 98.1736 260.668 98.9086 265.44C99.6446 270.211 100.229 272.923 105.236 276.982C110.242 281.039 114.777 287.031 127.893 281.088L126.064 279.642L212.406 250.61L227.892 204.274Z" fill="black"/>
</g>
<path d="M227.892 204.274C227.892 204.274 226.259 188.143 223.663 183.609L184.182 175.542V172.485C184.182 172.485 185.093 167.162 176.292 163.833C167.491 160.504 149.156 164.833 144.427 168.411C139.697 171.989 141.43 178.149 141.43 178.149C141.43 178.149 125.521 186.21 118.367 189.275C111.213 192.34 101.288 198.275 101.288 198.275C101.288 198.275 98.0546 235.348 98.6876 243.957C99.3206 252.566 98.1736 260.668 98.9086 265.44C99.6446 270.211 100.229 272.923 105.236 276.982C110.242 281.039 114.777 287.031 127.893 281.088L126.064 279.642L212.406 250.61L227.892 204.274Z" fill="#46892E"/>
<g opacity="0.05">
<path d="M227.286 205.633C227.286 205.633 225.653 189.502 223.057 184.968L183.576 176.901V173.844C183.576 173.844 184.487 168.521 175.686 165.192C166.885 161.863 148.55 166.192 143.821 169.77C139.091 173.348 140.824 179.508 140.824 179.508C140.824 179.508 124.915 187.569 117.761 190.634C110.607 193.699 100.682 199.634 100.682 199.634C100.682 199.634 97.4491 236.707 98.0821 245.316C98.7151 253.925 97.5681 262.027 98.3031 266.799C99.0391 271.57 99.6231 274.282 104.63 278.341C109.636 282.398 114.171 288.39 127.287 282.447L125.458 281.001L211.8 251.969L227.286 205.633Z" fill="black"/>
</g>
<g opacity="0.1">
<path d="M224.18 185.557H207.663C204.454 185.557 201.716 187.878 201.19 191.043L193.049 240.078C193.049 240.078 181.841 241.011 173.902 246.807C165.962 252.602 146.432 211.286 115.568 211.265C115.568 211.265 124.449 231.561 126.42 247.762C126.42 247.762 107.129 245.662 103.926 253.21C100.722 260.758 105.382 274.909 113.537 269.435C121.692 263.961 129.334 254.797 134.833 260.544C140.332 266.291 164.63 269.435 164.63 269.435L202.101 250.611L216.634 243.779L224.18 185.557Z" fill="black"/>
</g>
<g opacity="0.4">
<path d="M171.73 161.281C171.73 161.281 181.113 163.884 182.632 167.029C184.151 170.174 183.995 178.148 183.995 178.148C183.995 178.148 181.439 185.228 173.903 192.028L166.899 178.148L167.526 193.894C167.526 193.894 154.248 191.683 148.613 187.436L142.978 183.189C142.978 183.189 140.553 175.217 140.897 172.484C141.241 169.75 151.404 164.267 151.404 164.267L171.73 161.281Z" fill="white"/>
</g>
<path d="M327.968 403.993C327.712 403.416 331.822 396.164 328.604 388.769C325.385 381.375 320.253 384.225 320.253 384.225C320.253 384.225 305.644 374.93 299.502 371.992C293.361 369.055 286.753 364.412 286.753 364.412L280.266 373.149L286.262 391.713L327.968 403.993Z" fill="#46892E"/>
<path d="M319.715 383.777L338.478 395.243C338.478 395.243 351.664 386.78 357.959 380.938C364.255 375.096 378.328 362.666 378.328 362.666L387.314 350.551C387.314 350.551 381.069 342.832 370.67 349.036C357.23 357.055 340.841 368.65 329.904 368.539C329.904 368.539 332.061 381.969 319.715 383.777Z" fill="#46892E"/>
<path d="M168.547 112.797C168.547 112.797 177.062 125.676 178.611 129.847C180.16 134.018 181.41 140.191 181.095 143.158C180.78 146.124 177.672 162.036 176.065 162.501L174.555 164.208L175.523 170.948C175.523 170.948 168.863 182.465 149.281 174.023C149.281 174.023 148.517 160.576 146.138 156.359C143.758 152.142 140.195 157.159 136.633 144.969C133.07 132.779 144.431 120.023 144.431 120.023L168.547 112.797Z" fill="white"/>
<g opacity="0.5">
<path d="M379.206 346.793C379.206 346.793 369.565 348.467 366.433 354.177C363.299 359.887 357.295 370.502 355.243 375.633C353.191 380.765 336.227 393.155 336.227 393.155L338.479 395.242C338.479 395.242 352.283 386.708 360.608 378.6C368.933 370.491 387.312 350.091 387.312 350.091C387.312 350.091 386 348.778 379.206 346.793Z" fill="white"/>
</g>
<g opacity="0.5">
<path d="M282.646 369.945L280.266 373.15L287.602 388.373L327.968 402.883L329.84 396.968C329.84 396.968 330.464 390.949 316.294 386.414C302.125 381.879 293.486 378.845 289.456 375.71C285.425 372.573 282.646 369.945 282.646 369.945Z" fill="white"/>
</g>
<path d="M149.376 256.896C149.376 256.896 137.015 255.041 131.244 265.152C125.473 275.262 126.064 279.64 126.064 279.64C126.064 279.64 134.228 287.061 145.457 286.681C156.687 286.301 173.054 273.359 178.383 269.172C183.712 264.985 197.154 252.995 206.326 255.468L207.337 246.797C207.337 246.797 206.446 242.911 198.6 243.956C190.755 245 187.679 249.479 185.156 249.479C182.633 249.479 180.236 247.045 175.123 255.73C175.123 255.73 157.292 258.894 149.376 256.896Z" fill="white"/>
<path d="M165.445 131.324C165.702 132.944 166.076 134.545 166.566 136.11C166.801 136.866 167.077 137.636 167.611 138.221C168.556 139.257 170.07 139.485 171.456 139.696C171.684 139.73 171.933 139.777 172.081 139.955C172.215 140.116 172.229 140.343 172.228 140.553C172.226 142.115 171.747 143.674 170.873 144.97" stroke="#1A2E35" stroke-miterlimit="10" stroke-linecap="round" stroke-linejoin="round"/>
<g opacity="0.1">
<path d="M290.944 359.611L282.645 369.944C282.645 369.944 291.75 378.35 301.173 381.466C310.596 384.583 327.08 390.49 329.84 395.003L328.779 389.57C328.779 389.57 302.994 373.75 297.067 369.973C291.14 366.198 290.944 359.611 290.944 359.611Z" fill="black"/>
</g>
<g opacity="0.1">
<path d="M319.715 383.776L336.225 393.155C336.225 393.155 344.354 387.596 348.373 383.457C352.393 379.317 357.296 374.795 360.327 365.581C364.516 352.847 376.519 346.793 376.519 346.793C376.519 346.793 359.828 354.648 351.139 360.82C342.45 366.991 333.981 369.555 329.064 369.137C329.064 369.137 333.014 381.643 319.715 383.776Z" fill="black"/>
</g>
<path d="M159.617 147.24C159.617 147.24 166.106 152.33 172.85 150.421C172.85 150.421 166.488 163.018 159.617 147.24Z" fill="white" stroke="#1A2E35" stroke-miterlimit="10" stroke-linecap="round" stroke-linejoin="round"/>
<path d="M159.418 136.239C159.605 137.64 159.185 138.853 158.478 138.947C157.771 139.043 157.045 137.984 156.857 136.582C156.67 135.18 157.091 133.968 157.798 133.873C158.505 133.778 159.232 134.838 159.418 136.239Z" fill="#1A2E35"/>
<path d="M173.508 133.697C173.695 135.098 173.275 136.31 172.568 136.406C171.861 136.5 171.135 135.441 170.949 134.04C170.76 132.638 171.181 131.426 171.888 131.33C172.595 131.236 173.321 132.295 173.508 133.697Z" fill="#1A2E35"/>
<path d="M158.394 130.302C158.394 130.302 154.611 128.352 151.919 132.529" stroke="#1A2E35" stroke-miterlimit="10" stroke-linecap="round" stroke-linejoin="round"/>
<path d="M168.07 127.702C168.07 127.702 172.061 124.267 174.382 127.702" stroke="#1A2E35" stroke-miterlimit="10" stroke-linecap="round" stroke-linejoin="round"/>
<path d="M145.543 143.17C145.543 143.17 143.11 139.578 140.561 139.694C138.01 139.811 136.968 143.401 137.895 146.878C138.823 150.354 142.645 155.222 145.542 154.757C148.44 154.295 149.713 152.44 149.713 152.44" stroke="#1A2E35" stroke-miterlimit="10" stroke-linecap="round" stroke-linejoin="round"/>
<path d="M168.835 115.705C171.57 117.968 174.456 120.446 175.887 123.782C177.105 126.622 177.382 129.765 178.497 132.647C179.687 135.72 180.994 138.934 181.092 142.283C181.182 145.333 180.489 148.503 179.883 151.473C179.358 154.042 178.952 156.692 178.029 159.158C176.684 162.748 174.19 164.956 170.847 166.662C168.417 167.902 164.367 169.684 161.741 168.004C160.21 167.024 157.914 164.145 156 161.512" stroke="#1A2E35" stroke-miterlimit="10" stroke-linecap="round" stroke-linejoin="round"/>
<path d="M145.543 154.758C145.543 154.758 149.841 165.299 148.798 172.715" stroke="#1A2E35" stroke-miterlimit="10" stroke-linecap="round" stroke-linejoin="round"/>
<path d="M144.435 141.398C145.584 140.566 146.243 139.101 146.102 137.69C145.94 136.067 144.815 134.57 145.039 132.955C145.149 132.163 145.575 131.458 145.898 130.727C147.082 128.057 146.884 124.817 145.382 122.313C145.382 122.313 159.039 122.951 165.442 118.879C171.845 114.808 176.716 104.404 172.848 99.4284C168.979 94.4524 161.44 101.237 155.861 101.991C150.282 102.745 130.377 105.912 127.211 113.602C124.044 121.293 128.87 124.013 129.02 131.323C129.171 138.633 129.163 152.48 140.1 151.211C140.1 151.211 136.011 145.921 138.849 140.468C140.782 138.146 144.435 141.398 144.435 141.398Z" fill="black"/>
<path d="M171.226 108.07C171.226 108.07 176.85 111.822 177.767 120.078C178.375 125.56 188.101 136.208 181.093 142.282C181.093 142.282 179.458 135.828 178.497 132.647C177.538 129.466 176.314 123.662 174.701 121.634C173.088 119.606 164.547 112.674 164.547 112.674L171.226 108.07Z" fill="black"/>
<path d="M146.802 172.484C146.802 172.484 153.542 176.917 166.061 177.104L167.524 193.894C167.524 193.894 153.453 192.819 142.976 183.189C142.976 183.189 140.149 175.7 140.895 172.484C141.642 169.268 148.348 166.072 148.348 166.072" stroke="#1A2E35" stroke-miterlimit="10" stroke-linecap="round" stroke-linejoin="round"/>
<path d="M175.122 164.971L175.524 170.948C170.974 175.612 166.062 177.104 166.062 177.104L173.903 192.029C173.903 192.029 183.247 184.753 184.18 177.104C184.18 177.104 184.256 169.268 182.632 167.03C181.007 164.791 175.062 163.736 175.062 163.736" stroke="#1A2E35" stroke-miterlimit="10" stroke-linecap="round" stroke-linejoin="round"/>
<g opacity="0.8">
<path d="M137.18 118.565C138.195 116.053 140.917 114.609 143.588 114.16C146.26 113.71 148.995 114.044 151.703 113.972C155.416 113.875 159.16 112.981 162.298 110.994C165.437 109.008 167.917 105.864 168.703 102.235" stroke="white" stroke-miterlimit="10" stroke-linecap="round" stroke-linejoin="round"/>
</g>
<g opacity="0.8">
<path d="M130.727 118.083C132.423 112.947 137.901 109.783 143.29 109.325C145.959 109.099 148.658 109.414 151.318 109.101C153.979 108.788 156.748 107.689 158.138 105.4" stroke="white" stroke-miterlimit="10" stroke-linecap="round" stroke-linejoin="round"/>
</g>
<path d="M127.889 281.088C114.91 287.827 110.269 280.895 103.031 275.154C95.7923 269.413 100.535 259.18 99.0373 242.705C97.5393 226.232 101.284 198.275 101.284 198.275C101.284 198.275 104.529 197.526 113.514 192.03C122.5 186.534 141.425 178.15 141.425 178.15" stroke="#1A2E35" stroke-miterlimit="10" stroke-linecap="round" stroke-linejoin="round"/>
<path d="M140.77 256.196C140.77 256.196 138.708 249.666 132.884 249.489C127.06 249.313 117.885 251.94 111.352 264.315" stroke="#1A2E35" stroke-miterlimit="10" stroke-linecap="round" stroke-linejoin="round"/>
<path d="M131.557 249.099C131.195 249.105 130.847 248.972 130.507 248.849C125.747 247.124 120.462 246.885 115.566 248.173" stroke="#1A2E35" stroke-miterlimit="10" stroke-linecap="round" stroke-linejoin="round"/>
<path d="M112.223 207.201C122.804 218.9 127.968 234.38 132.859 249.377" stroke="#1A2E35" stroke-miterlimit="10" stroke-linecap="round" stroke-linejoin="round"/>
<path d="M184.18 175.541C184.18 175.541 203.383 180.12 212.759 181.21C222.135 182.3 223.661 183.608 223.661 183.608L225.406 190.15" stroke="#1A2E35" stroke-miterlimit="10" stroke-linecap="round" stroke-linejoin="round"/>
<path d="M273.654 186.947L208.26 189.461L202.918 256.714H214.12L270.898 243.996L278.041 188.565L273.654 186.947Z" fill="white"/>
<path d="M206.324 258.706L277.838 190.15L270.899 243.997L206.324 258.706Z" fill="#46892E"/>
<g opacity="0.7">
<path d="M206.324 258.706L277.838 190.15L270.899 243.997L206.324 258.706Z" fill="white"/>
</g>
<path d="M206.322 256.898L212.036 192.03L278.041 188.565L270.897 243.997L206.322 256.898Z" stroke="#1A2E35" stroke-miterlimit="10" stroke-linecap="round" stroke-linejoin="round"/>
<path d="M250.222 219.986C249.776 223.936 247.665 226.94 245.51 226.696C243.353 226.453 241.966 223.053 242.412 219.104C242.859 215.155 244.969 212.15 247.124 212.394C249.282 212.637 250.667 216.037 250.222 219.986Z" fill="#1A2E35"/>
<path d="M270.898 243.997C270.898 243.997 301.118 243.138 310.57 249.377C320.023 255.617 325.564 286.908 324.26 303.531C322.957 320.155 311.548 358.291 311.548 358.291L289.71 333.518C289.71 333.518 278.953 294.405 284.82 279.085C284.82 279.085 255.81 280.715 244.402 277.13C244.402 277.13 234.17 260.383 216.633 254.838L270.898 243.997Z" fill="black"/>
<path d="M316.16 358.938C306.931 350.58 298.028 339.077 295.386 334.985C284.815 318.655 270.202 302.946 255.175 290.755C243.058 280.928 240.318 264.927 225.376 256.902C200.631 243.628 179.235 270.004 171.234 275.338C163.234 280.672 149.375 286.688 149.375 286.688C149.375 286.688 154.429 305.649 169.286 307.938C184.142 310.228 199.182 299.938 206.33 304.894C213.478 309.838 218.703 331.94 242.181 344.897C261.373 355.48 287.518 365.806 301.012 372.76C304.031 374.319 306.253 375.961 307.953 376.888C312.613 379.428 317.593 382.425 322.29 385.382L338.479 395.244C338.479 395.244 354.726 385.634 360.966 376.772C361.806 375.582 363.529 372.41 365.148 369.348C368.683 362.667 373.13 356.666 379.34 353.328C383.623 351.025 387.434 350.319 387.312 350.092C386.899 349.329 379.143 345.363 373.869 347.534C362.71 352.137 340.403 369.851 329.906 368.54C329.906 368.54 322.258 364.46 316.16 358.938Z" stroke="#1A2E35" stroke-miterlimit="10"/>
<path d="M316.158 358.937C306.429 362.871 302.508 368.923 301.01 372.759C287.516 365.805 261.371 355.479 242.179 344.896C218.701 331.939 213.476 309.837 206.328 304.893C199.18 299.937 184.14 310.227 169.284 307.937C154.427 305.648 149.379 286.682 149.379 286.682C149.379 286.682 163.236 280.675 171.237 275.341C179.237 270.007 197.685 243.623 225.374 256.901C240.669 264.236 243.056 280.927 255.173 290.754C270.2 302.945 284.813 318.654 295.384 334.984C298.026 339.076 306.903 350.608 316.158 358.937Z" fill="black"/>
<path d="M243.044 274.164C243.044 274.164 235.554 258.941 223.539 255.989" stroke="white" stroke-miterlimit="10" stroke-linecap="round" stroke-linejoin="round"/>
<path d="M203.785 243.86C195.522 242.056 186.451 251.189 182.632 249.48C179.791 248.209 175.121 255.731 175.121 255.731C175.121 255.731 163.028 257.599 151.9 256.897C140.772 256.195 135.497 258.356 131.56 264.314L126.062 278.877C126.062 278.877 140.566 291.892 156.067 284.309C171.567 276.725 192.145 253.906 206.325 253.985" stroke="#1A2E35" stroke-miterlimit="10" stroke-linecap="round" stroke-linejoin="round"/>
<path d="M319.087 383.386C319.087 383.386 332.654 384.501 329.471 368.298" stroke="#1A2E35" stroke-miterlimit="10"/>
<path d="M382.99 358.291C381.963 360.333 369.554 370.871 358.844 380.122C358.876 379.978 361.805 374.332 363.093 371.922C365.934 366.601 373.294 352.009 387.31 350.092C389.299 351.29 382.99 358.291 382.99 358.291Z" fill="black"/>
<path d="M377.661 346.896C363.493 349.724 360.276 367.876 355.244 375.632C350.212 383.389 336.227 393.87 336.227 393.87" stroke="#1A2E35" stroke-miterlimit="10"/>
<path d="M328.604 389.226C330.907 393.452 329.818 398.348 328.604 401.416C327.584 403.997 326.381 405.787 326.381 405.787C306.322 402.49 286.262 391.712 286.262 391.712L281.09 375.708L280.266 373.149L288.051 362.664" stroke="#1A2E35" stroke-miterlimit="10"/>
<path d="M328.604 401.417C327.584 403.998 326.381 405.787 326.381 405.787C306.322 402.49 286.262 391.713 286.262 391.713L281.09 375.709C283.681 379.092 288.485 384.036 295.685 386.074C305.455 388.84 323.486 392.081 328.604 401.417Z" fill="black"/>
<path d="M202.918 254.373L208.261 189.461L273.654 186.947L278.041 188.564" stroke="#1A2E35" stroke-miterlimit="10" stroke-linecap="round" stroke-linejoin="round"/>
<path d="M329.328 375.634C329.328 375.634 338.272 377.229 345.138 371.624C352.003 366.019 363.079 353.355 363.079 353.355" stroke="#1A2E35" stroke-miterlimit="10"/>
<path d="M338.478 367.547C338.478 367.547 336.322 370.798 338.478 377.325" stroke="#1A2E35" stroke-miterlimit="10" stroke-linecap="round" stroke-linejoin="round"/>
<path d="M344.819 364.461C344.819 364.461 343.091 369.321 345.627 374.236" stroke="#1A2E35" stroke-miterlimit="10" stroke-linecap="round" stroke-linejoin="round"/>
<path d="M352.372 360.078C352.372 360.078 350.56 365.511 352.372 370.303" stroke="#1A2E35" stroke-miterlimit="10" stroke-linecap="round" stroke-linejoin="round"/>
<path d="M289.822 361.312L282.645 369.944C282.645 369.944 289.876 377.831 300.057 381.109C310.238 384.388 328.454 389.959 329.959 395.888" stroke="#1A2E35" stroke-miterlimit="10"/>
</g>
<defs>
<clipPath id="clip0_1542_1646">
<rect width="429" height="422" fill="white"/>
</clipPath>
</defs>
</svg>
