<svg width="514" height="483" viewBox="0 0 514 483" fill="none" xmlns="http://www.w3.org/2000/svg">
<path d="M158.399 6.40364C159.329 6.87532 160.258 7.347 161.216 7.83297C163.22 8.85114 165.222 9.87383 167.222 10.9006C170.386 12.524 173.557 14.1331 176.73 15.7385C185.746 20.3028 194.749 24.8908 203.746 29.4915C209.26 32.31 214.783 35.111 220.311 37.9015C222.415 38.968 224.515 40.0415 226.612 41.1218C229.536 42.6279 232.47 44.1118 235.407 45.5911C236.273 46.044 237.138 46.4969 238.03 46.9635C242.578 49.3467 242.578 49.3467 247.532 49.1226C250.434 47.2214 253.309 45.2986 256.144 43.3011C277.645 28.6262 302.396 16.3581 329.086 21.387C340.395 25.1515 349.378 33.8474 354.996 44.2386C359.779 54.6986 360.474 67.0675 357.082 78.1136C352.61 89.5114 345.072 98.1017 336.644 106.739C336.114 107.294 335.585 107.849 335.039 108.422C330.737 112.853 326.138 116.653 321.207 120.364C320.139 121.183 320.139 121.183 319.049 122.02C314.407 125.544 309.641 128.74 304.644 131.739C304.763 134.052 304.889 136.364 305.019 138.676C305.089 139.964 305.159 141.252 305.23 142.578C305.552 147.258 306.113 151.905 306.67 156.561C306.81 157.742 306.81 157.742 306.954 158.948C307.183 160.878 307.414 162.808 307.644 164.739C308.609 164.739 309.574 164.74 310.568 164.74C334.063 164.755 357.559 164.798 381.054 164.871C392.416 164.905 403.778 164.931 415.14 164.934C425.046 164.937 434.951 164.958 444.856 164.999C450.099 165.02 455.342 165.033 460.585 165.025C465.525 165.017 470.464 165.033 475.403 165.067C477.212 165.075 479.02 165.075 480.828 165.065C491.628 165.014 500.973 165.209 509.144 173.176C512.596 179.073 512.942 184.409 512.935 191.061C512.945 192.44 512.945 192.44 512.955 193.847C512.974 196.875 512.978 199.902 512.98 202.93C512.987 205.039 512.993 207.149 513 209.258C513.012 213.674 513.016 218.089 513.015 222.505C513.015 228.163 513.042 233.821 513.076 239.479C513.099 243.833 513.103 248.187 513.102 252.541C513.104 254.627 513.113 256.713 513.128 258.8C513.148 261.715 513.142 264.63 513.13 267.546C513.141 268.406 513.153 269.267 513.164 270.154C513.122 274.147 512.951 276.237 510.824 279.714C508.013 282.325 505.02 283.456 501.457 284.676C489.262 289.243 480.841 295.409 475.269 307.551C471.412 316.758 471.057 328.172 474.207 337.676C478.726 348.275 486.715 356.462 497.304 360.879C500.357 362 503.455 362.915 506.601 363.735C509.655 365.235 510.821 366.848 512.644 369.739C513.233 372.853 513.201 375.921 513.178 379.084C513.186 380.018 513.195 380.952 513.204 381.914C513.227 384.998 513.22 388.081 513.211 391.164C513.216 393.313 513.222 395.461 513.229 397.61C513.24 402.113 513.235 406.616 513.221 411.119C513.204 416.88 513.227 422.639 513.262 428.399C513.284 432.837 513.283 437.275 513.274 441.713C513.274 443.836 513.28 445.959 513.295 448.082C513.313 451.057 513.298 454.03 513.275 457.005C513.287 457.876 513.299 458.746 513.311 459.643C513.197 467.025 510.494 471.81 505.394 477.051C499.039 480.951 492.524 482.187 485.162 482.119C484.355 482.124 483.547 482.128 482.715 482.133C480.021 482.145 477.328 482.136 474.634 482.126C472.679 482.13 470.723 482.136 468.767 482.143C463.402 482.157 458.038 482.153 452.673 482.145C446.883 482.141 441.094 482.153 435.305 482.163C423.967 482.181 412.629 482.182 401.291 482.176C392.076 482.172 382.861 482.174 373.646 482.179C372.334 482.18 371.023 482.181 369.672 482.181C367.675 482.182 365.679 482.184 363.683 482.185C345.128 482.195 326.573 482.2 308.017 482.192C307.318 482.192 306.619 482.192 305.899 482.191C300.221 482.189 294.543 482.186 288.865 482.184C266.716 482.174 244.568 482.182 222.419 482.205C197.526 482.231 172.634 482.244 147.741 482.237C134.564 482.233 121.387 482.236 108.209 482.253C96.9926 482.268 85.776 482.269 74.5592 482.251C68.8365 482.243 63.1139 482.241 57.3912 482.256C52.1511 482.27 46.9114 482.265 41.6714 482.246C39.7771 482.242 37.8828 482.245 35.9886 482.255C15.2779 482.361 15.2779 482.361 7.20682 475.739C6.69119 475.079 6.17557 474.419 5.64432 473.739C5.10807 473.079 4.57182 472.419 4.01932 471.739C1.70452 468.372 0.397658 465.772 0.370163 461.647C0.360188 460.841 0.350213 460.035 0.339935 459.204C0.339271 458.329 0.338606 457.453 0.337921 456.551C0.329598 455.622 0.321274 454.694 0.312698 453.737C0.2886 450.666 0.279827 447.595 0.273224 444.524C0.264259 442.389 0.255137 440.254 0.245865 438.12C0.229374 433.645 0.221674 429.171 0.218781 424.696C0.213392 418.961 0.17569 413.227 0.130035 407.493C0.100302 403.084 0.0930597 398.675 0.0920563 394.267C0.0878478 392.152 0.0753848 390.038 0.0545349 387.924C0.0276941 384.967 0.032426 382.012 0.0449524 379.055C0.0301181 378.182 0.0152838 377.308 0 376.409C0.0533575 371.988 0.20567 370.286 3.06244 366.72C5.23378 365.054 6.77869 363.96 9.35135 363.149C10.3493 362.813 10.3493 362.813 11.3675 362.471C12.0569 362.25 12.7464 362.029 13.4568 361.801C26.1892 357.355 33.7607 350.202 39.6638 338.071C43.1565 329.763 43.2321 317.691 40.0193 309.239C39.2764 307.714 38.4844 306.212 37.6443 304.739C37.2202 303.961 36.7961 303.184 36.3592 302.383C29.6355 291.202 18.9384 285.934 6.68729 282.743C3.63697 281.244 2.46666 279.624 0.644318 276.739C0.0605412 273.653 0.0974879 270.618 0.12674 267.485C0.11973 266.561 0.112721 265.637 0.105499 264.685C0.0879136 261.633 0.0995472 258.583 0.113068 255.532C0.110372 253.406 0.106489 251.28 0.101471 249.153C0.0955745 244.697 0.104141 240.241 0.122833 235.785C0.145581 230.086 0.132534 224.387 0.108551 218.687C0.0940615 214.295 0.0987066 209.904 0.109055 205.512C0.111715 203.412 0.108475 201.311 0.0991364 199.21C0.0889237 196.266 0.10454 193.324 0.12674 190.38C0.118643 189.519 0.110546 188.658 0.102203 187.771C0.195655 181.047 1.87237 175.542 6.67947 170.68C7.3485 170.225 8.01752 169.77 8.70682 169.301C9.37842 168.828 10.05 168.355 10.742 167.868C14.9898 165.347 19.2457 165.523 24.031 165.422C24.848 165.401 25.6651 165.381 26.5068 165.359C29.1151 165.294 31.7234 165.235 34.3318 165.176C36.1007 165.133 37.8696 165.089 39.6385 165.045C43.9736 164.938 48.3089 164.837 52.6443 164.739C52.1622 164.208 51.6801 163.676 51.1834 163.129C50.5517 162.423 49.9201 161.716 49.2693 160.989C48.6428 160.293 48.0163 159.596 47.3709 158.879C44.0044 154.705 43.4252 152.263 43.9646 146.836C46.0049 140.54 51.8404 137.182 57.0193 133.614C57.7618 133.089 58.5043 132.564 59.2693 132.024C70.5195 124.172 70.5195 124.172 77.3054 125.158C81.9824 126.319 86.1116 128.695 90.3474 130.938C92.3995 131.992 94.4515 133.046 96.5037 134.1C99.7145 135.768 102.923 137.441 106.129 139.118C109.237 140.738 112.354 142.339 115.472 143.938C116.433 144.448 117.393 144.958 118.383 145.484C119.278 145.942 120.173 146.399 121.095 146.87C121.879 147.28 122.663 147.69 123.471 148.113C125.661 148.975 125.661 148.975 127.819 147.941C129.766 146.658 131.471 145.298 133.207 143.739C134.251 142.807 134.251 142.807 135.316 141.856C136.955 140.365 138.59 138.87 140.222 137.371C145.774 132.28 151.414 127.409 157.332 122.746C159.478 120.883 161.05 119.078 162.644 116.739C157.862 111.212 152.972 105.79 148.047 100.391C146.075 98.214 144.131 96.0202 142.207 93.8011C139.245 90.3917 136.203 87.0607 133.144 83.7386C129.5 79.78 125.905 75.7868 122.379 71.723C120.363 69.4171 118.319 67.1392 116.269 64.8636C115.511 64.0218 114.753 63.1801 113.972 62.3128C112.426 60.6024 110.873 58.8966 109.316 57.1956C94.3775 40.8088 94.3775 40.8088 94.6443 33.7386C96.5604 28.9706 98.6732 26.5166 102.832 23.5511C103.895 22.7867 104.959 22.0223 106.054 21.2347C107.25 20.4005 108.446 19.5685 109.644 18.7386C110.293 18.2876 110.941 17.8366 111.609 17.3719C115.013 15.0084 118.428 12.6626 121.855 10.3324C125.834 7.62307 129.742 4.82076 133.629 1.98079C141.716 -3.00329 150.928 2.52836 158.399 6.40364ZM137.828 27.3636C136.682 28.1757 136.682 28.1757 135.513 29.0042C134.711 29.5766 133.909 30.1489 133.082 30.7386C131.872 31.5971 131.872 31.5971 130.638 32.473C128.639 33.8928 126.641 35.3147 124.644 36.7386C125.877 40.2677 127.087 42.5195 129.832 45.0511C133.005 48.0868 135.901 51.2557 138.769 54.5784C142.334 58.6853 146 62.7021 149.644 66.7386C151.892 69.2355 154.139 71.7331 156.387 74.2308C157.911 75.9245 159.437 77.6172 160.965 79.3089C167.63 86.6971 174.182 94.1727 180.644 101.739C183.733 100.323 186.2 98.6315 188.832 96.4886C189.707 95.7783 190.582 95.0681 191.484 94.3363C193.856 92.391 196.221 90.438 198.586 88.4847C200.022 87.2985 201.458 86.1123 202.894 84.9261C203.617 84.3288 204.34 83.7315 205.084 83.116C211.848 77.5404 218.722 72.1144 225.644 66.7386C222.343 64.0637 218.86 62.2247 215.062 60.3324C214.42 60.0114 213.778 59.6904 213.117 59.3596C211.024 58.3151 208.928 57.2767 206.832 56.2386C205.374 55.5132 203.916 54.7876 202.459 54.0618C193.325 49.5228 184.154 45.0705 174.936 40.7061C166.591 36.7458 158.336 32.6138 150.094 28.4447C149.133 27.9603 148.173 27.4759 147.183 26.9769C146.33 26.5442 145.476 26.1114 144.596 25.6656C141.347 24.1224 140.694 25.3255 137.828 27.3636ZM251.661 76.0531C248.63 78.5863 245.517 81.0081 242.394 83.4261C237.327 87.3652 232.407 91.4434 227.533 95.6187C223.693 98.8936 219.76 102.024 215.769 105.114C208.773 110.543 202.119 116.327 195.458 122.159C188.809 127.95 182.048 133.613 175.207 139.176C169.203 144.066 163.338 149.11 157.473 154.164C154.389 156.819 151.298 159.466 148.207 162.114C147.104 163.059 146.001 164.004 144.898 164.95C144.369 165.401 143.841 165.852 143.296 166.316C142.12 167.329 140.954 168.352 139.795 169.384C139.184 169.924 138.572 170.464 137.941 171.02C137.389 171.513 136.837 172.006 136.268 172.514C133.367 174.702 131.231 174.86 127.644 174.739C120.641 172.462 114.036 169.071 107.48 165.754C106.562 165.294 105.644 164.833 104.698 164.359C101.803 162.906 98.9113 161.447 96.0193 159.989C94.0416 158.995 92.0638 158.001 90.0857 157.008C85.2698 154.589 80.4561 152.166 75.6443 149.739C74.6543 150.729 73.6643 151.719 72.6443 152.739C73.0621 153.181 73.4798 153.624 73.9102 154.08C75.8439 156.132 77.7753 158.185 79.7068 160.239C80.692 161.283 80.692 161.283 81.6971 162.348C85.5781 166.478 89.3736 170.664 93.084 174.948C94.3923 176.449 95.7316 177.924 97.0779 179.391C97.7392 180.145 98.4005 180.899 99.0818 181.676C99.7612 182.428 100.44 183.179 101.14 183.953C103.358 188.061 103.626 191.174 102.644 195.739C100.673 200.158 98.2046 204.201 95.6443 208.301C94.9766 209.405 94.3088 210.509 93.6209 211.647C91.9793 214.355 90.3205 217.051 88.6443 219.739C91.7973 220.727 94.0984 220.707 97.3474 220.18C98.6952 219.972 98.6952 219.972 100.07 219.76C101.002 219.609 101.934 219.457 102.894 219.301C119.317 216.656 119.317 216.656 124.165 218.911C127.115 221.086 128.261 223.02 129.949 226.262C130.533 227.367 131.117 228.471 131.719 229.61C132.313 230.766 132.907 231.922 133.519 233.114C134.399 234.79 134.399 234.79 135.297 236.5C136.481 238.757 137.66 241.015 138.835 243.277C141.718 248.793 144.68 254.266 147.644 259.739C148.964 259.409 150.284 259.079 151.644 258.739C151.183 251.64 150.55 244.582 149.672 237.524C149.584 236.814 149.496 236.104 149.405 235.372C149.042 232.45 148.676 229.528 148.298 226.607C144.939 200.465 144.939 200.465 148.562 194.672C152.596 192.141 156.689 189.912 160.957 187.801C168.881 183.769 176.616 179.513 184.269 174.989C192.784 169.963 201.362 165.078 210.019 160.301C222.184 153.58 234.248 146.699 246.26 139.708C248.577 138.359 250.896 137.012 253.217 135.667C287.434 116.377 287.434 116.377 318.644 92.7386C319.544 91.951 320.444 91.1634 321.371 90.3519C327.83 84.3353 334.899 75.6168 335.883 66.5394C336.096 59.3996 334.9 54.3649 330.066 48.9808C325.359 44.5918 320.875 43.0553 314.457 42.4261C290.527 44.3875 269.313 61.0882 251.661 76.0531ZM274.754 149.563C273.744 150.174 272.734 150.785 271.693 151.414C270.604 152.078 269.516 152.742 268.394 153.426C266.705 154.449 265.016 155.471 263.327 156.492C262.17 157.192 261.013 157.892 259.856 158.592C253.957 162.163 248.023 165.674 242.082 169.176C241.131 169.737 240.18 170.298 239.2 170.876C237.015 172.164 234.83 173.452 232.644 174.739C238.697 187.172 245.242 199.314 251.861 211.453C253.713 214.865 255.55 218.285 257.383 221.707C258.001 222.861 258.618 224.014 259.255 225.202C260.438 227.412 261.62 229.622 262.799 231.834C266.239 238.249 269.835 244.536 273.644 250.739C278.373 249.165 281.988 246.532 285.957 243.614C286.925 242.912 286.925 242.912 287.912 242.196C289.493 241.048 291.069 239.894 292.644 238.739C290.508 217.818 288.25 196.912 285.86 176.019C285.591 173.663 285.323 171.306 285.056 168.95C284.679 165.624 284.297 162.298 283.914 158.973C283.8 157.966 283.687 156.96 283.57 155.923C283.463 155.003 283.356 154.083 283.245 153.136C283.153 152.331 283.061 151.527 282.965 150.698C282.732 148.667 282.732 148.667 281.644 146.739C278.763 146.739 277.21 148.068 274.754 149.563ZM205.226 189.485C203.59 190.371 203.59 190.371 201.92 191.276C200.777 191.903 199.634 192.53 198.457 193.176C197.364 193.768 196.272 194.361 195.146 194.971C186.262 199.804 177.45 204.764 168.644 209.739C168.722 210.375 168.799 211.01 168.879 211.666C169.684 218.299 170.477 224.935 171.263 231.571C171.557 234.046 171.855 236.52 172.156 238.994C172.589 242.555 173.01 246.117 173.429 249.68C173.566 250.781 173.702 251.883 173.843 253.017C175.336 265.945 175.336 265.945 172.078 271.325C168.898 274.479 165.431 276.892 161.707 279.364C161.004 279.841 160.3 280.318 159.576 280.809C157.609 282.136 155.63 283.441 153.644 284.739C152.737 285.338 151.829 285.937 150.894 286.555C147.261 288.466 144.717 288.062 140.644 287.739C136.827 286.404 135.64 284.522 133.797 280.996C133.279 280.021 132.762 279.046 132.228 278.042C131.685 276.993 131.142 275.944 130.582 274.864C129.424 272.688 128.267 270.512 127.109 268.336C125.414 265.116 123.725 261.893 122.047 258.664C120.593 255.869 119.12 253.085 117.644 250.301C117.212 249.45 116.78 248.599 116.335 247.722C115.715 246.556 115.715 246.556 115.082 245.368C114.73 244.688 114.378 244.008 114.015 243.307C112.014 241.017 110.666 240.962 107.644 240.739C104.912 240.991 102.267 241.314 99.5623 241.735C98.7893 241.847 98.0163 241.959 97.2198 242.075C94.7559 242.434 92.2938 242.804 89.8318 243.176C87.3804 243.543 84.9287 243.908 82.4759 244.266C80.9535 244.489 79.4319 244.716 77.9112 244.951C70.7231 246.006 63.9941 246.972 57.6443 242.739C55.5242 239.306 55.2705 236.547 55.8333 232.521C57.6762 226.198 61.5384 220.63 64.9568 215.051C65.7389 213.747 66.5195 212.441 67.2986 211.135C70.0705 206.509 72.8413 201.904 75.9029 197.462C77.8562 194.97 77.8562 194.97 77.5818 192.551C76.482 190.425 75.5178 189.241 73.6443 187.739C71.2862 187.304 71.2862 187.304 68.6221 187.398C67.587 187.398 66.5519 187.399 65.4855 187.399C64.3997 187.414 63.3138 187.43 62.1951 187.446C61.1956 187.449 60.196 187.452 59.1662 187.455C55.4296 187.47 51.6932 187.512 47.9568 187.551C39.6037 187.613 31.2506 187.675 22.6443 187.739C22.6443 212.489 22.6443 237.239 22.6443 262.739C27.5943 265.379 32.5443 268.019 37.6443 270.739C49.3385 279.072 56.3929 288.373 61.6443 301.739C61.9859 302.575 62.3275 303.412 62.6795 304.274C67.8241 319.373 65.5323 337.691 58.9568 351.864C50.4489 367.934 38.4683 375.827 22.6443 383.739C22.6443 408.489 22.6443 433.239 22.6443 458.739C130.554 458.739 238.464 458.739 349.644 458.739C349.974 448.839 350.304 438.939 350.644 428.739C351.304 426.759 351.964 424.779 352.644 422.739C356.598 420.762 360.268 420.192 364.644 420.739C370.352 423.862 370.352 423.862 371.644 427.739C371.974 437.969 372.304 448.199 372.644 458.739C411.584 458.739 450.524 458.739 490.644 458.739C490.644 433.989 490.644 409.239 490.644 383.739C485.364 380.769 480.084 377.799 474.644 374.739C461.51 364.177 452.65 350.555 449.644 333.739C447.939 314.43 451.92 297.522 463.769 281.926C471.247 273.274 480.23 268.367 490.644 263.739C490.644 238.659 490.644 213.579 490.644 187.739C451.704 187.739 412.764 187.739 372.644 187.739C372.314 197.969 371.984 208.199 371.644 218.739C367.644 223.739 367.644 223.739 365.644 224.739C360.397 225.083 356.827 225.307 352.644 221.739C350.635 217.771 350.347 214.32 350.23 209.907C350.195 208.741 350.159 207.576 350.122 206.376C350.088 204.908 350.054 203.439 350.019 201.926C349.896 197.244 349.772 192.562 349.644 187.739C336.444 187.739 323.244 187.739 309.644 187.739C310.284 193.823 310.923 199.907 311.582 206.176C311.782 208.078 311.981 209.98 312.187 211.94C312.349 213.475 312.51 215.011 312.672 216.547C312.753 217.322 312.834 218.096 312.918 218.894C313.403 223.507 313.908 228.117 314.436 232.725C314.755 235.814 314.891 238.885 314.957 241.989C314.994 243.149 315.032 244.309 315.07 245.504C314.548 249.468 313.45 250.933 310.644 253.739C308.332 255.485 308.332 255.485 305.644 257.176C298.847 261.557 292.257 266.205 285.676 270.902C273.233 279.699 273.233 279.699 266.644 278.739C260.18 275.595 258.076 270.651 255.019 264.364C253.963 262.265 252.904 260.167 251.844 258.071C251.31 257.008 250.777 255.945 250.228 254.85C247.86 250.197 245.353 245.623 242.832 241.051C238.136 232.495 233.499 223.907 228.894 215.301C228.574 214.702 228.253 214.102 227.922 213.485C225.828 209.57 223.736 205.655 221.644 201.739C221.168 200.847 220.692 199.956 220.201 199.037C218.013 194.939 215.827 190.84 213.644 186.739C210.009 186.739 208.409 187.751 205.226 189.485Z" fill="white"/>
<path d="M113.489 363.465C114.7 363.457 114.7 363.457 115.936 363.449C118.651 363.434 121.367 363.433 124.082 363.432C126.025 363.425 127.968 363.416 129.911 363.407C135.196 363.385 140.481 363.376 145.766 363.371C149.067 363.368 152.367 363.361 155.667 363.354C167.175 363.33 178.683 363.317 190.191 363.313C200.927 363.31 211.662 363.28 222.397 363.238C231.607 363.203 240.818 363.188 250.028 363.187C255.532 363.186 261.035 363.177 266.539 363.149C271.715 363.123 276.891 363.121 282.067 363.137C283.968 363.138 285.868 363.132 287.769 363.116C290.362 363.095 292.954 363.106 295.547 363.124C296.678 363.104 296.678 363.104 297.831 363.084C301.804 363.148 303.473 363.598 306.589 366.152C309.443 369.743 310.038 371.989 310.004 376.633C309.369 380.355 307.305 382.142 304.645 384.739C301.579 386.271 298.368 385.89 295.004 385.893C294.206 385.897 293.408 385.901 292.586 385.906C289.898 385.919 287.209 385.925 284.521 385.932C282.599 385.939 280.678 385.948 278.756 385.956C272.433 385.983 266.109 385.998 259.786 386.012C257.611 386.018 255.436 386.023 253.261 386.028C244.216 386.05 235.171 386.069 226.126 386.08C213.153 386.096 200.18 386.129 187.207 386.186C178.091 386.225 168.975 386.245 159.859 386.25C154.411 386.253 148.964 386.266 143.517 386.298C138.391 386.328 133.267 386.334 128.142 386.323C126.261 386.322 124.38 386.331 122.499 386.348C119.93 386.371 117.363 386.363 114.794 386.347C114.05 386.361 113.306 386.374 112.54 386.389C106.827 386.302 104.507 384.652 100.645 380.739C99.0493 377.547 99.265 374.211 99.6449 370.739C102.712 364.021 106.629 363.443 113.489 363.465Z" fill="white"/>
<path d="M112.691 300.585C113.981 300.576 115.271 300.568 116.6 300.559C118.038 300.554 119.475 300.55 120.913 300.546C122.421 300.538 123.929 300.53 125.436 300.521C130.396 300.495 135.356 300.48 140.316 300.465C142.023 300.46 143.73 300.455 145.437 300.449C152.536 300.428 159.636 300.409 166.735 300.398C176.913 300.381 187.09 300.348 197.268 300.291C204.422 300.253 211.576 300.233 218.73 300.228C223.004 300.224 227.277 300.212 231.551 300.18C235.573 300.15 239.595 300.143 243.617 300.155C245.091 300.155 246.566 300.147 248.04 300.129C260.57 299.988 260.57 299.988 264.506 303.15C267.53 306.811 267.928 308.923 267.867 313.704C267.546 316.64 266.464 318.448 264.645 320.739C260.059 323.796 255.966 323.864 250.548 323.873C248.71 323.879 248.71 323.879 246.835 323.886C245.485 323.885 244.135 323.885 242.786 323.884C241.358 323.887 239.93 323.891 238.502 323.894C234.63 323.903 230.758 323.905 226.886 323.906C224.466 323.907 222.045 323.909 219.624 323.912C211.174 323.921 202.724 323.925 194.274 323.924C186.405 323.924 178.536 323.934 170.667 323.95C163.904 323.963 157.141 323.968 150.379 323.968C146.343 323.967 142.306 323.97 138.27 323.981C134.473 323.991 130.676 323.991 126.879 323.983C125.489 323.982 124.099 323.985 122.708 323.991C109.206 324.046 109.206 324.046 103.645 321.739C100.729 318.599 99.3899 315.968 99.082 311.739C99.3057 307.078 101.377 304.929 104.645 301.739C107.396 300.363 109.61 300.6 112.691 300.585Z" fill="white"/>
<path d="M365.644 245.739C368.713 247.458 371.048 249.546 372.644 252.739C372.76 254.34 372.814 255.946 372.837 257.552C372.861 259.054 372.861 259.054 372.886 260.587C372.93 265.174 372.971 269.762 372.994 274.349C373.011 276.768 373.038 279.187 373.076 281.606C373.131 285.093 373.153 288.579 373.168 292.067C373.19 293.145 373.213 294.223 373.236 295.334C373.213 303.722 373.213 303.722 370.299 307.406C367.167 310.158 365.451 310.662 361.332 311.051C356.918 310.677 354.982 309.61 351.644 306.739C348.853 301.919 349.338 296.581 349.343 291.18C349.339 290.158 349.335 289.136 349.33 288.083C349.325 285.926 349.324 283.768 349.328 281.61C349.332 278.316 349.308 275.023 349.283 271.729C349.281 269.629 349.28 267.53 349.281 265.43C349.272 264.449 349.262 263.467 349.253 262.456C349.295 256.204 350.032 251.753 354.269 246.864C358.033 245.081 361.57 244.963 365.644 245.739Z" fill="white"/>
<path d="M365.644 335.739C368.713 337.458 371.048 339.546 372.644 342.739C372.754 344.254 372.803 345.774 372.821 347.293C372.834 348.237 372.847 349.182 372.86 350.155C372.868 351.179 372.875 352.203 372.883 353.258C372.891 354.309 372.899 355.36 372.907 356.442C372.921 358.669 372.932 360.896 372.94 363.123C372.957 366.527 373.001 369.93 373.045 373.334C373.055 375.496 373.063 377.659 373.07 379.821C373.088 380.838 373.105 381.856 373.123 382.905C373.101 389.998 373.101 389.998 370.731 393.839C367.448 396.828 365.684 397.644 361.207 398.051C357.327 397.711 355.62 397.218 352.644 394.739C349.214 389.448 349.205 384.83 349.246 378.739C349.243 377.785 349.24 376.831 349.237 375.848C349.235 373.838 349.241 371.827 349.253 369.817C349.269 366.749 349.253 363.682 349.234 360.614C349.236 358.655 349.24 356.697 349.246 354.739C349.24 353.826 349.234 352.913 349.228 351.973C349.294 345.927 350.179 341.583 354.269 336.864C358.033 335.081 361.57 334.963 365.644 335.739Z" fill="white"/>
</svg>
