<svg width="74" height="88" viewBox="0 0 74 88" fill="none" xmlns="http://www.w3.org/2000/svg">
<path d="M72.9353 0.061997C71.8748 -0.559691 67.7902 3.54711 62.7912 10.0017L55.9558 11.0707C56.4536 10.1719 56.5023 9.30198 56.0203 8.99886C55.4541 8.64251 54.3712 9.20446 53.6019 10.2544C53.2844 10.6876 53.0717 11.1353 52.9691 11.538L46.6336 12.5291C47.3464 11.5055 47.4871 10.421 46.9372 10.0748C46.3705 9.71847 45.2876 10.2808 44.5183 11.3304C44.1039 11.896 43.8666 12.4872 43.8232 12.9687L36.3404 14.139L34.3848 16.8073L49.1327 17.3522L55.5769 20.0791C51.8989 25.6069 48.9718 30.6555 47.3025 34.2248L40.0711 35.3767L39.2189 36.9902L45.6709 38.8626L44.9166 41.1007L46.8236 39.6708L50.9208 44.3514L52.2252 43.0218L50.6511 36.0975C53.3734 33.2077 56.9589 28.7039 60.6943 23.3883L65.4605 27.6231L71.4481 40.1214L73.4033 37.4535L71.8165 30.5735C72.284 30.3589 72.7888 29.9416 73.2046 29.3748C73.9739 28.3252 74.1384 27.1855 73.5717 26.8291C73.0213 26.4829 71.9862 27.0075 71.2222 27.9993L69.8775 22.1705C70.2441 21.9336 70.6148 21.5903 70.9327 21.1563C71.702 20.1068 71.8665 18.967 71.2998 18.6102C70.8183 18.3071 69.9639 18.6724 69.2459 19.4331L67.6815 12.6534C71.7753 5.78274 73.9879 0.678809 72.9353 0.061997Z" fill="#374A63"/>
<mask id="path-2-inside-1_160_11067" fill="white">
<path d="M5.98017 78.5616C6.78858 79.299 7.6895 79.9003 8.65712 80.3774C8.78913 80.4425 8.95677 80.3889 9.03186 80.2575C9.10672 80.1263 9.06038 79.9669 8.92837 79.9019C8.00137 79.4447 7.1414 78.8704 6.36947 78.1662C6.26239 78.0683 6.08815 78.0775 5.98078 78.1868C5.87328 78.2958 5.87309 78.4637 5.98017 78.5616ZM11.754 81.4546C12.8178 81.6928 13.9226 81.8234 15.0456 81.8593C15.1966 81.8641 15.3303 81.7494 15.3438 81.6027C15.3572 81.4564 15.2456 81.3336 15.0942 81.3287C14.0033 81.2939 12.9331 81.1672 11.9064 80.9372C11.7605 80.9043 11.6081 80.9936 11.5661 81.1366C11.5241 81.2795 11.6083 81.4219 11.754 81.4546ZM18.3851 81.7022C19.4967 81.567 20.6046 81.3528 21.6881 81.0712C21.8366 81.0326 21.9311 80.8866 21.8994 80.7452C21.8676 80.6038 21.7215 80.5206 21.573 80.5591C20.514 80.8344 19.431 81.0436 18.3463 81.1756C18.195 81.1939 18.0809 81.3268 18.0916 81.4724C18.1022 81.6177 18.2337 81.7206 18.3851 81.7022ZM24.8938 80.0206C25.9408 79.6085 26.9694 79.1335 27.9582 78.5902C28.0931 78.5159 28.1462 78.3533 28.0769 78.2269C28.0073 78.1004 27.8416 78.0581 27.7067 78.1324C26.7426 78.6621 25.7366 79.1267 24.7109 79.5307C24.5678 79.5871 24.4925 79.7425 24.5431 79.8777C24.5936 80.0133 24.7507 80.077 24.8938 80.0206ZM30.7957 76.7364C31.6891 76.0425 32.5191 75.2721 33.2622 74.4192C33.3624 74.3041 33.3515 74.1372 33.2376 74.0467C33.1236 73.9559 32.9498 73.9759 32.8496 74.091C32.1334 74.913 31.3319 75.6576 30.4657 76.3303C30.3443 76.4245 30.3197 76.5919 30.4108 76.7042C30.5019 76.8165 30.6741 76.8308 30.7957 76.7364ZM35.1596 71.6466C35.6777 70.6541 36.0713 69.6073 36.3139 68.5414C36.3468 68.3969 36.2533 68.2602 36.1049 68.2364C35.9568 68.2127 35.8099 68.3109 35.7771 68.4554C35.5455 69.4732 35.1683 70.4769 34.6713 71.4292C34.6017 71.5629 34.6544 71.72 34.7891 71.78C34.9241 71.8401 35.0899 71.7803 35.1596 71.6466ZM36.5567 65.2898C36.5049 64.688 36.3956 64.0923 36.2243 63.5099C36.0894 63.0529 35.9122 62.6097 35.6972 62.1858C35.6321 62.0571 35.4681 62.0097 35.3309 62.0799C35.1938 62.1501 35.1355 62.3115 35.2007 62.4402C35.4025 62.8385 35.5688 63.2538 35.6946 63.6812C35.8564 64.2304 35.9596 64.7931 36.0087 65.3629C36.0211 65.5081 36.154 65.6093 36.3053 65.5892C36.4567 65.5691 36.5694 65.4348 36.5567 65.2898ZM33.7188 59.6507C32.8969 58.9308 31.9365 58.3638 30.8937 58.0082C30.7533 57.9603 30.5928 58.0338 30.5351 58.1724C30.4777 58.311 30.5449 58.4621 30.6856 58.5098C31.6587 58.8415 32.5626 59.374 33.3372 60.0525C33.4464 60.1484 33.6205 60.136 33.726 60.0251C33.8314 59.914 33.8282 59.7464 33.7188 59.6507ZM27.5473 57.6438C27.5133 57.648 27.479 57.6522 27.4449 57.6567C26.9099 57.7281 26.3499 57.8633 25.8491 58.1382C25.6536 58.2459 25.4674 58.3756 25.2981 58.5308C24.9892 58.8142 24.773 59.1492 24.6423 59.5046C24.5906 59.6449 24.6644 59.793 24.8073 59.835C24.95 59.8772 25.1077 59.7975 25.1594 59.6572C25.2622 59.3788 25.4252 59.1265 25.6654 58.9057C25.7961 58.7857 25.9422 58.6832 26.1011 58.5957C26.5065 58.3718 26.998 58.2472 27.4899 58.1826C27.5213 58.1784 27.5527 58.1746 27.5842 58.1706C27.7356 58.1528 27.8502 58.0203 27.8401 57.8747C27.8301 57.7293 27.6989 57.6259 27.5473 57.6438ZM25.2563 62.7286C25.4228 62.9615 25.6109 63.177 25.8171 63.3675C26.4294 63.9339 27.136 64.3593 27.901 64.6582C28.0388 64.7123 28.2022 64.6453 28.2658 64.5092C28.3295 64.3728 28.2692 64.2187 28.1314 64.1646C27.4216 63.8872 26.7721 63.4956 26.2088 62.9747C26.0293 62.8085 25.8624 62.6181 25.7145 62.4109C25.6307 62.2934 25.4601 62.2693 25.3336 62.3572C25.207 62.4448 25.1725 62.6111 25.2563 62.7286ZM31.1948 65.2242C32.3087 65.2165 33.4477 65.0367 34.5454 64.7196C34.693 64.677 34.7834 64.5289 34.7473 64.3887C34.7114 64.2483 34.5627 64.1692 34.4151 64.2118C33.3647 64.5154 32.277 64.6863 31.2213 64.6935C31.0697 64.6947 30.9409 64.8143 30.9335 64.9609C30.9262 65.1074 31.0432 65.2254 31.1948 65.2242ZM37.6787 63.3755C38.6682 62.8029 39.5834 62.1232 40.4157 61.3595C40.529 61.2557 40.5384 61.0878 40.4371 60.9843C40.3358 60.8806 40.162 60.8809 40.0488 60.9847C39.2466 61.7205 38.3661 62.3742 37.4156 62.9245C37.2822 63.0015 37.2331 63.1651 37.3056 63.2897C37.3783 63.4143 37.5452 63.4529 37.6787 63.3755ZM42.6578 58.8391C43.3139 57.9346 43.8808 56.9689 44.3508 55.9641C44.4145 55.8277 44.3544 55.6735 44.2165 55.6198C44.0788 55.5657 43.9155 55.6323 43.8516 55.7686C43.3965 56.7419 42.8476 57.6766 42.2133 58.5512C42.1238 58.6744 42.1509 58.8387 42.2736 58.9181C42.3964 58.9977 42.5684 58.9624 42.6578 58.8391ZM45.4595 52.8605C45.7282 51.7981 45.8918 50.7176 45.9425 49.6409C45.9493 49.4943 45.8318 49.3769 45.6801 49.3784C45.5284 49.38 45.3999 49.5 45.393 49.6466C45.3442 50.6874 45.186 51.733 44.9259 52.762C44.8894 52.9062 44.9795 53.045 45.1269 53.072C45.274 53.0992 45.4232 53.0045 45.4597 52.8604L45.4595 52.8605ZM45.7429 46.4275C45.5568 45.3759 45.2478 44.3506 44.8077 43.3733C44.7484 43.242 44.587 43.1878 44.4473 43.2522C44.3075 43.317 44.2422 43.476 44.3013 43.6075C44.724 44.5457 45.0214 45.5322 45.2009 46.545C45.2261 46.688 45.3682 46.7776 45.5177 46.745C45.6674 46.7126 45.7684 46.5703 45.7429 46.4275Z"/>
</mask>
<path d="M5.98017 78.5616C6.78858 79.299 7.6895 79.9003 8.65712 80.3774C8.78913 80.4425 8.95677 80.3889 9.03186 80.2575C9.10672 80.1263 9.06038 79.9669 8.92837 79.9019C8.00137 79.4447 7.1414 78.8704 6.36947 78.1662C6.26239 78.0683 6.08815 78.0775 5.98078 78.1868C5.87328 78.2958 5.87309 78.4637 5.98017 78.5616ZM11.754 81.4546C12.8178 81.6928 13.9226 81.8234 15.0456 81.8593C15.1966 81.8641 15.3303 81.7494 15.3438 81.6027C15.3572 81.4564 15.2456 81.3336 15.0942 81.3287C14.0033 81.2939 12.9331 81.1672 11.9064 80.9372C11.7605 80.9043 11.6081 80.9936 11.5661 81.1366C11.5241 81.2795 11.6083 81.4219 11.754 81.4546ZM18.3851 81.7022C19.4967 81.567 20.6046 81.3528 21.6881 81.0712C21.8366 81.0326 21.9311 80.8866 21.8994 80.7452C21.8676 80.6038 21.7215 80.5206 21.573 80.5591C20.514 80.8344 19.431 81.0436 18.3463 81.1756C18.195 81.1939 18.0809 81.3268 18.0916 81.4724C18.1022 81.6177 18.2337 81.7206 18.3851 81.7022ZM24.8938 80.0206C25.9408 79.6085 26.9694 79.1335 27.9582 78.5902C28.0931 78.5159 28.1462 78.3533 28.0769 78.2269C28.0073 78.1004 27.8416 78.0581 27.7067 78.1324C26.7426 78.6621 25.7366 79.1267 24.7109 79.5307C24.5678 79.5871 24.4925 79.7425 24.5431 79.8777C24.5936 80.0133 24.7507 80.077 24.8938 80.0206ZM30.7957 76.7364C31.6891 76.0425 32.5191 75.2721 33.2622 74.4192C33.3624 74.3041 33.3515 74.1372 33.2376 74.0467C33.1236 73.9559 32.9498 73.9759 32.8496 74.091C32.1334 74.913 31.3319 75.6576 30.4657 76.3303C30.3443 76.4245 30.3197 76.5919 30.4108 76.7042C30.5019 76.8165 30.6741 76.8308 30.7957 76.7364ZM35.1596 71.6466C35.6777 70.6541 36.0713 69.6073 36.3139 68.5414C36.3468 68.3969 36.2533 68.2602 36.1049 68.2364C35.9568 68.2127 35.8099 68.3109 35.7771 68.4554C35.5455 69.4732 35.1683 70.4769 34.6713 71.4292C34.6017 71.5629 34.6544 71.72 34.7891 71.78C34.9241 71.8401 35.0899 71.7803 35.1596 71.6466ZM36.5567 65.2898C36.5049 64.688 36.3956 64.0923 36.2243 63.5099C36.0894 63.0529 35.9122 62.6097 35.6972 62.1858C35.6321 62.0571 35.4681 62.0097 35.3309 62.0799C35.1938 62.1501 35.1355 62.3115 35.2007 62.4402C35.4025 62.8385 35.5688 63.2538 35.6946 63.6812C35.8564 64.2304 35.9596 64.7931 36.0087 65.3629C36.0211 65.5081 36.154 65.6093 36.3053 65.5892C36.4567 65.5691 36.5694 65.4348 36.5567 65.2898ZM33.7188 59.6507C32.8969 58.9308 31.9365 58.3638 30.8937 58.0082C30.7533 57.9603 30.5928 58.0338 30.5351 58.1724C30.4777 58.311 30.5449 58.4621 30.6856 58.5098C31.6587 58.8415 32.5626 59.374 33.3372 60.0525C33.4464 60.1484 33.6205 60.136 33.726 60.0251C33.8314 59.914 33.8282 59.7464 33.7188 59.6507ZM27.5473 57.6438C27.5133 57.648 27.479 57.6522 27.4449 57.6567C26.9099 57.7281 26.3499 57.8633 25.8491 58.1382C25.6536 58.2459 25.4674 58.3756 25.2981 58.5308C24.9892 58.8142 24.773 59.1492 24.6423 59.5046C24.5906 59.6449 24.6644 59.793 24.8073 59.835C24.95 59.8772 25.1077 59.7975 25.1594 59.6572C25.2622 59.3788 25.4252 59.1265 25.6654 58.9057C25.7961 58.7857 25.9422 58.6832 26.1011 58.5957C26.5065 58.3718 26.998 58.2472 27.4899 58.1826C27.5213 58.1784 27.5527 58.1746 27.5842 58.1706C27.7356 58.1528 27.8502 58.0203 27.8401 57.8747C27.8301 57.7293 27.6989 57.6259 27.5473 57.6438ZM25.2563 62.7286C25.4228 62.9615 25.6109 63.177 25.8171 63.3675C26.4294 63.9339 27.136 64.3593 27.901 64.6582C28.0388 64.7123 28.2022 64.6453 28.2658 64.5092C28.3295 64.3728 28.2692 64.2187 28.1314 64.1646C27.4216 63.8872 26.7721 63.4956 26.2088 62.9747C26.0293 62.8085 25.8624 62.6181 25.7145 62.4109C25.6307 62.2934 25.4601 62.2693 25.3336 62.3572C25.207 62.4448 25.1725 62.6111 25.2563 62.7286ZM31.1948 65.2242C32.3087 65.2165 33.4477 65.0367 34.5454 64.7196C34.693 64.677 34.7834 64.5289 34.7473 64.3887C34.7114 64.2483 34.5627 64.1692 34.4151 64.2118C33.3647 64.5154 32.277 64.6863 31.2213 64.6935C31.0697 64.6947 30.9409 64.8143 30.9335 64.9609C30.9262 65.1074 31.0432 65.2254 31.1948 65.2242ZM37.6787 63.3755C38.6682 62.8029 39.5834 62.1232 40.4157 61.3595C40.529 61.2557 40.5384 61.0878 40.4371 60.9843C40.3358 60.8806 40.162 60.8809 40.0488 60.9847C39.2466 61.7205 38.3661 62.3742 37.4156 62.9245C37.2822 63.0015 37.2331 63.1651 37.3056 63.2897C37.3783 63.4143 37.5452 63.4529 37.6787 63.3755ZM42.6578 58.8391C43.3139 57.9346 43.8808 56.9689 44.3508 55.9641C44.4145 55.8277 44.3544 55.6735 44.2165 55.6198C44.0788 55.5657 43.9155 55.6323 43.8516 55.7686C43.3965 56.7419 42.8476 57.6766 42.2133 58.5512C42.1238 58.6744 42.1509 58.8387 42.2736 58.9181C42.3964 58.9977 42.5684 58.9624 42.6578 58.8391ZM45.4595 52.8605C45.7282 51.7981 45.8918 50.7176 45.9425 49.6409C45.9493 49.4943 45.8318 49.3769 45.6801 49.3784C45.5284 49.38 45.3999 49.5 45.393 49.6466C45.3442 50.6874 45.186 51.733 44.9259 52.762C44.8894 52.9062 44.9795 53.045 45.1269 53.072C45.274 53.0992 45.4232 53.0045 45.4597 52.8604L45.4595 52.8605ZM45.7429 46.4275C45.5568 45.3759 45.2478 44.3506 44.8077 43.3733C44.7484 43.242 44.587 43.1878 44.4473 43.2522C44.3075 43.317 44.2422 43.476 44.3013 43.6075C44.724 44.5457 45.0214 45.5322 45.2009 46.545C45.2261 46.688 45.3682 46.7776 45.5177 46.745C45.6674 46.7126 45.7684 46.5703 45.7429 46.4275Z" fill="#374A63" stroke="#374A63" stroke-width="10" mask="url(#path-2-inside-1_160_11067)"/>
</svg>
