<svg width="20" height="20" viewBox="0 0 20 20" fill="none" xmlns="http://www.w3.org/2000/svg">
<mask id="path-1-outside-1_6738_25195" maskUnits="userSpaceOnUse" x="-0.216797" y="-0.75" width="20" height="21" fill="black">
<rect fill="white" x="-0.216797" y="-0.75" width="20" height="21"/>
<path d="M19.0893 12.1608H17.9849C18.0257 11.8165 18.0461 11.4704 18.047 11.1236C18.047 8.83376 17.1372 6.63778 15.5184 5.01881C13.8987 3.39996 11.7034 2.49024 9.41277 2.49024C9.18151 2.49024 8.94939 2.49959 8.71898 2.5183H8.71983C8.33213 1.48696 7.48103 0.698783 6.42415 0.390162C5.36645 0.0815181 4.22534 0.288984 3.34468 0.949616C2.46298 1.61111 1.94434 2.64755 1.94434 3.74939C1.94434 4.25955 2.26913 4.92441 2.73336 5.65308C1.18167 7.55082 0.509951 10.0191 0.884938 12.4415C1.2599 14.8638 2.64577 17.0124 4.69836 18.3523C6.75095 19.6922 9.27599 20.097 11.6448 19.4661V19.6056C11.6448 19.6676 11.6695 19.7271 11.7137 19.7714C11.7579 19.8147 11.8174 19.8394 11.8795 19.8394H19.0895C19.1516 19.8394 19.2111 19.8147 19.2553 19.7714C19.2995 19.7271 19.3242 19.6676 19.3242 19.6056V12.3955C19.3242 12.3335 19.2995 12.2731 19.2553 12.2297C19.2111 12.1855 19.1514 12.1608 19.0893 12.1608ZM12.846 12.1608C12.8587 11.8947 12.8655 11.6269 12.8681 11.3582L17.575 11.3574C17.5673 11.626 17.5469 11.8947 17.5129 12.16L12.846 12.1608ZM14.6221 12.6285H16.3464V15.2167L15.6501 14.5203H15.6492C15.6058 14.4761 15.5463 14.4515 15.4843 14.4515C15.4222 14.4515 15.3627 14.4761 15.3185 14.5203L14.6221 15.2167L14.6221 12.6285ZM11.8791 12.1608C11.8171 12.1608 11.7576 12.1855 11.7133 12.2289C11.6691 12.2731 11.6445 12.3326 11.6445 12.3955V14.096V14.0951C10.0027 13.659 8.26812 13.7142 6.65699 14.2533C6.51075 13.2951 6.43338 12.3275 6.42572 11.3582H12.3994C12.3969 11.6268 12.3884 11.8955 12.3756 12.1608L11.8791 12.1608ZM9.41261 19.2892C8.66609 19.2892 7.91534 18.4475 7.35249 16.9792C7.07956 16.248 6.87381 15.493 6.73777 14.7245C8.32006 14.1744 10.0325 14.1242 11.6445 14.5808V16.4947C11.0723 18.2453 10.2391 19.2892 9.41261 19.2892ZM3.21187 16.4298C1.99519 15.0142 1.30309 13.2237 1.25123 11.3581H5.95728C5.96578 12.3835 6.04995 13.4063 6.20981 14.4189C6.10098 14.4622 5.99045 14.5081 5.88332 14.5574V14.5566C4.88173 15.0047 3.97445 15.6408 3.21187 16.4298ZM5.24054 9.21719C5.28305 9.28946 5.36042 9.33452 5.44375 9.33452C5.52707 9.33452 5.60444 9.28946 5.64611 9.21719C5.78554 8.97572 5.98196 8.68919 6.20726 8.378C7.44351 8.49703 8.10074 8.86859 8.10074 9.09985C8.10074 9.40168 7.04134 9.85742 5.44375 9.85742C3.84616 9.85742 2.78676 9.40168 2.78676 9.09985C2.78676 8.86774 3.44568 8.49619 4.6862 8.378C4.90725 8.68834 5.10024 8.97317 5.24054 9.21719ZM8.94339 3.74845C8.94339 3.52994 8.92299 3.31143 8.88218 3.09717C9.04542 3.00789 9.22737 2.96028 9.41273 2.95773C10.1584 2.95773 10.91 3.79947 11.4728 5.26777C11.7458 5.99898 11.9515 6.75313 12.0876 7.52165C11.228 7.82093 10.3233 7.97397 9.41273 7.97482C8.53187 7.97567 7.65613 7.83368 6.82038 7.55395C7.81855 6.22757 8.94343 4.72784 8.94343 3.74923L8.94339 3.74845ZM8.56928 9.09987C8.56928 8.76063 8.29211 8.49961 7.88314 8.30746C8.38818 8.39758 8.90004 8.44349 9.41271 8.44264C10.3497 8.44434 11.2807 8.293 12.1683 7.99372C12.3145 8.95193 12.3919 9.91952 12.3996 10.8888H6.42586C6.42841 10.6814 6.43351 10.4731 6.44116 10.2673C7.60515 10.1262 8.5693 9.7308 8.5693 9.10076L8.56928 9.09987ZM15.6134 5.81711C16.8301 7.23275 17.5222 9.02326 17.5749 10.8888H12.868C12.8604 9.86345 12.7762 8.84059 12.6164 7.82808C12.7277 7.78387 12.8391 7.7371 12.9488 7.68779C13.9478 7.23971 14.8525 6.60443 15.6134 5.81711ZM15.298 5.4685C14.5158 6.28133 13.5746 6.92241 12.5322 7.35349C12.3919 6.58573 12.1836 5.83156 11.9098 5.10026C11.6513 4.3359 11.2279 3.63784 10.671 3.05459C12.4361 3.33091 14.0626 4.17947 15.2981 5.46933L15.298 5.4685ZM5.44384 0.718262C7.11711 0.719962 8.47325 2.0761 8.47499 3.74941C8.47499 4.5767 7.34332 6.08165 6.43271 7.29141C6.37405 7.36964 6.31623 7.44701 6.25842 7.52437L6.25587 7.52778C5.95149 7.93334 5.66666 8.31934 5.44473 8.65689C5.17011 8.23433 4.8045 7.74289 4.4219 7.22764C3.52659 6.022 2.41193 4.52124 2.41193 3.75007L2.41278 3.74922C2.41448 2.07595 3.77052 0.720003 5.44384 0.718262ZM4.04604 7.50668C4.15657 7.65547 4.2654 7.80172 4.36998 7.94455C3.35055 8.08229 2.31835 8.44534 2.31835 9.10087C2.31835 9.90605 3.89045 10.3269 5.44375 10.3269C5.61975 10.3269 5.7966 10.3218 5.9709 10.3108C5.9641 10.5029 5.95985 10.6968 5.9573 10.8898H1.25125C1.30141 9.13489 1.91614 7.44203 3.00444 6.0638C3.32584 6.53484 3.68807 7.02375 4.04604 7.50668ZM3.5274 16.7795V16.7786C4.30963 15.9666 5.25169 15.3247 6.29322 14.8945C6.43436 15.6623 6.64267 16.4156 6.9156 17.1469C7.17492 17.9112 7.59749 18.6093 8.15439 19.1934C6.38929 18.9171 4.76367 18.0685 3.52735 16.7778L3.5274 16.7795ZM10.6728 19.1925C10.7816 19.0887 10.8836 18.9782 10.9772 18.8609C11.2416 18.5242 11.4652 18.1586 11.6446 17.77V18.9808C11.3249 19.0709 11.001 19.1415 10.6728 19.1925ZM18.8555 19.371H12.113V12.6285H14.1536V15.782C14.1536 15.8764 14.2106 15.9623 14.2982 15.998C14.3857 16.0345 14.4861 16.0141 14.5532 15.947L15.4834 15.016L16.4144 15.947C16.4816 16.0141 16.5819 16.0345 16.6695 15.998C16.757 15.9614 16.814 15.8764 16.814 15.782V12.6285H18.8546L18.8555 19.371ZM15.009 17.367C15.009 17.4291 14.9844 17.4886 14.9402 17.5328C14.8968 17.5762 14.8364 17.6008 14.7744 17.6008H13.1377C13.0748 17.6025 13.0127 17.5787 12.9676 17.5345C12.9217 17.4912 12.8962 17.4299 12.8962 17.367C12.8962 17.3032 12.9217 17.2429 12.9676 17.1987C13.0127 17.1545 13.0748 17.1306 13.1377 17.1323H14.7744C14.8364 17.1323 14.8968 17.157 14.9402 17.2012C14.9844 17.2446 15.009 17.3041 15.009 17.367ZM15.009 18.4188C15.009 18.4808 14.9844 18.5412 14.9402 18.5846C14.8968 18.6288 14.8364 18.6534 14.7744 18.6534H13.1377C13.0084 18.6534 12.9039 18.548 12.9039 18.4188C12.9039 18.2895 13.0084 18.1849 13.1377 18.1849H14.7744C14.8364 18.1849 14.8968 18.2096 14.9402 18.253C14.9844 18.2972 15.009 18.3567 15.009 18.4188ZM7.38415 3.48761C7.38415 2.70283 6.91142 1.99544 6.18702 1.69445C5.46177 1.39432 4.62682 1.56012 4.07248 2.11532C3.51727 2.67053 3.35148 3.50461 3.65161 4.22986C3.95175 4.95511 4.65915 5.42784 5.44392 5.42784C6.51523 5.42614 7.38331 4.55892 7.38415 3.48761ZM3.9721 3.48761C3.9721 2.89159 4.33089 2.3551 4.88101 2.12723C5.43112 1.89936 6.06369 2.0252 6.48456 2.44693C6.90628 2.8678 7.03211 3.50037 6.80426 4.05048C6.57639 4.60058 6.0399 4.95939 5.44388 4.95939C4.63189 4.95854 3.97295 4.30045 3.9721 3.48761Z"/>
</mask>
<path d="M19.0893 12.1608H17.9849C18.0257 11.8165 18.0461 11.4704 18.047 11.1236C18.047 8.83376 17.1372 6.63778 15.5184 5.01881C13.8987 3.39996 11.7034 2.49024 9.41277 2.49024C9.18151 2.49024 8.94939 2.49959 8.71898 2.5183H8.71983C8.33213 1.48696 7.48103 0.698783 6.42415 0.390162C5.36645 0.0815181 4.22534 0.288984 3.34468 0.949616C2.46298 1.61111 1.94434 2.64755 1.94434 3.74939C1.94434 4.25955 2.26913 4.92441 2.73336 5.65308C1.18167 7.55082 0.509951 10.0191 0.884938 12.4415C1.2599 14.8638 2.64577 17.0124 4.69836 18.3523C6.75095 19.6922 9.27599 20.097 11.6448 19.4661V19.6056C11.6448 19.6676 11.6695 19.7271 11.7137 19.7714C11.7579 19.8147 11.8174 19.8394 11.8795 19.8394H19.0895C19.1516 19.8394 19.2111 19.8147 19.2553 19.7714C19.2995 19.7271 19.3242 19.6676 19.3242 19.6056V12.3955C19.3242 12.3335 19.2995 12.2731 19.2553 12.2297C19.2111 12.1855 19.1514 12.1608 19.0893 12.1608ZM12.846 12.1608C12.8587 11.8947 12.8655 11.6269 12.8681 11.3582L17.575 11.3574C17.5673 11.626 17.5469 11.8947 17.5129 12.16L12.846 12.1608ZM14.6221 12.6285H16.3464V15.2167L15.6501 14.5203H15.6492C15.6058 14.4761 15.5463 14.4515 15.4843 14.4515C15.4222 14.4515 15.3627 14.4761 15.3185 14.5203L14.6221 15.2167L14.6221 12.6285ZM11.8791 12.1608C11.8171 12.1608 11.7576 12.1855 11.7133 12.2289C11.6691 12.2731 11.6445 12.3326 11.6445 12.3955V14.096V14.0951C10.0027 13.659 8.26812 13.7142 6.65699 14.2533C6.51075 13.2951 6.43338 12.3275 6.42572 11.3582H12.3994C12.3969 11.6268 12.3884 11.8955 12.3756 12.1608L11.8791 12.1608ZM9.41261 19.2892C8.66609 19.2892 7.91534 18.4475 7.35249 16.9792C7.07956 16.248 6.87381 15.493 6.73777 14.7245C8.32006 14.1744 10.0325 14.1242 11.6445 14.5808V16.4947C11.0723 18.2453 10.2391 19.2892 9.41261 19.2892ZM3.21187 16.4298C1.99519 15.0142 1.30309 13.2237 1.25123 11.3581H5.95728C5.96578 12.3835 6.04995 13.4063 6.20981 14.4189C6.10098 14.4622 5.99045 14.5081 5.88332 14.5574V14.5566C4.88173 15.0047 3.97445 15.6408 3.21187 16.4298ZM5.24054 9.21719C5.28305 9.28946 5.36042 9.33452 5.44375 9.33452C5.52707 9.33452 5.60444 9.28946 5.64611 9.21719C5.78554 8.97572 5.98196 8.68919 6.20726 8.378C7.44351 8.49703 8.10074 8.86859 8.10074 9.09985C8.10074 9.40168 7.04134 9.85742 5.44375 9.85742C3.84616 9.85742 2.78676 9.40168 2.78676 9.09985C2.78676 8.86774 3.44568 8.49619 4.6862 8.378C4.90725 8.68834 5.10024 8.97317 5.24054 9.21719ZM8.94339 3.74845C8.94339 3.52994 8.92299 3.31143 8.88218 3.09717C9.04542 3.00789 9.22737 2.96028 9.41273 2.95773C10.1584 2.95773 10.91 3.79947 11.4728 5.26777C11.7458 5.99898 11.9515 6.75313 12.0876 7.52165C11.228 7.82093 10.3233 7.97397 9.41273 7.97482C8.53187 7.97567 7.65613 7.83368 6.82038 7.55395C7.81855 6.22757 8.94343 4.72784 8.94343 3.74923L8.94339 3.74845ZM8.56928 9.09987C8.56928 8.76063 8.29211 8.49961 7.88314 8.30746C8.38818 8.39758 8.90004 8.44349 9.41271 8.44264C10.3497 8.44434 11.2807 8.293 12.1683 7.99372C12.3145 8.95193 12.3919 9.91952 12.3996 10.8888H6.42586C6.42841 10.6814 6.43351 10.4731 6.44116 10.2673C7.60515 10.1262 8.5693 9.7308 8.5693 9.10076L8.56928 9.09987ZM15.6134 5.81711C16.8301 7.23275 17.5222 9.02326 17.5749 10.8888H12.868C12.8604 9.86345 12.7762 8.84059 12.6164 7.82808C12.7277 7.78387 12.8391 7.7371 12.9488 7.68779C13.9478 7.23971 14.8525 6.60443 15.6134 5.81711ZM15.298 5.4685C14.5158 6.28133 13.5746 6.92241 12.5322 7.35349C12.3919 6.58573 12.1836 5.83156 11.9098 5.10026C11.6513 4.3359 11.2279 3.63784 10.671 3.05459C12.4361 3.33091 14.0626 4.17947 15.2981 5.46933L15.298 5.4685ZM5.44384 0.718262C7.11711 0.719962 8.47325 2.0761 8.47499 3.74941C8.47499 4.5767 7.34332 6.08165 6.43271 7.29141C6.37405 7.36964 6.31623 7.44701 6.25842 7.52437L6.25587 7.52778C5.95149 7.93334 5.66666 8.31934 5.44473 8.65689C5.17011 8.23433 4.8045 7.74289 4.4219 7.22764C3.52659 6.022 2.41193 4.52124 2.41193 3.75007L2.41278 3.74922C2.41448 2.07595 3.77052 0.720003 5.44384 0.718262ZM4.04604 7.50668C4.15657 7.65547 4.2654 7.80172 4.36998 7.94455C3.35055 8.08229 2.31835 8.44534 2.31835 9.10087C2.31835 9.90605 3.89045 10.3269 5.44375 10.3269C5.61975 10.3269 5.7966 10.3218 5.9709 10.3108C5.9641 10.5029 5.95985 10.6968 5.9573 10.8898H1.25125C1.30141 9.13489 1.91614 7.44203 3.00444 6.0638C3.32584 6.53484 3.68807 7.02375 4.04604 7.50668ZM3.5274 16.7795V16.7786C4.30963 15.9666 5.25169 15.3247 6.29322 14.8945C6.43436 15.6623 6.64267 16.4156 6.9156 17.1469C7.17492 17.9112 7.59749 18.6093 8.15439 19.1934C6.38929 18.9171 4.76367 18.0685 3.52735 16.7778L3.5274 16.7795ZM10.6728 19.1925C10.7816 19.0887 10.8836 18.9782 10.9772 18.8609C11.2416 18.5242 11.4652 18.1586 11.6446 17.77V18.9808C11.3249 19.0709 11.001 19.1415 10.6728 19.1925ZM18.8555 19.371H12.113V12.6285H14.1536V15.782C14.1536 15.8764 14.2106 15.9623 14.2982 15.998C14.3857 16.0345 14.4861 16.0141 14.5532 15.947L15.4834 15.016L16.4144 15.947C16.4816 16.0141 16.5819 16.0345 16.6695 15.998C16.757 15.9614 16.814 15.8764 16.814 15.782V12.6285H18.8546L18.8555 19.371ZM15.009 17.367C15.009 17.4291 14.9844 17.4886 14.9402 17.5328C14.8968 17.5762 14.8364 17.6008 14.7744 17.6008H13.1377C13.0748 17.6025 13.0127 17.5787 12.9676 17.5345C12.9217 17.4912 12.8962 17.4299 12.8962 17.367C12.8962 17.3032 12.9217 17.2429 12.9676 17.1987C13.0127 17.1545 13.0748 17.1306 13.1377 17.1323H14.7744C14.8364 17.1323 14.8968 17.157 14.9402 17.2012C14.9844 17.2446 15.009 17.3041 15.009 17.367ZM15.009 18.4188C15.009 18.4808 14.9844 18.5412 14.9402 18.5846C14.8968 18.6288 14.8364 18.6534 14.7744 18.6534H13.1377C13.0084 18.6534 12.9039 18.548 12.9039 18.4188C12.9039 18.2895 13.0084 18.1849 13.1377 18.1849H14.7744C14.8364 18.1849 14.8968 18.2096 14.9402 18.253C14.9844 18.2972 15.009 18.3567 15.009 18.4188ZM7.38415 3.48761C7.38415 2.70283 6.91142 1.99544 6.18702 1.69445C5.46177 1.39432 4.62682 1.56012 4.07248 2.11532C3.51727 2.67053 3.35148 3.50461 3.65161 4.22986C3.95175 4.95511 4.65915 5.42784 5.44392 5.42784C6.51523 5.42614 7.38331 4.55892 7.38415 3.48761ZM3.9721 3.48761C3.9721 2.89159 4.33089 2.3551 4.88101 2.12723C5.43112 1.89936 6.06369 2.0252 6.48456 2.44693C6.90628 2.8678 7.03211 3.50037 6.80426 4.05048C6.57639 4.60058 6.0399 4.95939 5.44388 4.95939C4.63189 4.95854 3.97295 4.30045 3.9721 3.48761Z" fill="#333333"/>
<path d="M14.9745 17.3308L14.9737 17.3317L15.0444 17.4024L15.0452 17.4015L14.9745 17.3308ZM15.0099 18.3688H15.009V18.4688H15.0099V18.3688ZM7.34965 3.45141L7.3488 3.45226L7.41951 3.52297L7.42036 3.52212L7.34965 3.45141ZM3.93759 3.45141L3.93674 3.45226L4.00745 3.52297L4.0083 3.52212L3.93759 3.45141ZM17.9849 12.1608L17.8856 12.1491L17.8723 12.2608H17.9849V12.1608ZM18.047 11.1236L18.147 11.1238V11.1236H18.047ZM15.5184 5.01881L15.5891 4.9481L15.5891 4.94808L15.5184 5.01881ZM8.71898 2.5183L8.71089 2.41863L8.71898 2.6183V2.5183ZM8.71983 2.5183V2.6183H8.86425L8.81343 2.48311L8.71983 2.5183ZM6.42415 0.390162L6.45218 0.294171L6.45217 0.294165L6.42415 0.390162ZM3.34468 0.949616L3.28468 0.869622L3.28467 0.869626L3.34468 0.949616ZM2.73336 5.65308L2.81078 5.71638L2.85657 5.66037L2.8177 5.59935L2.73336 5.65308ZM0.884938 12.4415L0.983761 12.4262L0.98376 12.4262L0.884938 12.4415ZM11.6448 19.4661H11.7448V19.336L11.6191 19.3695L11.6448 19.4661ZM11.7137 19.7714L11.643 19.8421L11.6436 19.8427L11.7137 19.7714ZM19.2553 19.7714L19.3253 19.8428L19.326 19.8421L19.2553 19.7714ZM19.2553 12.2297L19.1846 12.3004L19.1853 12.3011L19.2553 12.2297ZM12.846 12.1608L12.7461 12.1561L12.741 12.2609L12.846 12.2608L12.846 12.1608ZM12.8681 11.3582L12.868 11.2582L12.769 11.2582L12.7681 11.3573L12.8681 11.3582ZM17.575 11.3574L17.6749 11.3602L17.6779 11.2573L17.575 11.2574L17.575 11.3574ZM17.5129 12.16L17.5129 12.26L17.6009 12.26L17.6121 12.1727L17.5129 12.16ZM14.6221 12.6285V12.5285H14.5221V12.6285H14.6221ZM16.3464 12.6285H16.4464V12.5285H16.3464V12.6285ZM16.3464 15.2167L16.2757 15.2874L16.4464 15.4581V15.2167H16.3464ZM15.6501 14.5203L15.7208 14.4496L15.6915 14.4203H15.6501V14.5203ZM15.6492 14.5203L15.5778 14.5904L15.6072 14.6203H15.6492V14.5203ZM14.6221 15.2167H14.5221L14.5221 15.4581L14.6928 15.2874L14.6221 15.2167ZM11.8791 12.1608V12.2608H11.8792L11.8791 12.1608ZM11.7133 12.2289L11.6433 12.1575L11.6426 12.1581L11.7133 12.2289ZM11.6445 14.0951H11.7445V14.0182L11.6702 13.9985L11.6445 14.0951ZM6.65699 14.2533L6.55813 14.2684L6.57606 14.3858L6.68872 14.3481L6.65699 14.2533ZM6.42572 11.3582V11.2582H6.32493L6.32573 11.359L6.42572 11.3582ZM12.3994 11.3582L12.4994 11.3591L12.5004 11.2582H12.3994V11.3582ZM12.3756 12.1608L12.3756 12.2608L12.4709 12.2608L12.4755 12.1656L12.3756 12.1608ZM7.35249 16.9792L7.2588 17.0142L7.25911 17.015L7.35249 16.9792ZM6.73777 14.7245L6.70493 14.63L6.62445 14.658L6.6393 14.7419L6.73777 14.7245ZM11.6445 14.5808H11.7445V14.5052L11.6718 14.4845L11.6445 14.5808ZM11.6445 16.4947L11.7396 16.5257L11.7445 16.5106V16.4947H11.6445ZM3.21187 16.4298L3.13603 16.495L3.20754 16.5782L3.28378 16.4993L3.21187 16.4298ZM1.25123 11.3581V11.2581H1.14841L1.15126 11.3609L1.25123 11.3581ZM5.95728 11.3581L6.05727 11.3573L6.05645 11.2581H5.95728V11.3581ZM6.20981 14.4189L6.24682 14.5118L6.32104 14.4822L6.30859 14.4033L6.20981 14.4189ZM5.88332 14.5574H5.78332V14.7136L5.92513 14.6483L5.88332 14.5574ZM5.88332 14.5566H5.98332V14.4023L5.84248 14.4653L5.88332 14.5566ZM5.24054 9.21719L5.15385 9.26704L5.15435 9.26789L5.24054 9.21719ZM5.64611 9.21719L5.55951 9.16719L5.55947 9.16725L5.64611 9.21719ZM6.20726 8.378L6.21684 8.27846L6.15984 8.27297L6.12626 8.31936L6.20726 8.378ZM4.6862 8.378L4.76765 8.31998L4.73416 8.27298L4.67671 8.27845L4.6862 8.378ZM8.94339 3.74845H8.84331L8.84348 3.75261L8.94339 3.74845ZM8.88218 3.09717L8.8342 3.00943L8.77032 3.04436L8.78394 3.11588L8.88218 3.09717ZM9.41273 2.95773V2.85772L9.41135 2.85774L9.41273 2.95773ZM11.4728 5.26777L11.5665 5.2328L11.5662 5.23197L11.4728 5.26777ZM12.0876 7.52165L12.1204 7.61609L12.2009 7.58809L12.186 7.50422L12.0876 7.52165ZM9.41273 7.97482L9.41263 7.87482H9.41263L9.41273 7.97482ZM6.82038 7.55395L6.74048 7.49382L6.65702 7.60473L6.78864 7.64878L6.82038 7.55395ZM8.94343 3.74923H9.04351L9.04334 3.74508L8.94343 3.74923ZM8.56928 9.09987H8.46924L8.46931 9.10258L8.56928 9.09987ZM7.88314 8.30746L7.90071 8.20901L7.84062 8.39796L7.88314 8.30746ZM9.41271 8.44264L9.4129 8.34264L9.41255 8.34264L9.41271 8.44264ZM12.1683 7.99372L12.2672 7.97863L12.2492 7.86091L12.1364 7.89896L12.1683 7.99372ZM12.3996 10.8888V10.9888H12.5004L12.4996 10.888L12.3996 10.8888ZM6.42586 10.8888L6.32587 10.8876L6.32462 10.9888H6.42586V10.8888ZM6.44116 10.2673L6.42913 10.168L6.3444 10.1783L6.34123 10.2636L6.44116 10.2673ZM8.5693 9.10076H8.66934L8.66927 9.09806L8.5693 9.10076ZM15.6134 5.81711L15.6893 5.75193L15.6178 5.66873L15.5415 5.74761L15.6134 5.81711ZM17.5749 10.8888V10.9888H17.6778L17.6749 10.886L17.5749 10.8888ZM12.868 10.8888L12.768 10.8896L12.7688 10.9888H12.868V10.8888ZM12.6164 7.82808L12.5795 7.73513L12.5051 7.76465L12.5176 7.84367L12.6164 7.82808ZM12.9488 7.68779L12.9079 7.59655L12.9078 7.59658L12.9488 7.68779ZM15.298 5.4685L15.3979 5.46329L15.3859 5.23301L15.226 5.39916L15.298 5.4685ZM12.5322 7.35349L12.4338 7.37146L12.4561 7.49319L12.5704 7.4459L12.5322 7.35349ZM11.9098 5.10026L11.815 5.13231L11.8162 5.13532L11.9098 5.10026ZM10.671 3.05459L10.6865 2.9558L10.3948 2.91014L10.5987 3.12365L10.671 3.05459ZM15.2981 5.46933L15.2258 5.5385L15.4119 5.7328L15.3979 5.46411L15.2981 5.46933ZM5.44384 0.718262L5.44394 0.618262L5.44373 0.618262L5.44384 0.718262ZM8.47499 3.74941H8.57499L8.57499 3.74931L8.47499 3.74941ZM6.43271 7.29141L6.35282 7.23127L6.35271 7.23141L6.43271 7.29141ZM6.25842 7.52437L6.33842 7.58438L6.33852 7.58423L6.25842 7.52437ZM6.25587 7.52778L6.33585 7.5878L6.33587 7.58778L6.25587 7.52778ZM5.44473 8.65689L5.36088 8.71139L5.44424 8.83966L5.52829 8.71183L5.44473 8.65689ZM4.4219 7.22764L4.50218 7.16803L4.50218 7.16802L4.4219 7.22764ZM2.41193 3.75007L2.34121 3.67937L2.31193 3.70866V3.75007H2.41193ZM2.41278 3.74922L2.48349 3.81992L2.51273 3.79068L2.51278 3.74932L2.41278 3.74922ZM4.04604 7.50668L3.9657 7.56623L3.96576 7.56631L4.04604 7.50668ZM4.36998 7.94455L4.38337 8.04365L4.55001 8.02113L4.45067 7.88547L4.36998 7.94455ZM5.9709 10.3108L6.07084 10.3143L6.07475 10.204L5.96457 10.211L5.9709 10.3108ZM5.9573 10.8898V10.9898H6.05599L6.05729 10.8911L5.9573 10.8898ZM1.25125 10.8898L1.15129 10.8869L1.14835 10.9898H1.25125V10.8898ZM3.00444 6.0638L3.08705 6.00744L3.01032 5.89499L2.92596 6.00183L3.00444 6.0638ZM3.5274 16.7795L3.42743 16.782L3.6274 16.7795H3.5274ZM3.5274 16.7786L3.45538 16.7093L3.4274 16.7383V16.7786H3.5274ZM6.29322 14.8945L6.39157 14.8764L6.36923 14.7549L6.25504 14.8021L6.29322 14.8945ZM6.9156 17.1469L7.01034 17.1147L7.00928 17.1119L6.9156 17.1469ZM8.15439 19.1934L8.13893 19.2922L8.43024 19.3378L8.22677 19.1244L8.15439 19.1934ZM3.52735 16.7778L3.59957 16.7086L3.42075 16.5219L3.42738 16.7803L3.52735 16.7778ZM10.6728 19.1925L10.6038 19.1201L10.3727 19.3403L10.6881 19.2913L10.6728 19.1925ZM10.9772 18.8609L11.0554 18.9232L11.0558 18.9226L10.9772 18.8609ZM11.6446 17.77H11.7446L11.5538 17.7281L11.6446 17.77ZM11.6446 18.9808L11.6717 19.077L11.7446 19.0565V18.9808H11.6446ZM18.8555 19.371V19.471H18.9555L18.9555 19.371L18.8555 19.371ZM12.113 19.371H12.013V19.471H12.113V19.371ZM12.113 12.6285V12.5285H12.013V12.6285H12.113ZM14.1536 12.6285H14.2536V12.5285H14.1536V12.6285ZM14.2982 15.998L14.3367 15.9057L14.3359 15.9054L14.2982 15.998ZM14.5532 15.947L14.6239 16.0177L14.624 16.0176L14.5532 15.947ZM15.4834 15.016L15.5541 14.9452L15.4834 14.8745L15.4126 14.9453L15.4834 15.016ZM16.4144 15.947L16.4851 15.8762L16.4144 15.947ZM16.6695 15.998L16.708 16.0902L16.708 16.0902L16.6695 15.998ZM16.814 12.6285V12.5285H16.714V12.6285H16.814ZM18.8546 12.6285L18.9546 12.6285L18.9546 12.5285H18.8546V12.6285ZM14.9402 17.5328L14.8695 17.4621L14.9402 17.5328ZM13.1377 17.6008V17.5008L13.135 17.5009L13.1377 17.6008ZM12.9676 17.5345L13.0377 17.4631L13.0363 17.4618L12.9676 17.5345ZM12.9676 17.1987L13.037 17.2707L13.0377 17.2701L12.9676 17.1987ZM13.1377 17.1323L13.135 17.2323H13.1377V17.1323ZM14.9402 17.2012L14.8688 17.2713L14.8702 17.2726L14.9402 17.2012ZM14.9402 18.5846L14.8701 18.5131L14.8688 18.5145L14.9402 18.5846ZM14.9402 18.253L14.8695 18.3237L14.9402 18.253ZM7.38415 3.48761L7.48416 3.48769V3.48761H7.38415ZM6.18702 1.69445L6.22539 1.60211L6.22526 1.60205L6.18702 1.69445ZM4.07248 2.11532L4.14319 2.18603L4.14325 2.18598L4.07248 2.11532ZM5.44392 5.42784V5.52784H5.44408L5.44392 5.42784ZM3.9721 3.48761H3.8721L3.8721 3.48772L3.9721 3.48761ZM6.48456 2.44693L6.41378 2.51757L6.41392 2.51771L6.48456 2.44693ZM6.80426 4.05048L6.89665 4.08875L6.89665 4.08875L6.80426 4.05048ZM5.44388 4.95939L5.44377 5.05939H5.44388V4.95939ZM19.0893 12.0608H17.9849V12.2608H19.0893V12.0608ZM18.0842 12.1726C18.1255 11.8244 18.1461 11.4745 18.147 11.1238L17.947 11.1233C17.9461 11.4664 17.9259 11.8086 17.8856 12.1491L18.0842 12.1726ZM18.147 11.1236C18.147 8.80724 17.2267 6.58582 15.5891 4.9481L15.4477 5.08952C17.0477 6.68973 17.947 8.86028 17.947 11.1236H18.147ZM15.5891 4.94808C13.9506 3.3105 11.73 2.39024 9.41277 2.39024V2.59024C11.6769 2.59024 13.8467 3.48942 15.4477 5.08954L15.5891 4.94808ZM9.41277 2.39024C9.17882 2.39024 8.94401 2.3997 8.71089 2.41863L8.72707 2.61797C8.95478 2.59949 9.18419 2.59024 9.41277 2.59024V2.39024ZM8.71898 2.6183H8.71983V2.4183H8.71898V2.6183ZM8.81343 2.48311C8.41465 1.42228 7.53923 0.611602 6.45218 0.294171L6.39612 0.486153C7.42283 0.785964 8.24961 1.55164 8.62622 2.55349L8.81343 2.48311ZM6.45217 0.294165C5.36425 -0.0232939 4.19053 0.190089 3.28468 0.869622L3.40469 1.02961C4.26015 0.387879 5.36865 0.18633 6.39614 0.486158L6.45217 0.294165ZM3.28467 0.869626C2.37783 1.54998 1.84434 2.61604 1.84434 3.74939H2.04434C2.04434 2.67906 2.54814 1.67224 3.4047 1.02961L3.28467 0.869626ZM1.84434 3.74939C1.84434 4.02404 1.93132 4.3323 2.07302 4.65908C2.21518 4.98692 2.4155 5.34026 2.64902 5.70681L2.8177 5.59935C2.587 5.23723 2.3928 4.89381 2.25651 4.57951C2.11976 4.26415 2.04434 3.9849 2.04434 3.74939H1.84434ZM2.65594 5.58978C1.08628 7.50951 0.406788 10.0064 0.786115 12.4568L0.98376 12.4262C0.613114 10.0319 1.27707 7.59214 2.81078 5.71638L2.65594 5.58978ZM0.786115 12.4568C1.16542 14.9072 2.56734 17.0806 4.6437 18.436L4.75303 18.2686C2.72421 16.9442 1.35439 14.8205 0.983761 12.4262L0.786115 12.4568ZM4.6437 18.436C6.72005 19.7915 9.27432 20.2009 11.6705 19.5627L11.6191 19.3695C9.27767 19.9931 6.78185 19.593 4.75303 18.2686L4.6437 18.436ZM11.5448 19.4661V19.6056H11.7448V19.4661H11.5448ZM11.5448 19.6056C11.5448 19.6943 11.5801 19.7792 11.643 19.8421L11.7844 19.7006C11.7588 19.6751 11.7448 19.641 11.7448 19.6056H11.5448ZM11.6436 19.8427C11.7063 19.9042 11.7909 19.9394 11.8795 19.9394V19.7394C11.8439 19.7394 11.8095 19.7252 11.7837 19.7L11.6436 19.8427ZM11.8795 19.9394H19.0895V19.7394H11.8795V19.9394ZM19.0895 19.9394C19.1781 19.9394 19.2627 19.9042 19.3253 19.8427L19.1853 19.7C19.1595 19.7252 19.125 19.7394 19.0895 19.7394V19.9394ZM19.326 19.8421C19.3889 19.7792 19.4242 19.6943 19.4242 19.6056H19.2242C19.2242 19.641 19.2101 19.6751 19.1846 19.7006L19.326 19.8421ZM19.4242 19.6056V12.3955H19.2242V19.6056H19.4242ZM19.4242 12.3955C19.4242 12.3074 19.3893 12.2211 19.3253 12.1583L19.1853 12.3011C19.2098 12.3251 19.2242 12.3595 19.2242 12.3955H19.4242ZM19.326 12.159C19.2631 12.0961 19.178 12.0608 19.0893 12.0608V12.2608C19.1248 12.2608 19.1591 12.2749 19.1846 12.3004L19.326 12.159ZM12.9458 12.1656C12.9587 11.898 12.9655 11.6289 12.9681 11.3592L12.7681 11.3573C12.7655 11.6249 12.7587 11.8914 12.7461 12.1561L12.9458 12.1656ZM12.8681 11.4582L17.575 11.4574L17.575 11.2574L12.868 11.2582L12.8681 11.4582ZM17.475 11.3545C17.4675 11.6201 17.4473 11.8854 17.4137 12.1473L17.6121 12.1727C17.6465 11.904 17.6672 11.632 17.6749 11.3602L17.475 11.3545ZM17.5129 12.06L12.8459 12.0608L12.846 12.2608L17.5129 12.26L17.5129 12.06ZM14.6221 12.7285H16.3464V12.5285H14.6221V12.7285ZM16.2464 12.6285V15.2167H16.4464V12.6285H16.2464ZM16.4171 15.146L15.7208 14.4496L15.5793 14.591L16.2757 15.2874L16.4171 15.146ZM15.6501 14.4203H15.6492V14.6203H15.6501V14.4203ZM15.7206 14.4503C15.6582 14.3866 15.5728 14.3515 15.4843 14.3515V14.5515C15.5199 14.5515 15.5535 14.5656 15.5778 14.5904L15.7206 14.4503ZM15.4843 14.3515C15.3956 14.3515 15.3106 14.3867 15.2478 14.4496L15.3892 14.591C15.4147 14.5655 15.4488 14.5515 15.4843 14.5515V14.3515ZM15.2478 14.4496L14.5514 15.146L14.6928 15.2874L15.3892 14.591L15.2478 14.4496ZM14.7221 15.2167L14.7221 12.6285L14.5221 12.6285L14.5221 15.2167L14.7221 15.2167ZM11.8791 12.0608C11.7905 12.0608 11.706 12.096 11.6433 12.1575L11.7834 12.3003C11.8091 12.275 11.8436 12.2608 11.8791 12.2608V12.0608ZM11.6426 12.1581C11.5796 12.2212 11.5445 12.3062 11.5445 12.3955H11.7445C11.7445 12.359 11.7587 12.325 11.7841 12.2996L11.6426 12.1581ZM11.5445 12.3955V14.096H11.7445V12.3955H11.5445ZM11.7445 14.096V14.0951H11.5445V14.096H11.7445ZM11.6702 13.9985C10.0094 13.5573 8.25491 13.6132 6.62526 14.1584L6.68872 14.3481C8.28132 13.8153 9.9959 13.7606 11.6188 14.1918L11.6702 13.9985ZM6.75584 14.2382C6.61032 13.2847 6.53334 12.3219 6.52572 11.3574L6.32573 11.359C6.33343 12.3331 6.41117 13.3054 6.55813 14.2684L6.75584 14.2382ZM6.42572 11.4582H12.3994V11.2582H6.42572V11.4582ZM12.2994 11.3572C12.2969 11.6244 12.2884 11.8918 12.2757 12.156L12.4755 12.1656C12.4883 11.8992 12.4969 11.6293 12.4994 11.3591L12.2994 11.3572ZM12.3756 12.0608L11.8791 12.0608L11.8792 12.2608L12.3756 12.2608L12.3756 12.0608ZM9.41261 19.1892C9.07896 19.1892 8.72961 19.001 8.3883 18.6183C8.04771 18.2364 7.7247 17.6708 7.44586 16.9434L7.25911 17.015C7.54312 17.7559 7.87691 18.3454 8.23904 18.7514C8.60046 19.1566 8.99974 19.3892 9.41261 19.3892V19.1892ZM7.44617 16.9442C7.17537 16.2187 6.97122 15.4696 6.83624 14.707L6.6393 14.7419C6.77639 15.5164 6.98375 16.2773 7.2588 17.0142L7.44617 16.9442ZM6.77061 14.8189C8.33352 14.2755 10.025 14.226 11.6173 14.677L11.6718 14.4845C10.04 14.0224 8.30659 14.0732 6.70493 14.63L6.77061 14.8189ZM11.5445 14.5808V16.4947H11.7445V14.5808H11.5445ZM11.5495 16.4636C11.2656 17.3321 10.9189 18.0187 10.5458 18.486C10.171 18.9553 9.78177 19.1892 9.41261 19.1892V19.3892C9.8699 19.3892 10.3105 19.1012 10.702 18.6108C11.0951 18.1186 11.4512 17.4079 11.7396 16.5257L11.5495 16.4636ZM3.28771 16.3646C2.086 14.9664 1.40242 13.1979 1.35119 11.3553L1.15126 11.3609C1.20377 13.2494 1.90439 15.0619 3.13603 16.495L3.28771 16.3646ZM1.25123 11.4581H5.95728V11.2581H1.25123V11.4581ZM5.85728 11.3589C5.86582 12.3892 5.9504 13.417 6.11103 14.4345L6.30859 14.4033C6.14951 13.3957 6.06574 12.3777 6.05727 11.3573L5.85728 11.3589ZM6.17279 14.326C6.06314 14.3696 5.95084 14.4163 5.8415 14.4666L5.92513 14.6483C6.03006 14.6 6.13881 14.5548 6.24682 14.5118L6.17279 14.326ZM5.98332 14.5574V14.5566H5.78332V14.5574H5.98332ZM5.84248 14.4653C4.82924 14.9186 3.91142 15.5621 3.13997 16.3603L3.28378 16.4993C4.03748 15.7195 4.93421 15.0907 5.92415 14.6479L5.84248 14.4653ZM5.15435 9.26789C5.21442 9.37002 5.3242 9.43452 5.44375 9.43452V9.23452C5.39665 9.23452 5.35168 9.2089 5.32674 9.16649L5.15435 9.26789ZM5.44375 9.43452C5.56314 9.43452 5.67338 9.3701 5.73274 9.26714L5.55947 9.16725C5.5355 9.20882 5.491 9.23452 5.44375 9.23452V9.43452ZM5.7327 9.2672C5.86947 9.03035 6.0634 8.74722 6.28826 8.43664L6.12626 8.31936C5.90051 8.63116 5.70162 8.92108 5.55951 9.16719L5.7327 9.2672ZM6.19767 8.47754C6.80842 8.53635 7.27119 8.65715 7.57819 8.78875C7.73211 8.85473 7.84308 8.92181 7.91373 8.98223C7.9887 9.04635 8.00074 9.08742 8.00074 9.09985H8.20074C8.20074 8.99665 8.13061 8.90455 8.04372 8.83024C7.95251 8.75223 7.82191 8.67562 7.65699 8.60493C7.32632 8.46318 6.84234 8.33869 6.21684 8.27846L6.19767 8.47754ZM8.00074 9.09985C8.00074 9.10786 7.99704 9.12689 7.97309 9.15775C7.94942 9.18826 7.91062 9.22407 7.85371 9.26307C7.74003 9.34097 7.56735 9.42263 7.3403 9.49676C6.8873 9.64465 6.23374 9.75742 5.44375 9.75742V9.95742C6.25134 9.95742 6.92628 9.84232 7.40237 9.68688C7.63987 9.60935 7.83189 9.52048 7.96677 9.42804C8.03415 9.38187 8.0906 9.33255 8.1311 9.28037C8.17132 9.22853 8.20074 9.1673 8.20074 9.09985H8.00074ZM5.44375 9.75742C4.65375 9.75742 4.00019 9.64465 3.54719 9.49676C3.32014 9.42263 3.14746 9.34097 3.03378 9.26307C2.97688 9.22407 2.93808 9.18826 2.9144 9.15775C2.89045 9.12689 2.88676 9.10786 2.88676 9.09985H2.68676C2.68676 9.1673 2.71617 9.22853 2.7564 9.28037C2.79689 9.33255 2.85334 9.38187 2.92072 9.42804C3.0556 9.52048 3.24762 9.60935 3.48512 9.68688C3.96122 9.84232 4.63615 9.95742 5.44375 9.95742V9.75742ZM2.88676 9.09985C2.88676 9.08721 2.89889 9.04599 2.97404 8.9818C3.04489 8.92128 3.15619 8.85414 3.31058 8.78816C3.61853 8.65655 4.08278 8.53594 4.69568 8.47755L4.67671 8.27845C4.0491 8.33825 3.56363 8.46251 3.23198 8.60425C3.06658 8.67494 2.93561 8.7516 2.84415 8.82972C2.75698 8.90417 2.68676 8.99643 2.68676 9.09985H2.88676ZM4.60475 8.43602C4.82541 8.7458 5.01607 9.0274 5.15385 9.26704L5.32723 9.16735C5.18441 8.91894 4.9891 8.63088 4.76765 8.31998L4.60475 8.43602ZM9.04339 3.74845C9.04339 3.52374 9.02241 3.29896 8.98041 3.07846L8.78394 3.11588C8.82357 3.32391 8.84339 3.53615 8.84339 3.74845H9.04339ZM8.93016 3.18491C9.07906 3.10348 9.24499 3.06005 9.4141 3.05772L9.41135 2.85774C9.20974 2.86051 9.01179 2.91231 8.8342 3.00943L8.93016 3.18491ZM9.41273 3.05773C9.74593 3.05773 10.0953 3.24598 10.4367 3.62871C10.7774 4.01061 11.1006 4.57618 11.3795 5.30356L11.5662 5.23197C11.2822 4.49105 10.9482 3.90161 10.586 3.49557C10.2245 3.09035 9.82518 2.85773 9.41273 2.85773V3.05773ZM11.3792 5.30274C11.65 6.02827 11.8541 6.77655 11.9891 7.53908L12.186 7.50422C12.0489 6.72971 11.8416 5.96969 11.5665 5.2328L11.3792 5.30274ZM12.0547 7.42721C11.2057 7.72281 10.3121 7.87398 9.41263 7.87482L9.41282 8.07482C10.3345 8.07396 11.2503 7.91905 12.1204 7.61609L12.0547 7.42721ZM9.41263 7.87482C8.54258 7.87566 7.6776 7.73541 6.85212 7.45912L6.78864 7.64878C7.63467 7.93195 8.52116 8.07568 9.41282 8.07482L9.41263 7.87482ZM6.90028 7.61408C7.39871 6.95176 7.93255 6.24129 8.3415 5.57339C8.74762 4.91013 9.04343 4.26921 9.04343 3.74923H8.84343C8.84343 4.20786 8.5768 4.80611 8.17094 5.46896C7.76791 6.12717 7.24022 6.82975 6.74048 7.49382L6.90028 7.61408ZM9.04334 3.74508L9.04331 3.7443L8.84348 3.75261L8.84351 3.75339L9.04334 3.74508ZM8.66928 9.09987C8.66928 8.69817 8.34139 8.41227 7.92567 8.21695L7.84062 8.39796C8.24282 8.58694 8.46928 8.82308 8.46928 9.09987H8.66928ZM7.86558 8.4059C8.37633 8.49705 8.89412 8.5435 9.41288 8.54264L9.41255 8.34264C8.90595 8.34348 8.40003 8.29811 7.90071 8.20901L7.86558 8.4059ZM9.41253 8.54264C10.3604 8.54436 11.3022 8.39126 12.2003 8.08847L12.1364 7.89896C11.2591 8.19474 10.339 8.34432 9.4129 8.34264L9.41253 8.54264ZM12.0695 8.0088C12.215 8.96229 12.292 9.9251 12.2996 10.8896L12.4996 10.888C12.4919 9.91393 12.4141 8.94156 12.2672 7.97863L12.0695 8.0088ZM12.3996 10.7888H6.42586V10.9888H12.3996V10.7888ZM6.52585 10.8901C6.52839 10.6834 6.53347 10.4759 6.54109 10.271L6.34123 10.2636C6.33355 10.4702 6.32843 10.6793 6.32587 10.8876L6.52585 10.8901ZM6.4532 10.3666C7.04117 10.2953 7.5859 10.1591 7.98681 9.95663C8.38317 9.75643 8.6693 9.47434 8.6693 9.10076H8.4693C8.4693 9.35723 8.27335 9.58783 7.89664 9.77811C7.52448 9.96608 7.00514 10.0982 6.42913 10.168L6.4532 10.3666ZM8.66927 9.09806L8.66924 9.09717L8.46931 9.10258L8.46934 9.10347L8.66927 9.09806ZM15.5376 5.88229C16.7393 7.28052 17.4229 9.049 17.475 10.8917L17.6749 10.886C17.6215 8.99751 16.9209 7.18499 15.6893 5.75193L15.5376 5.88229ZM17.5749 10.7888H12.868V10.9888H17.5749V10.7888ZM12.968 10.8881C12.9603 9.85773 12.8757 8.82991 12.7151 7.81249L12.5176 7.84367C12.6766 8.85128 12.7604 9.86917 12.768 10.8896L12.968 10.8881ZM12.6533 7.92102C12.7659 7.87633 12.8786 7.82899 12.9898 7.77899L12.9078 7.59658C12.7996 7.64522 12.6896 7.6914 12.5795 7.73513L12.6533 7.92102ZM12.9897 7.77903C14.0004 7.32574 14.9156 6.68307 15.6854 5.8866L15.5415 5.74761C14.7895 6.52579 13.8953 7.15368 12.9079 7.59655L12.9897 7.77903ZM15.226 5.39916C14.4533 6.20203 13.5236 6.83526 12.494 7.26108L12.5704 7.4459C13.6255 7.00956 14.5782 6.36064 15.3701 5.53784L15.226 5.39916ZM12.6306 7.33551C12.4892 6.56193 12.2793 5.80204 12.0035 5.0652L11.8162 5.13532C12.0879 5.86108 12.2946 6.60953 12.4338 7.37146L12.6306 7.33551ZM12.0045 5.06823C11.7414 4.28997 11.3103 3.57929 10.7433 2.98553L10.5987 3.12365C11.1456 3.69639 11.5613 4.38183 11.8151 5.13229L12.0045 5.06823ZM10.6555 3.15339C12.399 3.42632 14.0056 4.26448 15.2258 5.5385L15.3703 5.40016C14.1197 4.09445 12.4732 3.2355 10.6865 2.9558L10.6555 3.15339ZM15.3979 5.46411L15.3979 5.46329L15.1981 5.47371L15.1982 5.47454L15.3979 5.46411ZM5.44374 0.818262C7.06186 0.819906 8.3733 2.13135 8.37499 3.74952L8.57499 3.74931C8.57319 2.02085 7.17236 0.620018 5.44394 0.618262L5.44374 0.818262ZM8.37499 3.74941C8.37499 3.93597 8.31049 4.17026 8.19225 4.44182C8.07471 4.71175 7.90766 5.01052 7.71068 5.32375C7.31659 5.9504 6.8087 6.62562 6.35282 7.23127L6.51261 7.35155C6.96733 6.74744 7.48059 6.0653 7.87998 5.43022C8.07974 5.11258 8.25252 4.80438 8.37562 4.52166C8.49802 4.24056 8.57499 3.9765 8.57499 3.74941H8.37499ZM6.35271 7.23141C6.29399 7.30972 6.23612 7.38716 6.17831 7.46452L6.33852 7.58423C6.39634 7.50685 6.45411 7.42955 6.51272 7.35141L6.35271 7.23141ZM6.17842 7.46438L6.17587 7.46778L6.33587 7.58778L6.33842 7.58437L6.17842 7.46438ZM6.17589 7.46775C5.87158 7.87322 5.58501 8.2615 5.36117 8.60196L5.52829 8.71183C5.7483 8.37719 6.0314 7.99347 6.33585 7.5878L6.17589 7.46775ZM5.52858 8.6024C5.25188 8.17664 4.88413 7.68239 4.50218 7.16803L4.34161 7.28726C4.72487 7.80339 5.08834 8.29202 5.36088 8.71139L5.52858 8.6024ZM4.50218 7.16802C4.05396 6.56444 3.55397 5.89111 3.16587 5.27277C2.97186 4.96367 2.80731 4.67063 2.69154 4.4088C2.57489 4.14499 2.51193 3.92191 2.51193 3.75007H2.31193C2.31193 3.96382 2.38829 4.21752 2.50862 4.48967C2.62983 4.7638 2.7999 5.0659 2.99647 5.37909C3.38953 6.00533 3.89453 6.6852 4.34161 7.28726L4.50218 7.16802ZM2.48264 3.82077L2.48349 3.81992L2.34206 3.67852L2.34121 3.67937L2.48264 3.82077ZM2.51278 3.74932C2.51442 2.13121 3.82577 0.819946 5.44394 0.818262L5.44373 0.618262C3.71528 0.620061 2.31453 2.02069 2.31278 3.74912L2.51278 3.74932ZM3.96576 7.56631C4.07639 7.71523 4.18497 7.86114 4.2893 8.00363L4.45067 7.88547C4.34583 7.7423 4.23675 7.59572 4.12631 7.44705L3.96576 7.56631ZM4.35659 7.84545C3.84167 7.91502 3.31682 8.04218 2.91768 8.23884C2.52407 8.43277 2.21835 8.71277 2.21835 9.10087H2.41835C2.41835 8.83344 2.62874 8.60416 3.00608 8.41824C3.37789 8.23505 3.87886 8.11181 4.38337 8.04365L4.35659 7.84545ZM2.21835 9.10087C2.21835 9.33856 2.33547 9.5411 2.5218 9.70684C2.70687 9.87146 2.96528 10.005 3.26548 10.1102C3.8665 10.3209 4.65982 10.4269 5.44375 10.4269V10.2269C4.67438 10.2269 3.905 10.1225 3.33165 9.92147C3.04467 9.82085 2.81297 9.69816 2.65473 9.55741C2.49775 9.41778 2.41835 9.26578 2.41835 9.10087H2.21835ZM5.44375 10.4269C5.62166 10.4269 5.80063 10.4218 5.97723 10.4106L5.96457 10.211C5.79257 10.2219 5.61784 10.2269 5.44375 10.2269V10.4269ZM5.87097 10.3072C5.86413 10.5003 5.85987 10.6949 5.85731 10.8885L6.05729 10.8911C6.05983 10.6987 6.06407 10.5056 6.07084 10.3143L5.87097 10.3072ZM5.9573 10.7898H1.25125V10.9898H5.9573V10.7898ZM1.35121 10.8926C1.40076 9.15924 2.00796 7.48711 3.08292 6.12577L2.92596 6.00183C1.82432 7.39695 1.20207 9.11054 1.15129 10.8869L1.35121 10.8926ZM2.92184 6.12016C3.24454 6.5931 3.60797 7.08362 3.9657 7.56623L4.12637 7.44713C3.76818 6.96389 3.40715 6.47658 3.08705 6.00744L2.92184 6.12016ZM3.6274 16.7795V16.7786H3.4274V16.7795H3.6274ZM3.59941 16.848C4.37209 16.0459 5.30263 15.4119 6.33139 14.9869L6.25504 14.8021C5.20074 15.2376 4.24716 15.8873 3.45538 16.7093L3.59941 16.848ZM6.19486 14.9126C6.33707 15.6861 6.54694 16.4451 6.82191 17.1818L7.00928 17.1119C6.7384 16.3861 6.53165 15.6384 6.39157 14.8764L6.19486 14.9126ZM6.8209 17.179C7.08489 17.9571 7.51508 18.6678 8.08202 19.2624L8.22677 19.1244C7.67989 18.5508 7.26495 17.8653 7.0103 17.1147L6.8209 17.179ZM8.16986 19.0946C6.42641 18.8217 4.82073 17.9835 3.59957 16.7086L3.45514 16.847C4.70661 18.1535 6.35217 19.0125 8.13893 19.2922L8.16986 19.0946ZM3.42738 16.7803L3.42743 16.782L3.62736 16.7769L3.62732 16.7752L3.42738 16.7803ZM10.7418 19.2649C10.8537 19.1582 10.9588 19.0443 11.0554 18.9232L10.899 18.7986C10.8085 18.9121 10.7095 19.0193 10.6038 19.1201L10.7418 19.2649ZM11.0558 18.9226C11.325 18.5798 11.5527 18.2076 11.7354 17.812L11.5538 17.7281C11.3777 18.1096 11.1581 18.4686 10.8985 18.7991L11.0558 18.9226ZM11.5446 17.77V18.9808H11.7446V17.77H11.5446ZM11.6175 18.8845C11.3016 18.9736 10.9816 19.0433 10.6574 19.0937L10.6881 19.2913C11.0203 19.2397 11.3482 19.1682 11.6717 19.077L11.6175 18.8845ZM18.8555 19.271H12.113V19.471H18.8555V19.271ZM12.213 19.371V12.6285H12.013V19.371H12.213ZM12.113 12.7285H14.1536V12.5285H12.113V12.7285ZM14.0536 12.6285V15.782H14.2536V12.6285H14.0536ZM14.0536 15.782C14.0536 15.9165 14.1347 16.0393 14.2604 16.0906L14.3359 15.9054C14.2864 15.8852 14.2536 15.8362 14.2536 15.782H14.0536ZM14.2596 16.0902C14.3851 16.1426 14.5285 16.1131 14.6239 16.0177L14.4825 15.8762C14.4436 15.9151 14.3863 15.9264 14.3367 15.9057L14.2596 16.0902ZM14.624 16.0176L15.5541 15.0866L15.4126 14.9453L14.4825 15.8763L14.624 16.0176ZM15.4127 15.0867L16.3437 16.0177L16.4851 15.8762L15.5541 14.9452L15.4127 15.0867ZM16.3437 16.0177C16.4391 16.1131 16.5825 16.1426 16.708 16.0902L16.6309 15.9057C16.5813 15.9264 16.524 15.9151 16.4851 15.8762L16.3437 16.0177ZM16.708 16.0902C16.8325 16.0383 16.914 15.9171 16.914 15.782H16.714C16.714 15.8357 16.6816 15.8845 16.6309 15.9057L16.708 16.0902ZM16.914 15.782V12.6285H16.714V15.782H16.914ZM16.814 12.7285H18.8546V12.5285H16.814V12.7285ZM18.7546 12.6285L18.7555 19.371L18.9555 19.371L18.9546 12.6285L18.7546 12.6285ZM14.909 17.367C14.909 17.4025 14.895 17.4366 14.8695 17.4621L15.0109 17.6035C15.0738 17.5406 15.109 17.4557 15.109 17.367H14.909ZM14.8695 17.4621C14.8452 17.4863 14.8105 17.5008 14.7744 17.5008V17.7008C14.8624 17.7008 14.9484 17.666 15.0109 17.6035L14.8695 17.4621ZM14.7744 17.5008H13.1377V17.7008H14.7744V17.5008ZM13.135 17.5009C13.0986 17.5019 13.0629 17.4879 13.0377 17.4631L12.8976 17.6059C12.9624 17.6695 13.0509 17.7032 13.1404 17.7008L13.135 17.5009ZM13.0363 17.4618C13.011 17.4379 12.9962 17.4033 12.9962 17.367H12.7962C12.7962 17.4566 12.8324 17.5444 12.899 17.6072L13.0363 17.4618ZM12.9962 17.367C12.9962 17.3302 13.0108 17.2959 13.037 17.2707L12.8983 17.1266C12.8326 17.1898 12.7962 17.2763 12.7962 17.367H12.9962ZM13.0377 17.2701C13.0629 17.2452 13.0986 17.2313 13.135 17.2323L13.1404 17.0324C13.0509 17.03 12.9624 17.0637 12.8976 17.1273L13.0377 17.2701ZM13.1377 17.2323H14.7744V17.0323H13.1377V17.2323ZM14.7744 17.2323C14.8104 17.2323 14.8448 17.2468 14.8688 17.2712L15.0116 17.1312C14.9489 17.0673 14.8625 17.0323 14.7744 17.0323V17.2323ZM14.8702 17.2726C14.8948 17.2968 14.909 17.3304 14.909 17.367H15.109C15.109 17.2778 15.074 17.1924 15.0102 17.1298L14.8702 17.2726ZM14.909 18.4188C14.909 18.4548 14.8946 18.4891 14.8702 18.5132L15.0102 18.6559C15.0741 18.5932 15.109 18.5069 15.109 18.4188H14.909ZM14.8688 18.5145C14.8448 18.539 14.8104 18.5534 14.7744 18.5534V18.7534C14.8625 18.7534 14.9489 18.7185 15.0116 18.6546L14.8688 18.5145ZM14.7744 18.5534H13.1377V18.7534H14.7744V18.5534ZM13.1377 18.5534C13.0641 18.5534 13.0039 18.4932 13.0039 18.4188H12.8039C12.8039 18.6027 12.9527 18.7534 13.1377 18.7534V18.5534ZM13.0039 18.4188C13.0039 18.3448 13.0637 18.285 13.1377 18.285V18.0849C12.9532 18.0849 12.8039 18.2343 12.8039 18.4188H13.0039ZM13.1377 18.285H14.7744V18.0849H13.1377V18.285ZM14.7744 18.285C14.8105 18.285 14.8452 18.2995 14.8695 18.3237L15.0109 18.1823C14.9484 18.1198 14.8624 18.0849 14.7744 18.0849V18.285ZM14.8695 18.3237C14.895 18.3492 14.909 18.3833 14.909 18.4188H15.109C15.109 18.33 15.0738 18.2451 15.0109 18.1823L14.8695 18.3237ZM7.48416 3.48761C7.48416 2.66238 6.98706 1.91858 6.22539 1.60211L6.14865 1.7868C6.83578 2.0723 7.28415 2.74329 7.28415 3.48761H7.48416ZM6.22526 1.60205C5.46271 1.28648 4.58471 1.46076 4.00172 2.04467L4.14325 2.18598C4.66894 1.65947 5.46084 1.50216 6.14878 1.78685L6.22526 1.60205ZM4.00177 2.04461C3.41796 2.62843 3.24363 3.50551 3.55921 4.2681L3.74401 4.19162C3.45934 3.50372 3.61659 2.71264 4.14319 2.18603L4.00177 2.04461ZM3.55921 4.2681C3.87482 5.03073 4.61869 5.52784 5.44392 5.52784V5.32784C4.6996 5.32784 4.02867 4.87948 3.74401 4.19162L3.55921 4.2681ZM5.44408 5.52784C6.57042 5.52606 7.48326 4.61424 7.48415 3.48769L7.28415 3.48753C7.28335 4.5036 6.46004 5.32623 5.44376 5.32784L5.44408 5.52784ZM4.0721 3.48761C4.0721 2.93205 4.40651 2.43201 4.91928 2.21962L4.84274 2.03484C4.25527 2.27818 3.8721 2.85113 3.8721 3.48761H4.0721ZM4.91928 2.21962C5.43202 2.00723 6.02153 2.12452 6.41378 2.51757L6.55534 2.37629C6.10586 1.92589 5.43023 1.79149 4.84274 2.03484L4.91928 2.21962ZM6.41392 2.51771C6.80696 2.90996 6.92424 3.49947 6.71187 4.01222L6.89665 4.08875C7.13998 3.50126 7.0056 2.82564 6.5552 2.37615L6.41392 2.51771ZM6.71187 4.01221C6.49948 4.52496 5.99944 4.85939 5.44388 4.85939V5.05939C6.08036 5.05939 6.65331 4.6762 6.89665 4.08875L6.71187 4.01221ZM5.44398 4.85939C4.68711 4.8586 4.07289 4.24516 4.0721 3.48751L3.8721 3.48772C3.873 4.35574 4.57668 5.05849 5.44377 5.05939L5.44398 4.85939Z" fill="#333333" mask="url(#path-1-outside-1_6738_25195)"/>
</svg>