<svg viewBox="0 0 423 812" fill="none" xmlns="http://www.w3.org/2000/svg">
<path d="M169.356 50.9322C166.74 50.9322 164.62 48.9139 164.62 46.4247C164.62 43.9354 166.74 41.9171 169.356 41.9171C171.971 41.9171 174.091 43.9354 174.091 46.4247C174.091 48.9139 171.971 50.9322 169.356 50.9322ZM175.853 46.3149C175.853 42.8988 172.944 40.1295 169.356 40.1295C165.768 40.1295 162.858 42.8988 162.858 46.3149C162.858 46.3149 162.565 48.4613 165.134 51.9521C166.291 53.5233 169.356 58.1884 169.356 58.1884C169.356 58.1884 172.422 53.5233 173.578 51.9521C176.147 48.4613 175.853 46.3149 175.853 46.3149Z" fill="#F2663A" fill-opacity="0.5"/>
<path d="M222.843 108.731C217.699 108.731 213.531 104.763 213.531 99.868C213.531 94.9722 217.699 91.004 222.843 91.004C227.985 91.004 232.154 94.9722 232.154 99.868C232.154 104.763 227.985 108.731 222.843 108.731ZM235.619 99.6516C235.619 92.934 229.898 87.4901 222.843 87.4901C215.787 87.4901 210.066 92.934 210.066 99.6516C210.066 99.6516 209.489 103.872 214.54 110.737C216.814 113.826 222.843 123 222.843 123C222.843 123 228.872 113.826 231.146 110.737C236.197 103.872 235.619 99.6516 235.619 99.6516Z" fill="#F2663A" fill-opacity="0.5"/>
<path d="M86.3097 49.9159C83.6737 49.9159 81.5376 47.8817 81.5376 45.3733C81.5376 42.8642 83.6737 40.8308 86.3097 40.8308C88.9447 40.8308 91.0817 42.8642 91.0817 45.3733C91.0817 47.8817 88.9447 49.9159 86.3097 49.9159ZM92.8568 45.2628C92.8568 41.8196 89.9251 39.0297 86.3097 39.0297C82.6942 39.0297 79.7616 41.8196 79.7616 45.2628C79.7616 45.2628 79.4666 47.425 82.0549 50.9429C83.2208 52.5261 86.3097 57.2277 86.3097 57.2277C86.3097 57.2277 89.3994 52.5261 90.5652 50.9429C93.1535 47.425 92.8568 45.2628 92.8568 45.2628Z" fill="#F2663A" fill-opacity="0.5"/>
<path d="M327.826 96.3544C325.582 96.3544 323.762 94.6233 323.762 92.4865C323.762 90.3496 325.582 88.6177 327.826 88.6177C330.07 88.6177 331.89 90.3496 331.89 92.4865C331.89 94.6233 330.07 96.3544 327.826 96.3544ZM333.403 92.3918C333.403 89.4602 330.905 87.0847 327.826 87.0847C324.748 87.0847 322.25 89.4602 322.25 92.3918C322.25 92.3918 321.999 94.2343 324.203 97.2295C325.196 98.578 327.826 102.582 327.826 102.582C327.826 102.582 330.457 98.578 331.45 97.2295C333.654 94.2343 333.403 92.3918 333.403 92.3918Z" fill="#F2663A" fill-opacity="0.5"/>
<path d="M342.515 42.6293C339.165 42.6293 336.449 40.0437 336.449 36.8552C336.449 33.6659 339.165 31.0803 342.515 31.0803C345.865 31.0803 348.581 33.6659 348.581 36.8552C348.581 40.0437 345.865 42.6293 342.515 42.6293ZM350.839 36.7144C350.839 32.3373 347.112 28.7908 342.515 28.7908C337.919 28.7908 334.192 32.3373 334.192 36.7144C334.192 36.7144 333.816 39.4638 337.107 43.9356C338.588 45.9483 342.515 51.9244 342.515 51.9244C342.515 51.9244 346.443 45.9483 347.925 43.9356C351.215 39.4638 350.839 36.7144 350.839 36.7144Z" fill="#F2663A" fill-opacity="0.5"/>
<path d="M284.991 14.2417C284.272 13.91 283.545 13.5822 282.804 13.2592C282.602 13.1717 282.359 13.2553 282.266 13.4502C282.172 13.6443 282.263 13.8742 282.466 13.9633C283.2 14.2831 283.923 14.6085 284.635 14.9378C284.692 14.9649 284.753 14.9768 284.813 14.9768C284.963 14.9768 285.108 14.8973 285.178 14.7596C285.276 14.5671 285.193 14.3356 284.991 14.2417ZM293.453 18.6936C292.779 18.2895 292.09 17.8901 291.385 17.4963C291.193 17.3889 290.943 17.4486 290.83 17.6339C290.715 17.8177 290.78 18.0548 290.974 18.1638C291.67 18.5528 292.352 18.9482 293.018 19.3483C293.086 19.3889 293.161 19.4072 293.236 19.4072C293.37 19.4072 293.502 19.3436 293.579 19.2266C293.699 19.046 293.642 18.8074 293.453 18.6936ZM289.284 16.3579C288.585 15.9911 287.874 15.6292 287.151 15.2736C286.951 15.1741 286.705 15.2497 286.603 15.439C286.499 15.6292 286.577 15.8623 286.776 15.9609C287.494 16.3141 288.198 16.6721 288.891 17.0357C288.953 17.0683 289.02 17.0834 289.087 17.0834C289.23 17.0834 289.369 17.011 289.443 16.8837C289.552 16.696 289.48 16.4605 289.284 16.3579ZM292.103 70.0309C291.441 70.4294 290.759 70.8264 290.062 71.2226C289.869 71.3324 289.805 71.5695 289.92 71.7532C289.996 71.8749 290.132 71.9418 290.27 71.9418C290.341 71.9418 290.413 71.9243 290.478 71.8877C291.182 71.4875 291.869 71.0874 292.538 70.6864C292.727 70.5718 292.784 70.3332 292.664 70.1526C292.545 69.9712 292.295 69.9171 292.103 70.0309ZM283.76 74.5209C283.058 74.8614 282.343 75.2003 281.613 75.5392C281.41 75.6331 281.327 75.8646 281.425 76.0571C281.496 76.1939 281.641 76.2735 281.79 76.2735C281.851 76.2735 281.911 76.2616 281.968 76.2345C282.703 75.894 283.424 75.5527 284.129 75.2099C284.329 75.1136 284.409 74.8805 284.307 74.6896C284.205 74.4994 283.957 74.4247 283.76 74.5209ZM287.986 72.365C287.301 72.7325 286.602 73.0985 285.885 73.4644C285.687 73.5655 285.613 73.7994 285.719 73.9879C285.793 74.1184 285.933 74.1924 286.077 74.1924C286.142 74.1924 286.208 74.1772 286.269 74.1462C286.99 73.7787 287.696 73.4095 288.386 73.0396C288.581 72.9346 288.65 72.6983 288.541 72.5122C288.43 72.3268 288.184 72.2624 287.986 72.365ZM257.669 5.21549C256.889 5.03968 256.106 4.86863 255.317 4.70157C255.096 4.65463 254.879 4.78749 254.832 4.99513C254.783 5.20356 254.921 5.4104 255.14 5.45734C255.926 5.62281 256.706 5.79306 257.482 5.96808C257.514 5.97524 257.545 5.97842 257.576 5.97842C257.76 5.97842 257.927 5.85909 257.971 5.68088C258.023 5.47245 257.887 5.26402 257.669 5.21549ZM262.348 6.34198C261.575 6.14389 260.797 5.94978 260.013 5.76124C259.792 5.71112 259.573 5.83443 259.519 6.04206C259.464 6.2489 259.596 6.45972 259.814 6.51223C260.593 6.69918 261.368 6.8925 262.136 7.08979C262.172 7.09854 262.207 7.10252 262.242 7.10252C262.422 7.10252 262.586 6.98956 262.635 6.81613C262.694 6.61008 262.565 6.39767 262.348 6.34198ZM266.989 7.60849C266.223 7.38653 265.452 7.17014 264.674 6.95773C264.456 6.89807 264.233 7.0174 264.17 7.22344C264.109 7.42869 264.234 7.6427 264.45 7.70157C265.223 7.91239 265.992 8.12877 266.752 8.34914C266.791 8.36028 266.831 8.36585 266.871 8.36585C267.045 8.36585 267.206 8.25845 267.26 8.09138C267.325 7.88693 267.203 7.67054 266.989 7.60849ZM276.122 10.5902C275.377 10.3173 274.622 10.0492 273.86 9.78589C273.648 9.71111 273.415 9.81612 273.339 10.0174C273.262 10.2179 273.371 10.4406 273.583 10.513C274.34 10.7748 275.089 11.0413 275.831 11.3125C275.878 11.33 275.928 11.338 275.976 11.338C276.14 11.338 276.294 11.2441 276.356 11.0906C276.437 10.8909 276.332 10.6674 276.122 10.5902ZM271.584 9.02058C270.826 8.77476 270.063 8.53291 269.292 8.29584C269.079 8.2306 268.85 8.34198 268.78 8.54564C268.712 8.7493 268.829 8.96648 269.043 9.03251C269.809 9.26799 270.569 9.50825 271.321 9.75327C271.364 9.7676 271.41 9.77396 271.452 9.77396C271.621 9.77396 271.78 9.67293 271.837 9.51223C271.909 9.31016 271.796 9.08979 271.584 9.02058ZM280.597 12.3253C279.864 12.0238 279.121 11.727 278.37 11.4359C278.162 11.3563 277.923 11.4502 277.84 11.6483C277.755 11.8464 277.854 12.0715 278.063 12.1526C278.809 12.4422 279.547 12.7366 280.275 13.0357C280.327 13.0572 280.382 13.0675 280.436 13.0675C280.593 13.0675 280.743 12.98 280.809 12.8336C280.898 12.6379 280.803 12.4104 280.597 12.3253ZM311.619 50.1494C311.405 50.0818 311.177 50.1932 311.106 50.396C310.866 51.0937 310.579 51.7986 310.253 52.4931C310.162 52.688 310.254 52.9171 310.459 53.0038C310.513 53.0269 310.569 53.0373 310.624 53.0373C310.78 53.0373 310.928 52.9521 310.996 52.8081C311.332 52.0905 311.63 51.3594 311.878 50.6371C311.948 50.4342 311.833 50.2155 311.619 50.1494ZM310.432 34.8233C310.075 34.151 309.674 33.4708 309.239 32.801C309.122 32.6196 308.872 32.5647 308.679 32.6753C308.489 32.7875 308.43 33.0261 308.547 33.2075C308.97 33.8591 309.36 34.5202 309.707 35.1725C309.778 35.307 309.921 35.3849 310.069 35.3849C310.132 35.3849 310.195 35.3714 310.253 35.3435C310.453 35.2473 310.534 35.0142 310.432 34.8233ZM309.742 54.3571C309.548 54.2536 309.299 54.3181 309.189 54.505C308.811 55.147 308.391 55.7938 307.943 56.4263C307.818 56.6037 307.868 56.8439 308.053 56.9633C308.123 57.0078 308.202 57.0293 308.281 57.0293C308.411 57.0293 308.539 56.9696 308.618 56.8582C309.077 56.2083 309.508 55.544 309.897 54.8837C310.007 54.6976 309.938 54.4621 309.742 54.3571ZM307.879 30.879C307.412 30.268 306.907 29.6546 306.381 29.0564C306.237 28.8917 305.982 28.871 305.809 29.0078C305.636 29.1447 305.613 29.3889 305.758 29.5528C306.272 30.1383 306.765 30.7373 307.223 31.3348C307.302 31.439 307.426 31.4939 307.551 31.4939C307.634 31.4939 307.718 31.47 307.791 31.4199C307.972 31.2934 308.012 31.0516 307.879 30.879ZM296.078 67.4899C295.442 67.9243 294.787 68.357 294.111 68.789C293.924 68.9084 293.874 69.1486 294 69.326C294.079 69.4374 294.207 69.4971 294.337 69.4971C294.416 69.4971 294.494 69.4764 294.565 69.4318C295.247 68.9951 295.909 68.5575 296.552 68.1192C296.734 67.9951 296.776 67.7532 296.646 67.579C296.514 67.4056 296.26 67.3658 296.078 67.4899ZM252.956 4.22027C252.172 4.06593 251.384 3.91637 250.59 3.77158C250.372 3.7326 250.157 3.86784 250.114 4.07786C250.071 4.28789 250.216 4.49075 250.437 4.53132C251.226 4.67532 252.012 4.82488 252.792 4.97842C252.819 4.98399 252.848 4.98637 252.875 4.98637C253.063 4.98637 253.233 4.86068 253.272 4.6777C253.317 4.46848 253.176 4.26402 252.956 4.22027ZM312.503 45.6586C312.286 45.6427 312.083 45.7962 312.062 46.0094C311.994 46.7501 311.878 47.4963 311.716 48.2274C311.671 48.4366 311.812 48.6419 312.032 48.6856C312.059 48.6912 312.088 48.6936 312.116 48.6936C312.303 48.6936 312.472 48.5687 312.513 48.3857C312.68 47.6252 312.801 46.8479 312.872 46.077C312.892 45.8646 312.727 45.6769 312.503 45.6586ZM306.546 58.2544C306.069 58.8344 305.555 59.4183 305.019 59.9919C304.87 60.151 304.884 60.396 305.052 60.5384C305.13 60.6037 305.226 60.6363 305.323 60.6363C305.434 60.6363 305.546 60.5925 305.626 60.5066C306.174 59.9211 306.698 59.3244 307.185 58.7318C307.324 58.5631 307.293 58.3197 307.116 58.1884C306.94 58.0571 306.684 58.0858 306.546 58.2544ZM299.862 64.7079C299.263 65.1836 298.641 65.6578 297.997 66.1319C297.819 66.2632 297.786 66.5058 297.923 66.6753C298.004 66.7739 298.123 66.8256 298.245 66.8256C298.332 66.8256 298.42 66.7986 298.493 66.7445C299.147 66.2648 299.775 65.7835 300.382 65.3022C300.554 65.1653 300.578 64.9211 300.433 64.7572C300.29 64.5933 300.034 64.5726 299.862 64.7079ZM295.478 19.9529C295.296 19.8336 295.041 19.8782 294.915 20.0564C294.788 20.233 294.837 20.474 295.023 20.5934C295.692 21.0245 296.345 21.4613 296.979 21.9028C297.052 21.9529 297.136 21.9768 297.219 21.9768C297.344 21.9768 297.468 21.9219 297.547 21.8177C297.68 21.6451 297.64 21.4032 297.459 21.2775C296.816 20.8312 296.156 20.3889 295.478 19.9529ZM303.052 25.6928C302.89 25.5448 302.632 25.5528 302.477 25.7063C302.324 25.8615 302.329 26.1057 302.492 26.2537C303.075 26.7819 303.642 27.3221 304.176 27.8599C304.255 27.941 304.363 27.9816 304.471 27.9816C304.571 27.9816 304.671 27.9466 304.75 27.8758C304.913 27.7286 304.92 27.4844 304.766 27.3292C304.222 26.7811 303.647 26.2306 303.052 25.6928ZM303.385 61.6434C302.837 62.1693 302.257 62.6967 301.662 63.2131C301.495 63.357 301.484 63.6013 301.635 63.7596C301.714 63.8431 301.825 63.8861 301.935 63.8861C302.033 63.8861 302.131 63.8527 302.208 63.7851C302.814 63.2608 303.403 62.7238 303.962 62.1892C304.12 62.0372 304.119 61.7922 303.96 61.6419C303.801 61.4907 303.544 61.4923 303.385 61.6434ZM299.388 22.6729C299.214 22.5401 298.957 22.5679 298.818 22.7358C298.678 22.9036 298.708 23.1463 298.885 23.2791C299.517 23.7572 300.132 24.2401 300.725 24.7278C300.802 24.7915 300.896 24.8225 300.991 24.8225C301.104 24.8225 301.218 24.7771 301.298 24.688C301.445 24.5265 301.427 24.2823 301.256 24.1423C300.655 23.6475 300.032 23.1574 299.388 22.6729ZM311.907 41.54C312.026 42.2783 312.1 43.0277 312.126 43.7692C312.134 43.9784 312.314 44.1431 312.533 44.1431H312.546C312.771 44.1359 312.947 43.9561 312.939 43.7429C312.912 42.9712 312.835 42.1908 312.71 41.4223C312.676 41.2099 312.465 41.0651 312.246 41.0993C312.024 41.1311 311.873 41.3292 311.907 41.54ZM171.506 5.34357C170.722 5.51859 169.94 5.69839 169.158 5.88375C168.94 5.93546 168.807 6.14548 168.861 6.35312C168.908 6.52894 169.073 6.64588 169.255 6.64588C169.288 6.64588 169.321 6.6427 169.354 6.63474C170.132 6.45018 170.912 6.27118 171.691 6.09775C171.91 6.04843 172.045 5.83999 171.994 5.63236C171.942 5.42392 171.723 5.29345 171.506 5.34357ZM166.818 6.45415C166.04 6.64827 165.263 6.84874 164.487 7.054C164.27 7.11127 164.144 7.32527 164.204 7.53053C164.254 7.70236 164.417 7.81374 164.595 7.81374C164.631 7.81374 164.668 7.80976 164.705 7.80022C165.477 7.59496 166.251 7.39608 167.025 7.20196C167.241 7.14787 167.372 6.93625 167.314 6.72941C167.258 6.52257 167.035 6.39926 166.818 6.45415ZM180.965 3.4812C180.174 3.61645 179.381 3.75726 178.591 3.90284C178.37 3.94342 178.226 4.14628 178.268 4.3563C178.306 4.54087 178.476 4.66975 178.667 4.66975C178.693 4.66975 178.719 4.66736 178.744 4.66259C179.533 4.5178 180.32 4.37778 181.109 4.24334C181.329 4.20595 181.477 4.00467 181.437 3.79386C181.398 3.58383 181.19 3.447 180.965 3.4812ZM248.218 3.35392C247.429 3.22027 246.637 3.09139 245.839 2.96728C245.622 2.93148 245.408 3.07548 245.372 3.2863C245.336 3.49712 245.487 3.696 245.708 3.73101C246.501 3.85431 247.29 3.98319 248.076 4.11605C248.099 4.12003 248.123 4.12162 248.148 4.12162C248.34 4.12162 248.511 3.99035 248.546 3.8026C248.586 3.59258 248.438 3.39131 248.218 3.35392ZM162.165 7.68566C161.393 7.90045 160.622 8.12082 159.852 8.34675C159.637 8.4096 159.517 8.62599 159.583 8.83044C159.637 8.99671 159.797 9.10332 159.971 9.10332C160.011 9.10332 160.051 9.09854 160.091 9.08661C160.858 8.86147 161.625 8.6427 162.393 8.4279C162.609 8.36823 162.732 8.15344 162.669 7.94819C162.606 7.74294 162.38 7.6252 162.165 7.68566ZM148.447 12.1176C147.698 12.3953 146.949 12.6777 146.202 12.9657C145.994 13.046 145.894 13.272 145.978 13.4701C146.042 13.6204 146.194 13.7111 146.354 13.7111C146.405 13.7111 146.457 13.7024 146.507 13.6833C147.251 13.3961 147.995 13.1152 148.741 12.84C148.95 12.762 149.055 12.5385 148.974 12.3388C148.892 12.1391 148.654 12.0413 148.447 12.1176ZM139.55 15.6992C138.819 16.0182 138.089 16.3428 137.362 16.6729C137.159 16.7652 137.073 16.9959 137.17 17.1892C137.24 17.3284 137.385 17.4096 137.537 17.4096C137.595 17.4096 137.655 17.3977 137.711 17.3714C138.435 17.0428 139.161 16.7199 139.888 16.4024C140.092 16.3133 140.183 16.0834 140.088 15.8893C139.995 15.6952 139.754 15.6093 139.55 15.6992ZM311.415 39.3523C311.463 39.5241 311.628 39.6371 311.806 39.6371C311.841 39.6371 311.877 39.6323 311.913 39.6236C312.13 39.5671 312.258 39.3539 312.198 39.1478C311.987 38.4128 311.729 37.6705 311.429 36.9418C311.348 36.7437 311.111 36.6459 310.902 36.7222C310.693 36.8002 310.59 37.0245 310.672 37.2242C310.961 37.9267 311.211 38.6435 311.415 39.3523ZM152.975 10.5162C152.217 10.7724 151.461 11.0341 150.705 11.3014C150.495 11.3754 150.388 11.5981 150.466 11.7986C150.527 11.9545 150.682 12.0508 150.847 12.0508C150.893 12.0508 150.942 12.0429 150.989 12.0269C151.74 11.7604 152.493 11.5003 153.247 11.2457C153.459 11.1741 153.569 10.953 153.494 10.7517C153.419 10.5488 153.186 10.4438 152.975 10.5162ZM157.548 9.03967C156.783 9.27515 156.019 9.51541 155.256 9.76203C155.044 9.83124 154.93 10.0508 155.002 10.2529C155.059 10.4144 155.218 10.5154 155.386 10.5154C155.43 10.5154 155.474 10.509 155.518 10.4947C156.276 10.2497 157.037 10.0102 157.798 9.77635C158.012 9.71031 158.129 9.49234 158.061 9.28868C157.991 9.08581 157.763 8.97285 157.548 9.03967ZM143.97 13.8448C143.23 14.1431 142.49 14.447 141.753 14.7557C141.547 14.8424 141.455 15.0707 141.544 15.2664C141.612 15.4112 141.76 15.4971 141.917 15.4971C141.972 15.4971 142.027 15.4868 142.081 15.4645C142.814 15.1566 143.55 14.8543 144.287 14.5584C144.493 14.4748 144.59 14.2481 144.503 14.0508C144.416 13.8543 144.177 13.7628 143.97 13.8448ZM185.73 2.72703C184.936 2.84318 184.141 2.9641 183.345 3.0898C183.124 3.1248 182.974 3.32369 183.011 3.53451C183.043 3.72464 183.216 3.85829 183.411 3.85829C183.433 3.85829 183.455 3.8567 183.478 3.85352C184.27 3.72782 185.062 3.6077 185.853 3.49234C186.076 3.45973 186.228 3.26243 186.194 3.05082C186.16 2.84 185.954 2.69043 185.73 2.72703ZM176.221 4.35392C175.434 4.50825 174.647 4.66895 173.86 4.83363C173.641 4.87977 173.502 5.08661 173.55 5.29504C173.592 5.47563 173.76 5.59894 173.946 5.59894C173.976 5.59894 174.005 5.59576 174.034 5.5894C174.818 5.42552 175.602 5.26641 176.386 5.11207C176.606 5.06832 176.747 4.86386 176.702 4.65463C176.656 4.44461 176.442 4.31096 176.221 4.35392ZM229.072 1.09696C228.272 1.04206 227.47 0.991947 226.665 0.945805C226.657 0.94501 226.648 0.94501 226.641 0.94501C226.427 0.94501 226.248 1.10412 226.235 1.30937C226.221 1.52258 226.392 1.70635 226.616 1.71828C227.418 1.76363 228.217 1.81374 229.013 1.86943C229.023 1.86943 229.033 1.87023 229.043 1.87023C229.254 1.87023 229.433 1.7143 229.449 1.51064C229.465 1.29744 229.296 1.11207 229.072 1.09696ZM233.879 1.48519C233.081 1.4104 232.28 1.34119 231.476 1.27596C231.267 1.26402 231.056 1.41518 231.038 1.62918C231.017 1.84159 231.185 2.02934 231.408 2.04763C232.208 2.11207 233.006 2.18129 233.8 2.25448C233.813 2.25607 233.826 2.25686 233.84 2.25686C234.047 2.25686 234.223 2.1073 234.244 1.90762C234.266 1.69521 234.102 1.50587 233.879 1.48519ZM243.455 2.61088C242.663 2.49712 241.867 2.38892 241.066 2.28471C240.843 2.25447 240.639 2.40324 240.608 2.61565C240.578 2.82727 240.734 3.02297 240.957 3.05161C241.753 3.15503 242.545 3.26323 243.335 3.37619C243.355 3.37938 243.376 3.38097 243.396 3.38097C243.593 3.38097 243.766 3.24334 243.798 3.05082C243.831 2.84 243.677 2.6427 243.455 2.61088ZM224.257 0.823292C223.454 0.787492 222.651 0.756466 221.845 0.729418C221.62 0.733395 221.432 0.889323 221.425 1.10332C221.417 1.31653 221.593 1.49553 221.818 1.50348C222.62 1.52894 223.42 1.55997 224.218 1.59656H224.237C224.454 1.59656 224.633 1.43586 224.644 1.22822C224.654 1.01502 224.48 0.833634 224.257 0.823292ZM238.676 1.98876C237.881 1.89489 237.082 1.80579 236.279 1.72226C236.059 1.70078 235.856 1.85114 235.83 2.06434C235.806 2.27596 235.967 2.46768 236.19 2.49075C236.989 2.57508 237.784 2.66339 238.576 2.75726C238.593 2.75885 238.609 2.75965 238.627 2.75965C238.828 2.75965 239.004 2.61645 239.029 2.42074C239.057 2.20833 238.898 2.01502 238.676 1.98876ZM190.514 2.089C189.717 2.18606 188.919 2.28709 188.12 2.3937C187.897 2.42313 187.743 2.61883 187.774 2.83045C187.802 3.02377 187.977 3.16378 188.176 3.16378C188.195 3.16378 188.213 3.16299 188.233 3.1606C189.028 3.054 189.823 2.95296 190.617 2.8567C190.839 2.83045 190.997 2.63634 190.969 2.42393C190.94 2.21231 190.741 2.05957 190.514 2.089ZM195.315 1.56713C194.515 1.64429 193.714 1.72623 192.913 1.81374C192.69 1.83841 192.53 2.03013 192.555 2.24175C192.578 2.43904 192.755 2.58542 192.959 2.58542C192.974 2.58542 192.99 2.58463 193.005 2.58303C193.804 2.49552 194.601 2.41438 195.397 2.33642C195.621 2.31494 195.784 2.1256 195.76 1.91239C195.738 1.70078 195.545 1.54485 195.315 1.56713ZM219.433 0.664182C218.631 0.647476 217.827 0.634746 217.021 0.627586C216.813 0.622018 216.613 0.796244 216.611 1.01025C216.608 1.22425 216.789 1.39926 217.014 1.40086C217.816 1.40881 218.617 1.42154 219.416 1.43825H219.424C219.645 1.43825 219.826 1.27039 219.831 1.05957C219.836 0.845568 219.658 0.668956 219.433 0.664182ZM200.129 1.15901C199.327 1.21709 198.524 1.27993 197.721 1.34835C197.497 1.36744 197.331 1.55519 197.351 1.7684C197.371 1.96967 197.548 2.12083 197.756 2.12083C197.768 2.12083 197.78 2.12082 197.793 2.11923C198.592 2.05161 199.392 1.98876 200.19 1.93069C200.414 1.91398 200.582 1.72862 200.565 1.51541C200.548 1.30221 200.358 1.14151 200.129 1.15901ZM209.781 0.684867C208.977 0.705552 208.173 0.73101 207.365 0.76124C207.141 0.769196 206.966 0.948986 206.975 1.16299C206.983 1.37142 207.164 1.53451 207.38 1.53451H207.397C208.201 1.50507 209.002 1.47962 209.803 1.45893C210.028 1.45336 210.204 1.27516 210.198 1.06116C210.192 0.847954 210.005 0.685663 209.781 0.684867ZM204.952 0.865457C204.148 0.904439 203.344 0.948989 202.539 0.998313C202.315 1.01184 202.145 1.19561 202.159 1.40881C202.173 1.61406 202.352 1.77158 202.565 1.77158C202.573 1.77158 202.582 1.77158 202.591 1.77078C203.392 1.72146 204.194 1.6777 204.993 1.63872C205.217 1.62759 205.389 1.44541 205.379 1.2322C205.367 1.019 205.18 0.850342 204.952 0.865457ZM215.018 1.00468C215.019 1.21788 214.837 1.39211 214.613 1.39211C213.813 1.3937 213.012 1.40006 212.21 1.4112H212.203C211.982 1.4112 211.8 1.24175 211.797 1.03013C211.794 0.816131 211.973 0.640316 212.197 0.637134C213.004 0.625996 213.808 0.619633 214.611 0.618042H214.612C214.836 0.618042 215.018 0.790675 215.018 1.00468Z" fill="#6F7B91" fill-opacity="0.5"/>
<path d="M88.3557 116.593C87.5534 116.662 86.7578 116.718 85.9689 116.763C85.7449 116.775 85.5736 116.958 85.5869 117.172C85.5995 117.377 85.7792 117.536 85.9923 117.536C86.0006 117.536 86.0081 117.536 86.0165 117.535C86.8138 117.491 87.6186 117.434 88.4293 117.363C88.6533 117.344 88.8179 117.156 88.7978 116.943C88.7778 116.73 88.5772 116.585 88.3557 116.593ZM86.4553 27.1208C86.3132 26.9546 86.0566 26.9299 85.8836 27.0644C85.2535 27.5496 84.6325 28.0341 84.0182 28.517C83.8452 28.6539 83.821 28.8973 83.9639 29.062C84.0442 29.1543 84.1603 29.2028 84.2773 29.2028C84.3684 29.2028 84.4604 29.1733 84.5364 29.1137C85.1482 28.6324 85.7683 28.1495 86.3951 27.665C86.5698 27.5305 86.5965 27.2871 86.4553 27.1208ZM97.8263 115.242C97.0374 115.397 96.2535 115.541 95.4737 115.674C95.2531 115.712 95.106 115.913 95.1453 116.123C95.1804 116.311 95.3517 116.442 95.5448 116.442C95.569 116.442 95.5933 116.441 95.6175 116.436C96.4031 116.302 97.1954 116.157 97.9901 116.001C98.2099 115.957 98.352 115.752 98.3069 115.543C98.2609 115.334 98.0461 115.2 97.8263 115.242ZM93.1094 116.045C92.3138 116.16 91.5224 116.262 90.7368 116.352C90.5145 116.379 90.3557 116.571 90.3824 116.783C90.4075 116.979 90.583 117.123 90.7861 117.123C90.8019 117.123 90.8187 117.122 90.8354 117.12C91.6277 117.029 92.4266 116.926 93.2314 116.811C93.4529 116.779 93.6059 116.581 93.5724 116.371C93.539 116.159 93.3359 116.017 93.1094 116.045ZM74.9338 36.0588C74.3362 36.583 73.7495 37.1057 73.1712 37.626C73.0082 37.7732 73.0007 38.0182 73.1553 38.1733C73.2355 38.2537 73.3433 38.2943 73.4503 38.2943C73.5514 38.2943 73.6517 38.2593 73.7303 38.1885C74.3061 37.6698 74.8911 37.1495 75.4845 36.6276C75.65 36.4828 75.66 36.2378 75.5079 36.0811C75.3566 35.9235 75.0984 35.9148 74.9338 36.0588ZM74.0303 116.445C73.2305 116.351 72.4424 116.242 71.666 116.118C71.4462 116.083 71.2356 116.223 71.198 116.434C71.1604 116.646 71.31 116.846 71.5315 116.88C72.3187 117.006 73.1185 117.117 73.9309 117.212C73.9476 117.215 73.9643 117.215 73.981 117.215C74.1833 117.215 74.3579 117.072 74.3838 116.877C74.4114 116.664 74.2526 116.471 74.0303 116.445ZM83.5786 116.86C82.9619 116.876 82.3509 116.883 81.7459 116.883L81.1859 116.88C80.9787 116.851 80.7773 117.049 80.7756 117.264C80.7739 117.477 80.9536 117.652 81.1784 117.654L81.7442 117.657C82.3585 117.657 82.9761 117.649 83.5995 117.634C83.8235 117.628 84.0007 117.45 83.9957 117.237C83.9898 117.022 83.8135 116.866 83.5786 116.86ZM102.493 114.204C101.714 114.397 100.938 114.58 100.166 114.752C99.9474 114.8 99.8121 115.009 99.863 115.216C99.9073 115.394 100.074 115.515 100.259 115.515C100.289 115.515 100.32 115.512 100.352 115.505C101.13 115.332 101.912 115.148 102.698 114.954C102.915 114.9 103.046 114.689 102.989 114.482C102.933 114.274 102.707 114.15 102.493 114.204ZM78.5157 32.9848C77.9073 33.4955 77.3073 34.0047 76.7156 34.5114C76.5484 34.6554 76.5359 34.8997 76.6855 35.058C76.7665 35.1431 76.8769 35.1861 76.988 35.1861C77.085 35.1861 77.1827 35.1535 77.2596 35.0866C77.8488 34.5807 78.4464 34.0739 79.0531 33.5655C79.2219 33.4247 79.2378 33.1805 79.0899 33.0198C78.9411 32.8583 78.6837 32.844 78.5157 32.9848ZM82.6919 30.5799C82.8641 30.4422 82.885 30.198 82.7404 30.0341C82.5958 29.8718 82.3409 29.8504 82.1679 29.9888C81.5486 30.486 80.9369 30.9824 80.3335 31.4772C80.1638 31.6165 80.1446 31.8607 80.2908 32.023C80.3711 32.1121 80.4847 32.1574 80.5992 32.1574C80.6928 32.1574 80.7873 32.1264 80.8642 32.0636C81.4659 31.5711 82.0752 31.0755 82.6919 30.5799ZM78.7949 116.822C77.9901 116.787 77.1944 116.74 76.408 116.678C76.1773 116.649 75.9885 116.818 75.9701 117.032C75.9517 117.244 76.118 117.432 76.3411 117.449C77.1376 117.511 77.9424 117.56 78.7581 117.596H78.7765C78.9929 117.596 79.1726 117.434 79.1827 117.227C79.1927 117.013 79.0189 116.832 78.7949 116.822ZM137.291 99.1733C136.616 99.5918 135.943 100.001 135.269 100.404C135.079 100.518 135.021 100.756 135.14 100.937C135.217 101.055 135.349 101.118 135.485 101.118C135.559 101.118 135.634 101.1 135.7 101.06C136.378 100.655 137.056 100.243 137.735 99.8225C137.923 99.7055 137.975 99.4653 137.853 99.2863C137.73 99.1081 137.479 99.0571 137.291 99.1733ZM145.725 94.0134C145.591 93.8423 145.336 93.8065 145.156 93.9354C144.512 94.3944 143.867 94.8463 143.224 95.2902C143.042 95.4159 143.001 95.6578 143.133 95.8312C143.212 95.9354 143.336 95.9911 143.462 95.9911C143.545 95.9911 143.628 95.9673 143.701 95.9171C144.348 95.4708 144.996 95.0166 145.643 94.5544C145.823 94.4271 145.86 94.1844 145.725 94.0134ZM141.268 96.6164C140.609 97.0556 139.95 97.4875 139.291 97.9108C139.104 98.0301 139.056 98.2711 139.181 98.4485C139.26 98.5591 139.388 98.618 139.519 98.618C139.597 98.618 139.676 98.5973 139.745 98.552C140.409 98.1256 141.072 97.692 141.734 97.2505C141.918 97.1279 141.963 96.8861 141.835 96.7111C141.706 96.5369 141.454 96.4939 141.268 96.6164ZM133.226 101.601C132.536 101.997 131.848 102.384 131.16 102.764C130.965 102.871 130.899 103.107 131.012 103.292C131.087 103.416 131.223 103.485 131.364 103.485C131.433 103.485 131.503 103.468 131.567 103.433C132.26 103.052 132.952 102.661 133.645 102.263C133.838 102.153 133.899 101.916 133.784 101.733C133.668 101.55 133.419 101.49 133.226 101.601ZM111.645 111.491C110.888 111.752 110.133 112.003 109.382 112.244C109.17 112.312 109.055 112.532 109.126 112.734C109.184 112.896 109.342 112.997 109.512 112.997C109.555 112.997 109.599 112.991 109.642 112.978C110.399 112.735 111.16 112.481 111.922 112.219C112.133 112.145 112.242 111.924 112.166 111.723C112.089 111.523 111.855 111.418 111.645 111.491ZM116.119 109.845C115.374 110.136 114.631 110.418 113.892 110.69C113.682 110.768 113.578 110.992 113.659 111.191C113.721 111.344 113.875 111.438 114.038 111.438C114.087 111.438 114.137 111.43 114.184 111.412C114.931 111.138 115.678 110.854 116.428 110.561C116.636 110.48 116.735 110.253 116.649 110.056C116.564 109.857 116.325 109.764 116.119 109.845ZM107.101 112.948C106.333 113.176 105.567 113.394 104.805 113.602C104.589 113.661 104.465 113.875 104.526 114.081C104.577 114.25 104.74 114.361 104.917 114.361C104.954 114.361 104.992 114.356 105.029 114.346C105.797 114.137 106.569 113.917 107.344 113.687C107.558 113.624 107.677 113.406 107.61 113.202C107.544 112.999 107.316 112.884 107.101 112.948ZM124.836 106.034C124.118 106.381 123.402 106.719 122.686 107.048C122.484 107.141 122.4 107.372 122.497 107.565C122.568 107.702 122.713 107.783 122.863 107.783C122.923 107.783 122.983 107.771 123.041 107.744C123.76 107.414 124.481 107.073 125.204 106.724C125.404 106.627 125.484 106.394 125.382 106.204C125.281 106.013 125.037 105.935 124.836 106.034ZM120.517 108.022C119.785 108.342 119.055 108.652 118.327 108.955C118.121 109.04 118.027 109.268 118.116 109.464C118.183 109.609 118.333 109.696 118.489 109.696C118.543 109.696 118.599 109.686 118.651 109.664C119.384 109.36 120.12 109.047 120.856 108.725C121.06 108.636 121.149 108.406 121.056 108.211C120.962 108.017 120.721 107.932 120.517 108.022ZM129.073 103.89C128.369 104.262 127.666 104.626 126.964 104.981C126.766 105.081 126.691 105.316 126.796 105.504C126.869 105.635 127.01 105.709 127.156 105.709C127.22 105.709 127.285 105.695 127.346 105.664C128.053 105.307 128.76 104.941 129.467 104.567C129.664 104.464 129.735 104.228 129.625 104.041C129.516 103.854 129.269 103.786 129.073 103.89ZM50.7491 63.9792C50.5544 63.8718 50.3062 63.9339 50.1933 64.1192C49.7822 64.793 49.3869 65.4621 49.0091 66.1264C48.9021 66.3141 48.9748 66.5488 49.1729 66.6506C49.2339 66.6825 49.3008 66.6976 49.366 66.6976C49.5105 66.6976 49.6501 66.6244 49.7237 66.4955C50.0981 65.8384 50.4884 65.1757 50.8962 64.5082C51.009 64.3237 50.943 64.0874 50.7491 63.9792ZM45.2859 99.0627C45.1956 98.867 44.9566 98.7787 44.751 98.8622C44.5454 98.9466 44.4501 99.1749 44.5396 99.3706C44.8622 100.078 45.224 100.781 45.6152 101.46C45.6887 101.588 45.8283 101.661 45.972 101.661C46.038 101.661 46.1049 101.646 46.1667 101.613C46.3631 101.511 46.4359 101.275 46.3272 101.087C45.9486 100.429 45.5976 99.7485 45.2859 99.0627ZM46.4141 72.151C46.2069 72.0707 45.9695 72.1646 45.8843 72.3619C45.5717 73.0858 45.28 73.8026 45.0092 74.513C44.9324 74.7135 45.0418 74.9354 45.2524 75.0086C45.2984 75.0245 45.3452 75.0317 45.3912 75.0317C45.5575 75.0317 45.7129 74.9338 45.7731 74.7771C46.0405 74.077 46.328 73.3698 46.6356 72.6562C46.7217 72.4589 46.6214 72.2322 46.4141 72.151ZM43.8033 94.7883C43.7523 94.5798 43.5333 94.4501 43.3152 94.4995C43.0962 94.548 42.9609 94.7564 43.0118 94.9649C43.1974 95.7198 43.4197 96.4724 43.6721 97.2003C43.7281 97.3634 43.8868 97.466 44.0573 97.466C44.1 97.466 44.1426 97.4597 44.1852 97.447C44.3983 97.3801 44.5137 97.1614 44.4435 96.9577C44.1986 96.2513 43.9838 95.5209 43.8033 94.7883ZM47.0485 70.7596C47.1036 70.7843 47.1604 70.7946 47.2164 70.7946C47.3711 70.7946 47.519 70.7111 47.5867 70.5687C47.9126 69.8893 48.2561 69.2051 48.6188 68.5154C48.7191 68.3237 48.638 68.0914 48.4375 67.9959C48.236 67.9004 47.992 67.9768 47.8917 68.1685C47.5248 68.867 47.1763 69.5599 46.847 70.2473C46.7543 70.4414 46.8437 70.6713 47.0485 70.7596ZM47.5608 103.01C47.4354 102.834 47.1822 102.787 46.9966 102.907C46.8103 103.026 46.7618 103.267 46.888 103.444C47.3393 104.08 47.829 104.707 48.343 105.307C48.4232 105.4 48.5403 105.449 48.6581 105.449C48.7484 105.449 48.8394 105.421 48.9155 105.362C49.0893 105.227 49.1152 104.982 48.9732 104.817C48.4742 104.235 47.9987 103.628 47.5608 103.01ZM54.4264 58.9092C54.5551 58.9092 54.6813 58.8519 54.7607 58.7429C55.2095 58.1264 55.6725 57.5067 56.1488 56.883C56.2809 56.7111 56.2416 56.4685 56.0594 56.3428C55.8789 56.2179 55.624 56.2553 55.4919 56.4279C55.0114 57.0564 54.545 57.6809 54.0921 58.3022C53.965 58.478 54.0102 58.7191 54.1949 58.8408C54.2659 58.8877 54.3461 58.9092 54.4264 58.9092ZM43.8576 79.3897C43.8919 79.3984 43.9261 79.4024 43.9604 79.4024C44.1409 79.4024 44.3056 79.2871 44.3532 79.112C44.5488 78.3937 44.7694 77.6594 45.0092 76.9291C45.0761 76.7254 44.9566 76.5082 44.7426 76.4446C44.5279 76.3801 44.3005 76.4947 44.2328 76.6984C43.9896 77.4406 43.7648 78.1876 43.5668 78.9179C43.5099 79.1248 43.6403 79.3364 43.8576 79.3897ZM42.9525 83.8845C42.9717 83.8877 42.9909 83.8885 43.0102 83.8885C43.2091 83.8885 43.3829 83.7493 43.4122 83.556C43.5216 82.8225 43.6579 82.0715 43.8166 81.3229C43.8618 81.1136 43.7197 80.9092 43.4999 80.867C43.2793 80.8257 43.0653 80.9601 43.0202 81.1693C42.8581 81.9323 42.7185 82.6992 42.6073 83.4478C42.5756 83.6586 42.7302 83.8551 42.9525 83.8845ZM43.362 92.5719C43.2492 91.8368 43.1656 91.081 43.1138 90.3276C43.0987 90.1136 42.904 89.9529 42.6817 89.9665C42.4569 89.98 42.2872 90.1645 42.3023 90.3777C42.3558 91.1526 42.4419 91.9283 42.558 92.684C42.5873 92.8766 42.7611 93.015 42.96 93.015C42.9792 93.015 42.9985 93.0134 43.0185 93.011C43.2408 92.98 43.3946 92.7835 43.362 92.5719ZM42.6357 88.4517H42.6399C42.8622 88.4517 43.0444 88.2807 43.0461 88.0683C43.0536 87.3244 43.0887 86.5639 43.1506 85.8074C43.1681 85.5941 43.0001 85.408 42.7762 85.3913C42.5597 85.3809 42.3574 85.5353 42.3399 85.7477C42.2764 86.521 42.2404 87.2998 42.2329 88.0611C42.2313 88.2751 42.4118 88.4501 42.6357 88.4517ZM66.9332 44.6451C67.4764 44.097 68.0314 43.548 68.5955 42.9967C68.7526 42.8432 68.7493 42.5989 68.5888 42.4494C68.4284 42.2998 68.1709 42.303 68.0138 42.4565C67.4464 43.0102 66.8889 43.5624 66.3423 44.1129C66.1877 44.268 66.1953 44.513 66.3582 44.6602C66.4368 44.731 66.5371 44.7652 66.6374 44.7652C66.7452 44.7652 66.853 44.7254 66.9332 44.6451ZM64.7127 114.519C63.9454 114.282 63.1899 114.028 62.4662 113.761C62.2581 113.683 62.0224 113.783 61.9405 113.982C61.8594 114.182 61.9639 114.406 62.1737 114.484C62.91 114.755 63.6805 115.014 64.4628 115.255C64.5037 115.268 64.5463 115.274 64.5873 115.274C64.7595 115.274 64.9182 115.17 64.9742 115.007C65.0436 114.803 64.9266 114.585 64.7127 114.519ZM72.0045 39.2219C71.8474 39.0675 71.59 39.0643 71.4295 39.2131C70.847 39.7517 70.2737 40.2887 69.7104 40.8233C69.5508 40.9744 69.5508 41.2195 69.7095 41.3706C69.7889 41.447 69.8934 41.4844 69.997 41.4844C70.1007 41.4844 70.2051 41.447 70.2837 41.3714C70.8453 40.8392 71.4153 40.3054 71.9961 39.7692C72.1574 39.6204 72.1608 39.3754 72.0045 39.2219ZM62.0659 49.1861C61.8954 49.0468 61.6388 49.0651 61.4925 49.2274C60.9627 49.8161 60.4445 50.4024 59.9381 50.9856C59.7952 51.1503 59.8194 51.3945 59.9924 51.5305C60.0684 51.5902 60.1604 51.6188 60.2506 51.6188C60.3685 51.6188 60.4846 51.5711 60.5649 51.4788C61.068 50.8989 61.5828 50.3165 62.1102 49.7318C62.2556 49.5695 62.2364 49.3253 62.0659 49.1861ZM69.3218 115.69C68.5378 115.53 67.7573 115.351 67.0009 115.159C66.7819 115.099 66.5613 115.227 66.5028 115.433C66.446 115.64 66.5747 115.852 66.792 115.907C67.5609 116.102 68.354 116.283 69.1504 116.448C69.1797 116.453 69.2081 116.456 69.2365 116.456C69.4237 116.456 69.5925 116.332 69.6335 116.15C69.6811 115.942 69.5416 115.736 69.3218 115.69ZM64.6968 45.7923C64.1469 46.3627 63.6078 46.9307 63.0796 47.4971C62.9309 47.657 62.9459 47.9013 63.113 48.0437C63.1908 48.1089 63.2869 48.1407 63.3838 48.1407C63.495 48.1407 63.607 48.097 63.6872 48.011C64.2129 47.4486 64.7486 46.883 65.296 46.3149C65.4473 46.1574 65.4364 45.9132 65.2709 45.7684C65.1063 45.6236 64.848 45.634 64.6968 45.7923ZM50.5502 106.499C50.3939 106.347 50.1357 106.344 49.9752 106.492C49.8139 106.641 49.8106 106.886 49.9669 107.04C50.5268 107.587 51.1227 108.123 51.7403 108.633C51.8172 108.697 51.9116 108.728 52.0069 108.728C52.1197 108.728 52.2334 108.683 52.3136 108.595C52.4607 108.433 52.4432 108.189 52.2735 108.049C51.6734 107.553 51.0934 107.032 50.5502 106.499ZM53.3031 60.0969C53.1159 59.98 52.8627 60.0293 52.7398 60.2075C52.2911 60.8583 51.8573 61.5043 51.4386 62.1463C51.3199 62.3285 51.3793 62.5671 51.5698 62.6793C51.6367 62.7183 51.711 62.7374 51.7838 62.7374C51.92 62.7374 52.0529 62.6721 52.1298 62.5544C52.5443 61.9179 52.9739 61.2775 53.4193 60.6324C53.543 60.4542 53.4903 60.2139 53.3031 60.0969ZM56.0861 110.736C55.4117 110.332 54.7523 109.902 54.1247 109.461C53.9433 109.334 53.6892 109.371 53.5564 109.542C53.4235 109.715 53.4611 109.957 53.6416 110.084C54.2851 110.536 54.9612 110.976 55.6532 111.391C55.7201 111.431 55.7945 111.45 55.8689 111.45C56.0042 111.45 56.1363 111.386 56.2132 111.27C56.3327 111.089 56.2767 110.85 56.0861 110.736ZM59.0539 53.2521C59.1934 53.085 59.165 52.8408 58.9887 52.7079C58.8132 52.5751 58.5574 52.6037 58.4179 52.7708C57.9106 53.3786 57.4158 53.9824 56.9344 54.5846C56.799 54.7549 56.8333 54.9975 57.0121 55.1264C57.0857 55.1797 57.1718 55.2059 57.2579 55.2059C57.3807 55.2059 57.5019 55.1534 57.5821 55.0532C58.0593 54.4557 58.5499 53.8551 59.0539 53.2521ZM60.4721 113.394C60.4044 113.536 60.2565 113.62 60.1019 113.62C60.0459 113.62 59.9882 113.608 59.9339 113.585C59.1918 113.262 58.4588 112.916 57.7551 112.556C57.5579 112.455 57.4835 112.22 57.5896 112.032C57.6958 111.844 57.9432 111.773 58.1404 111.874C58.8282 112.227 59.5453 112.565 60.2715 112.881C60.4755 112.97 60.5657 113.2 60.4721 113.394Z" fill="#6F7B91" fill-opacity="0.5"/>
<path d="M367.151 34.8544C367.002 34.6937 366.745 34.6786 366.577 34.8194C366.409 34.9603 366.392 35.2045 366.541 35.3652C367.07 35.9404 367.59 36.5179 368.099 37.0979C368.18 37.1894 368.295 37.2371 368.411 37.2371C368.503 37.2371 368.596 37.2077 368.672 37.1472C368.844 37.0096 368.867 36.7661 368.723 36.6022C368.21 36.0167 367.686 35.4344 367.151 34.8544ZM368.309 102.926C367.565 102.767 366.794 102.569 366.019 102.338C365.801 102.275 365.575 102.389 365.509 102.593C365.443 102.796 365.562 103.013 365.776 103.077C366.573 103.314 367.366 103.518 368.131 103.682C368.16 103.687 368.19 103.691 368.22 103.691C368.406 103.691 368.574 103.569 368.617 103.389C368.666 103.181 368.529 102.974 368.309 102.926ZM371.414 40.8178C371.499 40.8178 371.586 40.7924 371.66 40.7391C371.838 40.6094 371.874 40.3676 371.737 40.1965C371.253 39.5903 370.759 38.9849 370.252 38.3827C370.112 38.2148 369.856 38.1878 369.681 38.3206C369.506 38.4543 369.477 38.6977 369.617 38.8648C370.118 39.463 370.61 40.0629 371.09 40.6651C371.17 40.7653 371.291 40.8178 371.414 40.8178ZM373.178 42.0446C373.045 41.8703 372.79 41.8322 372.61 41.9579C372.428 42.0828 372.388 42.3246 372.519 42.498C372.99 43.1178 373.451 43.7399 373.901 44.362C373.98 44.471 374.107 44.5299 374.236 44.5299C374.316 44.5299 374.396 44.5076 374.466 44.4622C374.652 44.3405 374.698 44.1003 374.57 43.9236C374.118 43.296 373.653 42.6699 373.178 42.0446ZM361.902 30.4885C362.007 30.4885 362.111 30.4503 362.191 30.3747C362.349 30.2236 362.348 29.9785 362.189 29.8274C361.622 29.2896 361.044 28.755 360.457 28.2244C360.294 28.0772 360.036 28.0836 359.882 28.2387C359.727 28.393 359.734 28.6381 359.897 28.7852C360.479 29.3119 361.052 29.8425 361.616 30.3763C361.695 30.4511 361.799 30.4885 361.902 30.4885ZM363.775 101.586C363.057 101.32 362.319 101.021 361.583 100.7C361.379 100.611 361.138 100.695 361.044 100.89C360.95 101.084 361.04 101.314 361.244 101.403C361.995 101.731 362.747 102.035 363.48 102.307C363.528 102.325 363.579 102.333 363.627 102.333C363.79 102.333 363.943 102.24 364.006 102.087C364.088 101.888 363.984 101.664 363.775 101.586ZM365.538 33.1432C364.995 32.5824 364.445 32.0231 363.883 31.4678C363.728 31.3143 363.47 31.3079 363.309 31.4567C363.146 31.6046 363.141 31.8497 363.297 32.004C363.854 32.5553 364.401 33.1098 364.939 33.6667C365.018 33.7502 365.128 33.7924 365.238 33.7924C365.336 33.7924 365.434 33.7582 365.513 33.6906C365.677 33.5458 365.689 33.3007 365.538 33.1432ZM385.44 97.4439C385.252 97.3261 385.001 97.3739 384.876 97.5537C384.438 98.1845 383.956 98.7772 383.443 99.3134C383.291 99.4717 383.303 99.716 383.47 99.86C383.547 99.9276 383.645 99.961 383.744 99.961C383.854 99.961 383.963 99.9188 384.044 99.8345C384.585 99.2689 385.093 98.6452 385.555 97.9801C385.678 97.8019 385.627 97.5616 385.44 97.4439ZM388.557 88.8425C388.339 88.8083 388.127 88.9507 388.091 89.1623C387.962 89.9188 387.802 90.6627 387.616 91.3747C387.562 91.5823 387.695 91.7915 387.913 91.8433C387.946 91.8512 387.979 91.8544 388.011 91.8544C388.194 91.8544 388.359 91.7375 388.405 91.5608C388.596 90.8289 388.761 90.0636 388.894 89.2864C388.93 89.0756 388.78 88.8767 388.557 88.8425ZM377.613 102.849C376.885 103.061 376.117 103.221 375.33 103.323C375.108 103.352 374.952 103.547 374.982 103.758C375.009 103.952 375.184 104.093 375.384 104.093C375.403 104.093 375.421 104.092 375.44 104.09C376.27 103.982 377.083 103.814 377.852 103.588C378.066 103.526 378.187 103.309 378.121 103.105C378.055 102.901 377.827 102.785 377.613 102.849ZM388.948 84.2784C388.701 84.2689 388.537 84.4399 388.53 84.6539C388.507 85.4224 388.46 86.1838 388.389 86.9165C388.369 87.1297 388.534 87.3174 388.758 87.3373C388.77 87.3381 388.783 87.3389 388.796 87.3389C389.003 87.3389 389.181 87.1877 389.199 86.9865C389.271 86.2379 389.32 85.4606 389.343 84.6762C389.35 84.4622 389.173 84.284 388.948 84.2784ZM387.459 93.2967C387.245 93.2275 387.015 93.3309 386.94 93.533C386.674 94.2553 386.369 94.953 386.036 95.6078C385.938 95.7995 386.022 96.031 386.224 96.1249C386.282 96.1503 386.342 96.1631 386.401 96.1631C386.552 96.1631 386.697 96.0827 386.767 95.9451C387.114 95.2641 387.43 94.5394 387.707 93.7907C387.782 93.5887 387.671 93.3675 387.459 93.2967ZM379.648 51.751C379.262 51.0843 378.865 50.4169 378.457 49.7502C378.344 49.5648 378.093 49.5036 377.9 49.611C377.706 49.7184 377.641 49.9555 377.755 50.14C378.16 50.8011 378.554 51.463 378.937 52.1249C379.011 52.253 379.15 52.3246 379.292 52.3246C379.36 52.3246 379.427 52.3095 379.489 52.2769C379.685 52.1742 379.757 51.9388 379.648 51.751ZM383.639 60.5418C383.846 60.4598 383.944 60.2331 383.857 60.0358C383.55 59.3341 383.228 58.6301 382.894 57.9244C382.801 57.7295 382.561 57.6436 382.356 57.7303C382.151 57.8186 382.06 58.0477 382.152 58.2426C382.484 58.9411 382.803 59.6388 383.107 60.3341C383.172 60.4821 383.323 60.572 383.482 60.572C383.535 60.572 383.587 60.5625 383.639 60.5418ZM381.731 100.822C381.117 101.274 380.457 101.675 379.77 102.013C379.571 102.111 379.492 102.344 379.595 102.535C379.668 102.667 379.81 102.744 379.956 102.744C380.02 102.744 380.083 102.73 380.142 102.701C380.874 102.342 381.576 101.915 382.229 101.433C382.407 101.302 382.439 101.06 382.302 100.89C382.164 100.72 381.908 100.691 381.731 100.822ZM359.44 99.7001C358.753 99.3604 358.055 98.996 357.347 98.6062C357.154 98.5004 356.904 98.5624 356.792 98.7478C356.679 98.9324 356.746 99.1694 356.94 99.2768C357.659 99.6722 358.368 100.041 359.064 100.387C359.124 100.417 359.189 100.43 359.252 100.43C359.398 100.43 359.541 100.355 359.613 100.223C359.717 100.033 359.639 99.7987 359.44 99.7001ZM372.99 103.464C372.232 103.46 371.441 103.41 370.638 103.316C370.421 103.294 370.213 103.44 370.185 103.652C370.158 103.865 370.316 104.057 370.539 104.084C371.373 104.182 372.196 104.234 372.986 104.237H372.988C373.212 104.237 373.394 104.066 373.395 103.853C373.396 103.639 373.215 103.465 372.99 103.464ZM381.139 56.1766C381.209 56.3143 381.353 56.3946 381.505 56.3946C381.564 56.3946 381.625 56.3827 381.682 56.3564C381.884 56.2633 381.968 56.0318 381.87 55.8393C381.521 55.1543 381.161 54.4678 380.788 53.7812C380.686 53.5919 380.44 53.5171 380.24 53.6158C380.041 53.7136 379.963 53.9467 380.066 54.136C380.437 54.8178 380.793 55.498 381.139 56.1766ZM376.521 48.1846C376.599 48.3031 376.732 48.3676 376.867 48.3676C376.941 48.3676 377.014 48.3493 377.081 48.3103C377.272 48.1973 377.331 47.9594 377.213 47.7773C376.791 47.1297 376.36 46.4821 375.916 45.8353C375.794 45.6555 375.541 45.6062 375.354 45.7232C375.166 45.8393 375.114 46.0796 375.236 46.2578C375.675 46.8998 376.104 47.5418 376.521 48.1846ZM384.824 64.5911C384.883 64.7502 385.039 64.8504 385.208 64.8504C385.251 64.8504 385.297 64.8433 385.341 64.8282C385.554 64.7582 385.665 64.5378 385.591 64.3357C385.328 63.6181 385.05 62.8974 384.758 62.1734C384.677 61.9737 384.443 61.8727 384.232 61.9507C384.024 62.0271 383.918 62.2514 383.998 62.4511C384.288 63.1671 384.563 63.8807 384.824 64.5911ZM388.407 80.1161C388.468 80.8815 388.51 81.6444 388.531 82.385C388.537 82.5951 388.718 82.7613 388.938 82.7613H388.948C389.173 82.755 389.35 82.5776 389.344 82.3636C389.322 81.611 389.28 80.8345 389.218 80.0565C389.201 79.8433 388.999 79.6865 388.781 79.7009C388.557 79.7168 388.389 79.9029 388.407 80.1161ZM385.581 66.7534C385.824 67.4861 386.052 68.2148 386.264 68.9372C386.315 69.1082 386.478 69.2196 386.656 69.2196C386.692 69.2196 386.729 69.2148 386.766 69.2052C386.982 69.148 387.108 68.934 387.048 68.7287C386.832 67.9976 386.603 67.2617 386.357 66.5211C386.29 66.3174 386.064 66.2052 385.846 66.2681C385.632 66.3317 385.514 66.5497 385.581 66.7534ZM334.944 10.9698C334.233 10.6182 333.516 10.2721 332.79 9.93083C332.589 9.83616 332.345 9.91492 332.245 10.1066C332.146 10.2984 332.229 10.5307 332.429 10.6245C333.15 10.9634 333.863 11.3071 334.569 11.6564C334.629 11.6858 334.692 11.7001 334.756 11.7001C334.902 11.7001 335.044 11.6245 335.117 11.4917C335.22 11.3024 335.143 11.0685 334.944 10.9698ZM387.829 75.6014C387.962 76.3612 388.074 77.1122 388.17 77.8528C388.195 78.0493 388.37 78.1933 388.572 78.1933C388.589 78.1933 388.606 78.1925 388.623 78.1909C388.845 78.1647 389.005 77.9721 388.976 77.7597C388.881 77.0079 388.766 76.2458 388.631 75.4749C388.594 75.2641 388.379 75.1185 388.165 75.1567C387.942 75.1917 387.793 75.3906 387.829 75.6014ZM386.87 71.1408C387.061 71.8886 387.235 72.6293 387.394 73.3628C387.433 73.5465 387.603 73.6722 387.791 73.6722C387.819 73.6722 387.846 73.6698 387.874 73.6643C388.094 73.6213 388.236 73.4169 388.191 73.2076C388.031 72.4646 387.854 71.7144 387.66 70.9578C387.606 70.7502 387.389 70.6229 387.168 70.673C386.951 70.7239 386.817 70.9332 386.87 71.1408ZM345.666 90.6698C345.493 90.5314 345.238 90.5537 345.093 90.7176C344.949 90.8806 344.971 91.1249 345.143 91.2625C345.773 91.7645 346.395 92.2506 347.011 92.7207C347.085 92.778 347.176 92.8059 347.265 92.8059C347.385 92.8059 347.502 92.7565 347.583 92.6611C347.723 92.494 347.695 92.2506 347.52 92.1169C346.907 91.6499 346.29 91.1678 345.666 90.6698ZM350.767 21.3986C350.84 21.4511 350.927 21.4774 351.013 21.4774C351.135 21.4774 351.257 21.4241 351.336 21.3238C351.471 21.1536 351.436 20.9109 351.258 20.7821C350.62 20.3206 349.973 19.864 349.318 19.4113C349.138 19.2864 348.882 19.3246 348.751 19.498C348.618 19.6715 348.659 19.9133 348.841 20.0382C349.492 20.4869 350.133 20.9412 350.767 21.3986ZM349.409 93.5226C349.232 93.3938 348.975 93.4256 348.839 93.5958C348.703 93.7661 348.737 94.0087 348.916 94.1384C349.571 94.6133 350.217 95.07 350.857 95.5091C350.929 95.5585 351.013 95.5823 351.095 95.5823C351.221 95.5823 351.345 95.5266 351.425 95.4216C351.556 95.2482 351.514 95.0063 351.332 94.8814C350.699 94.4463 350.057 93.9928 349.409 93.5226ZM354.78 24.327C354.897 24.327 355.013 24.2793 355.093 24.187C355.236 24.0223 355.213 23.7789 355.04 23.642C354.424 23.1552 353.8 22.6723 353.166 22.1926C352.992 22.0613 352.734 22.0875 352.595 22.2546C352.455 22.4225 352.484 22.6651 352.66 22.7988C353.288 23.2737 353.908 23.7542 354.521 24.2371C354.597 24.2976 354.689 24.327 354.78 24.327ZM339.182 13.1735C338.487 12.794 337.785 12.4193 337.075 12.0502C336.878 11.9475 336.631 12.0168 336.523 12.2045C336.416 12.3922 336.488 12.6277 336.685 12.7296C337.39 13.0963 338.088 13.4678 338.777 13.8449C338.841 13.8799 338.91 13.8958 338.98 13.8958C339.12 13.8958 339.257 13.8266 339.332 13.7017C339.444 13.5164 339.377 13.2801 339.182 13.1735ZM355.298 97.4312C354.639 97.0374 353.971 96.6221 353.294 96.1869C353.11 96.0668 352.857 96.1129 352.729 96.2904C352.604 96.4678 352.653 96.708 352.839 96.8273C353.524 97.2689 354.198 97.6881 354.865 98.0867C354.932 98.1265 355.007 98.1456 355.082 98.1456C355.216 98.1456 355.348 98.0819 355.426 97.965C355.545 97.7836 355.488 97.5449 355.298 97.4312ZM358.414 27.3318C358.524 27.3318 358.635 27.2888 358.714 27.2053C358.866 27.047 358.854 26.8019 358.687 26.6587C358.095 26.1456 357.494 25.6365 356.882 25.1313C356.712 24.9921 356.455 25.0088 356.309 25.1695C356.162 25.331 356.179 25.5752 356.348 25.7152C356.956 26.2172 357.553 26.7224 358.141 27.2307C358.218 27.2984 358.316 27.3318 358.414 27.3318ZM343.32 15.545C342.643 15.1377 341.957 14.7351 341.265 14.3381C341.074 14.2292 340.822 14.2864 340.706 14.4702C340.59 14.6532 340.652 14.8911 340.845 15.0008C341.533 15.3962 342.213 15.7948 342.886 16.1989C342.954 16.2403 343.029 16.2586 343.103 16.2586C343.238 16.2586 343.369 16.1949 343.447 16.0788C343.566 15.8974 343.509 15.6588 343.32 15.545ZM346.884 18.7176C346.231 18.2864 345.569 17.86 344.899 17.4384C344.713 17.3198 344.661 17.0804 344.785 16.9022C344.908 16.7232 345.162 16.6747 345.348 16.7924C346.023 17.218 346.69 17.6476 347.348 18.082C347.533 18.2037 347.578 18.4447 347.45 18.6206C347.371 18.7288 347.244 18.7868 347.116 18.7868C347.036 18.7868 346.955 18.7646 346.884 18.7176Z" fill="#6F7B91" fill-opacity="0.5"/>
<path d="M317.534 3.71519C315.544 2.96261 312.97 2.3747 312.799 2.7852C312.629 3.1957 314.924 4.44868 316.915 5.20127C317.099 5.27048 317.274 5.33651 317.447 5.40175C317.549 5.66587 317.764 6.21718 318.039 6.92124C318.03 6.91487 318.027 6.90214 318.017 6.89816L317.482 6.6961C317.417 6.67143 317.34 6.71041 317.309 6.78201L317.104 7.27605C317.074 7.34844 317.102 7.42641 317.167 7.45107L317.701 7.65314C317.732 7.66507 317.763 7.6595 317.793 7.64757L318.414 7.88225C318.648 8.4813 318.902 9.12807 319.154 9.76849L318.627 9.5696C318.561 9.54494 318.485 9.58313 318.454 9.65552L318.249 10.1496C318.219 10.2212 318.247 10.2999 318.312 10.3246L318.846 10.5266C318.877 10.5378 318.908 10.533 318.937 10.5203L319.539 10.7478C320.181 12.3755 320.726 13.7383 320.764 13.7725C320.858 13.8568 321.659 14.1297 321.659 14.1297L321.66 14.1305C321.845 14.2005 322.003 14.2402 322.011 14.2204C322.019 14.2021 321.817 14.1098 321.643 14.0398L321.054 10.7287C321.203 10.7749 321.326 10.7868 321.341 10.7494C321.359 10.7056 321.224 10.6126 321.039 10.5426C321.032 10.5402 321.026 10.5386 321.019 10.5362L320.903 9.88225C321.047 9.92521 321.163 9.93555 321.178 9.89896C321.197 9.8552 321.061 9.76212 320.876 9.69212C320.873 9.69132 320.871 9.69053 320.869 9.68973L320.763 9.09466L320.809 8.67939C320.978 8.73826 321.125 8.75576 321.141 8.71439C321.16 8.66984 321.024 8.57756 320.84 8.50755C320.835 8.50596 320.832 8.50516 320.828 8.50437L320.921 7.67382C321.089 7.7319 321.233 7.7486 321.251 7.70803C321.269 7.66348 321.134 7.5712 320.948 7.50119C320.946 7.50039 320.943 7.4996 320.94 7.4988L321.024 6.73508C322.367 7.22672 322.905 7.4105 323.889 7.78281C324.887 8.1599 325.87 8.45345 326.722 8.66666C327.076 9.5521 327.758 11.3198 327.758 11.3198L328.299 11.5744L328.676 9.0525C328.872 9.07636 329.028 9.0875 329.143 9.08671C329.565 9.21797 329.839 9.28082 329.855 9.24184C329.871 9.20445 329.638 9.07636 329.251 8.90135C329.165 8.82815 329.03 8.73428 328.849 8.62131L330.408 6.52028L329.831 6.35163C329.831 6.35163 327.942 7.2482 327.078 7.64518C326.332 7.26332 325.457 6.8393 324.528 6.41288C323.293 5.94669 322.756 5.72633 321.631 5.2856L322.116 4.67939C322.119 4.68098 322.121 4.68178 322.124 4.68337C322.31 4.75338 322.474 4.77406 322.493 4.73031C322.51 4.68894 322.392 4.607 322.228 4.53937L322.759 3.8751C322.764 3.87669 322.766 3.87828 322.77 3.87987C322.955 3.94988 323.12 3.97056 323.139 3.92681C323.156 3.88544 323.038 3.8027 322.871 3.73508L323.137 3.40254L323.644 3.03898C323.646 3.03977 323.648 3.04057 323.65 3.04136C323.836 3.11217 324 3.13285 324.019 3.0891C324.035 3.0525 323.943 2.98329 323.807 2.92124L324.363 2.52108C324.37 2.52426 324.375 2.52665 324.382 2.52983C324.567 2.59984 324.733 2.62052 324.751 2.57677C324.767 2.53938 324.668 2.46778 324.526 2.40334L327.341 0.379476C327.519 0.442324 327.732 0.50676 327.74 0.488463C327.748 0.467779 327.605 0.394591 327.419 0.324583H327.418V0.323785C327.418 0.323785 326.639 0 326.509 0C326.457 0 325.079 0.636434 323.439 1.40095L322.836 1.17343C322.825 1.14558 322.804 1.12092 322.775 1.10978L322.24 0.907715C322.175 0.883053 322.098 0.921241 322.068 0.993635L321.862 1.48767C321.832 1.55927 321.86 1.63803 321.925 1.66269L322.453 1.86157C321.808 2.16309 321.156 2.46857 320.555 2.75099L319.933 2.51631C319.92 2.48767 319.901 2.4638 319.872 2.45266L319.337 2.2498C319.272 2.22514 319.195 2.26412 319.165 2.33651L318.958 2.82975C318.928 2.90215 318.957 2.9809 319.022 3.00557L319.557 3.20763C319.567 3.21161 319.578 3.20445 319.589 3.20525C318.892 3.53301 318.342 3.79156 318.073 3.91885C317.9 3.85362 317.722 3.78599 317.534 3.71519Z" fill="#70A812" fill-opacity="0.6"/>
<path d="M265.033 83.3899C263.134 84.3326 260.985 85.8036 261.199 86.195C261.414 86.5864 263.91 85.7503 265.809 84.8067C265.985 84.7192 266.153 84.6365 266.317 84.5546C266.594 84.6532 267.173 84.8585 267.912 85.1202C267.901 85.1226 267.89 85.1162 267.879 85.1218L267.37 85.3748C267.308 85.4058 267.288 85.4861 267.325 85.5554L267.584 86.0263C267.621 86.0955 267.702 86.1258 267.764 86.0955L268.275 85.8417C268.303 85.8274 268.32 85.8012 268.329 85.7725L268.922 85.4774C269.551 85.7001 270.232 85.9404 270.906 86.1767L270.403 86.4265C270.341 86.4575 270.321 86.5379 270.358 86.6071L270.617 87.078C270.655 87.1472 270.735 87.1775 270.798 87.1472L271.308 86.8935C271.336 86.8791 271.353 86.8529 271.362 86.8242L271.936 86.5386C273.65 87.1393 275.09 87.6373 275.142 87.6317C275.271 87.6198 276.011 87.2204 276.011 87.2204H276.012C276.189 87.1321 276.324 87.0454 276.313 87.0255C276.304 87.0088 276.099 87.0931 275.928 87.1735L272.91 85.4352C273.044 85.3573 273.135 85.2769 273.114 85.2411C273.092 85.199 272.93 85.2363 272.753 85.3238C272.746 85.327 272.741 85.331 272.735 85.3342L272.138 84.9905C272.267 84.9149 272.351 84.8378 272.331 84.8028C272.309 84.7614 272.147 84.798 271.97 84.8863C271.967 84.8871 271.965 84.8887 271.963 84.8895L271.42 84.5776L271.12 84.2721C271.278 84.1886 271.387 84.0947 271.365 84.0558C271.343 84.0136 271.181 84.051 271.003 84.1385C271 84.1401 270.998 84.1425 270.993 84.1441L270.393 83.5347C270.55 83.4519 270.657 83.3589 270.637 83.3199C270.613 83.2777 270.451 83.3143 270.275 83.4026C270.271 83.4042 270.27 83.405 270.266 83.4066L269.715 82.8473C270.983 82.2013 271.481 81.9332 272.419 81.4671C273.371 80.9937 274.247 80.4774 274.973 80.0025C275.908 80.3262 277.76 80.9889 277.76 80.9889L278.316 80.7646L276.557 78.8465C276.703 78.7208 276.815 78.6158 276.889 78.5323C277.269 78.3135 277.498 78.1576 277.477 78.121C277.458 78.0844 277.204 78.1687 276.812 78.3334C276.697 78.3477 276.534 78.3835 276.326 78.44L275.674 75.9444L275.162 76.2499C275.162 76.2499 274.641 78.1974 274.394 79.0788C273.603 79.3668 272.692 79.7208 271.747 80.1122C270.57 80.697 270.043 80.9396 268.958 81.4631L268.793 80.7177C268.795 80.7161 268.798 80.7153 268.8 80.7145C268.978 80.6262 269.102 80.5212 269.079 80.479C269.058 80.44 268.916 80.471 268.754 80.5458L268.573 79.7288C268.576 79.7264 268.58 79.7256 268.584 79.724C268.76 79.6357 268.885 79.5307 268.862 79.4885C268.841 79.4496 268.698 79.4814 268.535 79.5562L268.444 79.1472L268.485 78.545C268.488 78.5434 268.49 78.5434 268.492 78.5418C268.669 78.4543 268.794 78.3485 268.77 78.3064C268.751 78.2721 268.637 78.2936 268.499 78.3501L268.544 77.6882C268.551 77.685 268.556 77.6834 268.563 77.6803C268.739 77.592 268.864 77.4869 268.841 77.4448C268.821 77.409 268.701 77.4328 268.557 77.4933L268.785 74.1425C268.952 74.0558 269.142 73.9436 269.133 73.9269C269.122 73.9078 268.97 73.9627 268.793 74.0502L268.792 74.051C268.792 74.051 268.025 74.401 267.94 74.4949C267.907 74.5315 267.512 75.9412 267.049 77.6222L266.475 77.9078C266.444 77.8982 266.412 77.8966 266.383 77.9102L265.874 78.164C265.811 78.195 265.792 78.2753 265.829 78.3445L266.088 78.8155C266.125 78.8839 266.206 78.9149 266.268 78.8839L266.771 78.6341C266.59 79.296 266.408 79.9643 266.239 80.5824L265.645 80.8776C265.615 80.868 265.583 80.8664 265.554 80.8799L265.045 81.1337C264.983 81.1647 264.963 81.2451 265 81.3143L265.259 81.7853C265.296 81.8537 265.377 81.8847 265.439 81.8537L265.95 81.6007C265.96 81.5951 265.961 81.5832 265.969 81.5753C265.774 82.2928 265.621 82.8577 265.546 83.1345C265.381 83.2172 265.212 83.3008 265.033 83.3899Z" fill="#70A812" fill-opacity="0.6"/>
<path d="M100.319 17.8034C101.992 16.5298 103.803 14.6921 103.513 14.3476C103.224 14.0031 100.943 15.2816 99.2711 16.5552C99.1164 16.673 98.9685 16.7852 98.8248 16.8949C98.5323 16.8496 97.9222 16.7541 97.1441 16.6332C97.1541 16.6292 97.1667 16.6324 97.1759 16.626L97.6247 16.284C97.6798 16.2418 97.6823 16.1591 97.6322 16.0986L97.2828 15.6833C97.2318 15.6229 97.1466 15.6077 97.0914 15.6491L96.6427 15.9912C96.6176 16.0103 96.6067 16.0397 96.6034 16.07L96.0802 16.4677C95.4183 16.3651 94.7021 16.2545 93.9934 16.1455L94.4355 15.8082C94.4906 15.7661 94.4931 15.6833 94.443 15.6229L94.0936 15.2076C94.0427 15.1471 93.9574 15.132 93.9023 15.1734L93.4535 15.5155C93.4284 15.5346 93.4175 15.564 93.4142 15.5942L92.9077 15.9793C91.105 15.704 89.5907 15.4797 89.5414 15.494C89.4177 15.5298 88.7717 16.0572 88.7717 16.0572L88.7708 16.058C88.6154 16.1766 88.5009 16.2863 88.5151 16.3038C88.5276 16.319 88.7115 16.198 88.8628 16.0883L92.1765 17.241C92.0595 17.3412 91.9884 17.4375 92.0143 17.4685C92.0461 17.5059 92.1974 17.4399 92.3528 17.3206C92.3586 17.3166 92.3628 17.3118 92.3687 17.3078L93.0231 17.5354C92.9127 17.6324 92.8459 17.7239 92.8718 17.7549C92.9027 17.7915 93.054 17.7255 93.2094 17.607C93.2119 17.6054 93.2136 17.6038 93.2153 17.6022L93.8112 17.809L94.168 18.0533C94.0301 18.1646 93.9415 18.2768 93.9708 18.311C94.0026 18.3484 94.1538 18.2824 94.3093 18.163C94.3126 18.1606 94.3151 18.1583 94.3176 18.1559L95.0305 18.6435C94.8934 18.7541 94.8065 18.8655 94.8358 18.8997C94.8667 18.9363 95.018 18.8703 95.1734 18.7517C95.1759 18.7501 95.1784 18.7486 95.1801 18.7462L95.8353 19.1941C94.7221 20.0604 94.2875 20.4152 93.461 21.0445C92.6227 21.6833 91.8681 22.35 91.2513 22.9498C90.2676 22.8034 88.3162 22.4924 88.3162 22.4924L87.8164 22.8146L89.9308 24.3746C89.8122 24.5242 89.7244 24.6483 89.6692 24.7438C89.34 25.0278 89.1477 25.2227 89.1745 25.2553C89.2012 25.2871 89.4336 25.1583 89.7846 24.9244C89.8941 24.8902 90.047 24.8249 90.2392 24.7318L91.385 27.0604L91.8246 26.6674C91.8246 26.6674 91.9416 24.6602 92.0068 23.7501C92.7247 23.3221 93.5454 22.8082 94.3945 22.2505C95.4317 21.4606 95.8988 21.1256 96.8583 20.4136L97.1708 21.1145C97.1683 21.1161 97.1667 21.1177 97.1642 21.1193C97.0079 21.2378 96.9076 21.3643 96.9385 21.4017C96.9669 21.4359 97.0998 21.3794 97.2436 21.2768L97.587 22.0453C97.5837 22.0477 97.5804 22.0493 97.577 22.0517C97.4216 22.1702 97.3204 22.2959 97.3522 22.3333C97.3806 22.3675 97.5152 22.311 97.6589 22.2068L97.8311 22.5918L97.913 23.1901C97.9105 23.1917 97.9088 23.1933 97.9063 23.1949C97.7508 23.3134 97.6497 23.4391 97.6806 23.4765C97.7065 23.5067 97.8152 23.4653 97.9389 23.3834L98.0283 24.0413C98.0225 24.0461 98.0174 24.0493 98.0116 24.0532C97.8561 24.1718 97.755 24.2983 97.7859 24.3349C97.8127 24.3667 97.9264 24.3213 98.0551 24.2346L98.5089 27.5656C98.3634 27.6809 98.1996 27.8257 98.2122 27.8408C98.2264 27.8575 98.3643 27.7756 98.5197 27.6571L98.5214 27.6563C98.5214 27.6563 99.2025 27.1726 99.2669 27.0652C99.2928 27.0222 99.3947 25.5672 99.5084 23.8321L100.015 23.447C100.047 23.4502 100.078 23.4462 100.103 23.4272L100.551 23.0851C100.607 23.0437 100.609 22.961 100.559 22.9005L100.21 22.4852C100.159 22.4248 100.074 22.4089 100.018 22.451L99.5769 22.7883C99.6204 22.1058 99.6639 21.416 99.7031 20.7788L100.227 20.381C100.258 20.3842 100.291 20.3802 100.316 20.3611L100.765 20.019C100.82 19.9777 100.822 19.8949 100.771 19.8337L100.422 19.4192C100.372 19.3587 100.286 19.3428 100.231 19.385L99.7825 19.7271C99.7733 19.7334 99.7733 19.7462 99.7683 19.7549C99.8143 19.0159 99.8502 18.4335 99.8669 18.1471C100.013 18.0365 100.162 17.9228 100.319 17.8034Z" fill="#70A812" fill-opacity="0.6"/>
<path d="M74.01 18.2063C72.2215 14.5706 68.3453 12.0511 63.8499 12.0511C62.6966 12.0511 61.5834 12.2174 60.5354 12.5261C58.4652 9.15378 54.6242 6.88647 50.2248 6.88647C45.2271 6.88647 40.949 9.81169 39.1705 13.9605C37.9537 12.9851 36.385 12.3956 34.67 12.3956C31.1098 12.3956 28.178 14.9302 27.7393 18.2063H74.01Z" fill="#DEEDF5"/>
<path d="M31.0678 36.044C29.052 34.5627 26.5281 33.6772 23.7843 33.6772C22.2248 33.6772 20.738 33.9644 19.3724 34.4823C17.3475 31.7075 13.9769 29.8896 10.1593 29.8896C5.66297 29.8896 1.78765 32.4083 0 36.044H31.0678Z" fill="#DEEDF5"/>
<path d="M38.1152 68.1306C37.4926 65.0972 34.7363 62.7949 31.3942 62.6875C29.8957 61.2762 27.8365 60.4043 25.5624 60.4043C22.537 60.4043 19.8902 61.9484 18.4427 64.2531C17.6672 63.7869 16.7512 63.5133 15.7659 63.5133C13.7918 63.5133 12.0886 64.5992 11.2671 66.1752C10.7497 65.9278 10.1672 65.7846 9.54795 65.7846C7.91492 65.7846 6.52341 66.7599 5.97266 68.1306H38.1152Z" fill="#DEEDF5"/>
<path d="M423 42.4044C421.548 39.453 418.402 37.4076 414.753 37.4076C413.816 37.4076 412.912 37.5428 412.063 37.7934C410.381 35.0552 407.263 33.2151 403.692 33.2151C399.634 33.2151 396.161 35.5898 394.718 38.9581C393.73 38.1666 392.456 37.6876 391.064 37.6876C388.174 37.6876 385.793 39.7449 385.438 42.4044H423Z" fill="#DEEDF5"/>
<path d="M420.523 72.639C418.507 71.1577 415.983 70.2715 413.239 70.2715C411.68 70.2715 410.193 70.5595 408.828 71.0766C406.802 68.3017 403.432 66.4839 399.614 66.4839C395.118 66.4839 391.243 69.0034 389.455 72.639H420.523Z" fill="#DEEDF5"/>
<path d="M400.311 17.5061C399.461 13.3645 395.697 10.2213 391.134 10.0749C389.089 8.14808 386.278 6.95715 383.173 6.95715C379.041 6.95715 375.428 9.06534 373.452 12.2125C372.394 11.5753 371.142 11.2014 369.797 11.2014C367.102 11.2014 364.777 12.6843 363.655 14.837C362.949 14.4981 362.153 14.3032 361.308 14.3032C359.078 14.3032 357.179 15.6342 356.427 17.5061H400.311Z" fill="#DEEDF5"/>
</svg>
