<svg width="31" height="38" viewBox="0 0 31 38" fill="none" xmlns="http://www.w3.org/2000/svg">
<path d="M23.4551 8.85874C23.7598 8.95695 24.0704 9.0036 24.3773 9.0036C25.5804 9.0036 26.7241 8.28497 27.2051 7.1263L27.9571 5.31551C28.2829 4.5311 28.2654 3.63901 27.9092 2.8679C27.553 2.09679 26.8848 1.50498 26.0762 1.24442L25.7706 1.14621C24.9625 0.885833 24.0744 0.976026 23.335 1.39438C22.5956 1.81255 22.0607 2.52681 21.8673 3.35403L21.4213 5.26322C21.0627 6.7965 21.9561 8.37589 23.4551 8.85874ZM22.1479 5.43304L22.594 3.52385C22.7423 2.88995 23.1359 2.36446 23.7025 2.04395C24.2688 1.72326 24.9221 1.65658 25.5419 1.85664L25.8475 1.95485C26.4672 2.15455 26.9586 2.58985 27.2317 3.18093C27.5047 3.77184 27.5176 4.42834 27.268 5.02926L26.516 6.84005C26.06 7.93841 24.8157 8.51218 23.684 8.14849C22.5519 7.78371 21.8772 6.59097 22.1479 5.43304ZM1.71358 32.7037L2.35134 33.0103C2.36744 33.0217 2.37951 33.0369 2.39778 33.0459C2.41495 33.0543 2.43326 33.0526 2.45094 33.0582L5.61948 34.5816C5.35209 34.8325 5.18248 35.1862 5.18248 35.5809C5.18248 36.3387 5.79907 36.9553 6.55688 36.9553C7.31468 36.9553 7.9311 36.3387 7.9311 35.5809C7.9311 34.9954 7.56142 34.4979 7.04449 34.3003L12.3028 24.2488L12.5003 23.8711L13.5386 21.8864C14.1711 21.8083 14.7458 21.4067 15.003 20.788L16.9455 16.1176L18.2396 15.3056L17.2177 20.6298C17.0908 21.2911 17.2263 21.973 17.5756 22.5371L15.9106 27.301L10.5926 31.2761C9.87235 31.8143 9.6885 32.829 10.1743 33.5858C10.5012 34.095 11.0609 34.3751 11.6305 34.3751C11.9377 34.3751 12.2478 34.2936 12.5259 34.1227L18.7153 30.3173C18.9055 30.2001 19.0662 30.0476 19.1929 29.8647L21.3713 26.7174L21.8305 27.2137C21.9603 27.3538 22.0166 27.5497 21.981 27.7374L20.6418 34.7987C20.543 35.3191 20.6595 35.8422 20.9696 36.2717C21.2797 36.701 21.7396 36.9761 22.2647 37.0461C22.3434 37.0566 22.4214 37.0617 22.4987 37.0617C23.2984 37.0617 23.9968 36.5133 24.1741 35.7099L26.2347 26.3719C26.2992 26.0795 26.2414 25.7683 26.0762 25.5185L23.9918 22.3666C24.0111 22.3324 24.0269 22.2956 24.0349 22.2549L24.4226 20.2693L27.6831 20.8794C27.8022 20.9018 27.921 20.9126 28.038 20.9126C28.9084 20.9126 29.6845 20.3157 29.8863 19.4361C30.0041 18.924 29.9093 18.4007 29.62 17.9623C29.3304 17.5239 28.8864 17.2314 28.3693 17.1385L25.147 16.5595L25.8453 12.983C26.1369 11.4902 25.1648 10.013 23.6785 9.69034L21.447 9.20585C20.164 8.92744 18.806 9.27527 17.8146 10.1368L13.6258 13.7789C13.3352 14.0317 13.1239 14.3604 13.0145 14.7297L11.5818 19.5743C11.3029 20.5172 11.8109 21.4908 12.7377 21.8072L11.906 23.397L7.50983 21.2938C6.88558 20.9842 6.11903 21.2369 5.80144 21.8579L1.14108 30.974C0.984384 31.2803 0.957235 31.6288 1.06456 31.9557C1.17206 32.2826 1.40073 32.5473 1.71358 32.7037ZM18.579 29.44C18.5114 29.5378 18.4256 29.6192 18.3239 29.6817L12.1348 33.4868C11.6851 33.7634 11.087 33.6267 10.8023 33.1827C10.527 32.7538 10.6312 32.1789 11.0394 31.8737L16.4486 27.8305C16.5082 27.786 16.553 27.7248 16.5774 27.6549L18.1296 23.2138L20.852 26.1562L18.579 29.44ZM28.2374 17.8732C28.5515 17.9295 28.8213 18.1073 28.9972 18.3735C29.173 18.6399 29.2304 18.9578 29.159 19.2691C29.0199 19.8751 28.4318 20.2597 27.8205 20.1458L24.5656 19.5368L25.0039 17.2922L28.2374 17.8732ZM12.2975 19.786L13.7303 14.9414C13.7991 14.7087 13.9323 14.5014 14.1156 14.3421L18.3044 10.7001C19.1185 9.99226 20.234 9.70638 21.2885 9.93505L23.52 10.4195C24.6127 10.657 25.3271 11.7426 25.1128 12.84L23.7606 19.7655L23.7605 19.766L23.4212 21.5038L22.2977 19.8049C22.184 19.6333 21.9528 19.5857 21.7806 19.6996C21.6088 19.8133 21.5616 20.0447 21.6753 20.2167L25.4538 25.9302C25.508 26.0124 25.5272 26.1148 25.5059 26.211L23.4453 35.5492C23.3352 36.0483 22.8698 36.3759 22.3633 36.3063C22.0435 36.2637 21.7635 36.0962 21.5747 35.8348C21.3858 35.5733 21.3149 35.2548 21.375 34.9379L22.7142 27.8764C22.7937 27.4573 22.6681 27.02 22.3784 26.7068L18.4269 22.4362C18.0142 21.9902 17.8361 21.3674 17.9506 20.7705L19.0835 14.8676C19.0895 14.8366 19.0844 14.8069 19.0827 14.7767L21.85 13.0404C22.0248 12.9309 22.0774 12.7006 21.9679 12.5261C21.8582 12.3513 21.6277 12.2983 21.4535 12.4082L16.4483 15.5485C16.3827 15.5897 16.3316 15.65 16.3019 15.7215L14.3139 20.5012C14.1009 21.0126 13.5218 21.2794 12.9943 21.1088C12.4377 20.9283 12.1316 20.3472 12.2975 19.786ZM7.18477 35.5809C7.18477 35.9273 6.90307 36.209 6.55688 36.209C6.2105 36.209 5.9288 35.9273 5.9288 35.5809C5.9288 35.2347 6.2105 34.953 6.55688 34.953C6.90307 34.953 7.18477 35.2347 7.18477 35.5809ZM8.02792 22.3689L11.56 24.0588L6.31363 34.0872L3.06687 32.5263L8.02792 22.3689ZM1.8056 31.3136L6.46595 22.1977C6.55961 22.0146 6.7471 21.9082 6.94243 21.9082C7.02333 21.9082 7.10551 21.9262 7.18295 21.9647L7.35468 22.0468L2.39427 32.2029L2.04192 32.0335C1.91365 31.9694 1.81835 31.8591 1.77371 31.7228C1.72889 31.5866 1.74019 31.4413 1.8056 31.3136Z" fill="#333333" stroke="#333333" stroke-width="0.5"/>
</svg>
