<svg width="374" height="283" viewBox="0 0 374 283" fill="none" xmlns="http://www.w3.org/2000/svg">
<path d="M374 0H0V283H374V0Z" fill="white"/>
<path d="M288.05 141.515C288.05 207.118 235.259 260.299 170.137 260.299C105.015 260.299 52.2236 207.118 52.2236 141.515C52.2236 75.9115 105.015 22.7305 170.137 22.7305C235.259 22.7305 288.05 75.9115 288.05 141.515Z" fill="#F1F1F1"/>
<path d="M109.444 41.1593C109.444 41.1593 134.42 28.1131 144.331 27.3145V29.9103C144.331 29.9103 130.918 36.4998 129.729 39.6282C129.729 39.6282 128.342 47.2828 129.2 48.6141C130.059 49.9453 131.645 51.9422 131.645 51.9422C131.645 51.9422 133.165 49.3463 133.958 48.8802C134.75 48.4145 137.261 47.6822 138.12 48.1481C138.979 48.6141 140.301 48.5476 141.16 47.7488C142.018 46.9501 152.855 46.5506 153.582 48.2147V54.1386H149.485C149.485 54.1386 145.521 51.6094 144.793 51.9422C144.067 52.2751 142.746 53.2068 144.266 54.1386C145.785 55.0705 148.23 57.4004 148.891 57.6665C149.551 57.9325 151.005 57.5333 151.533 58.0657C152.062 58.5981 154.573 70.0469 153.582 71.4447C152.59 72.8424 151.468 74.1072 150.806 74.7064C150.145 75.3053 148.23 75.8378 147.502 74.7064C146.775 73.5745 144.463 71.378 143.538 71.1785C142.613 70.9786 143.209 66.9853 146.644 67.6505L146.313 61.1275C146.313 61.1275 142.284 61.4607 141.556 58.1323L132.306 57.9992C132.306 57.9992 136.138 61.3272 142.415 62.4589L142.811 65.8535C142.811 65.8535 137.592 65.9865 140.169 71.5112L134.618 71.7109C134.618 71.7109 134.552 69.7808 133.165 69.6475C131.777 69.5145 127.284 69.6475 127.284 69.6475C127.284 69.6475 122.923 73.9073 122.725 76.0375C122.527 78.1673 123.254 79.6983 124.179 80.2307C125.104 80.7633 127.549 81.8949 127.549 83.0264C127.549 84.1579 126.425 84.6237 126.293 86.0218C126.161 87.4194 126.557 90.4813 129.399 88.7506L129.795 85.2896L134.552 84.2245C134.552 84.2245 134.354 74.4398 139.772 74.3733C145.191 74.3067 142.415 77.5018 143.538 78.5669C144.661 79.6319 146.248 80.8298 148.758 80.4304C148.758 80.4304 146.248 88.8838 155.101 91.2136V98.8679C155.101 98.8679 157.876 100.732 157.018 103.394C156.158 106.057 155.63 107.787 154.243 107.321C152.855 106.855 148.758 105.192 148.626 102.928C148.494 100.665 148.692 98.6682 148.692 98.6682C148.692 98.6682 143.209 97.7366 143.142 99.7999C143.077 101.864 143.341 105.524 143.341 105.524C143.341 105.524 146.446 104.859 146.842 105.591C147.238 106.323 142.217 113.911 136.997 111.381L136.667 109.252L132.9 109.518C132.9 109.518 132.769 113.711 131.711 113.977C130.654 114.244 127.813 113.844 126.491 114.31C125.17 114.776 124.707 116.573 124.113 117.239C123.518 117.904 121.205 117.372 120.413 118.77C119.62 120.168 120.082 124.161 120.082 124.161C120.082 124.161 117.77 124.161 116.712 124.761C115.655 125.36 111.823 127.09 110.37 126.624C110.37 126.624 107.132 137.607 107.726 140.203C107.726 140.203 105.216 139.87 104.423 137.806C103.63 135.743 102.309 128.954 100.326 127.955C98.3441 126.957 96.5602 128.421 95.7011 127.889C94.8421 127.356 93.1242 122.297 89.0937 124.161C85.0632 126.025 84.9973 126.158 85.1952 128.954C85.3935 131.749 83.4774 131.15 83.2135 133.414C82.9491 135.677 82.817 140.363 84.4025 141.514C85.9883 142.665 87.3758 141.135 89.0277 139.936C90.6793 138.738 95.8333 139.004 95.569 142.333C95.3047 145.661 91.8028 146.726 91.7368 148.456C91.6707 150.187 90.4153 152.65 93.3886 152.849C96.3618 153.049 99.9959 153.648 100.326 155.644C100.657 157.643 96.8905 155.912 97.3529 159.705C97.8153 163.5 98.8726 165.429 102.375 167.36C105.877 169.29 107.925 168.225 108.916 167.36C109.907 166.494 119.223 167.293 119.223 167.293C119.223 167.293 119.422 169.223 120.479 169.223H124.972C124.972 169.223 125.5 171.82 128.077 172.419C130.654 173.017 137.592 173.683 144.331 183.268L153.383 184.533L157.183 192.586L159.66 193.119L161.907 196.514L166.466 197.047L169.119 199.376L181.795 199.775C181.795 199.775 183.117 204.235 188.733 204.901V210.825C188.733 210.825 182.059 215.685 179.482 222.074C176.905 228.464 175.187 233.189 171.487 233.655C167.787 234.121 163.625 233.655 163.625 233.655C163.625 233.655 158.537 243.173 153.184 243.972H148.362L147.899 246.234H140.631L138.979 252.026C138.979 252.026 132.24 253.624 129.399 246.502L125.104 244.505C125.104 244.505 123.452 239.38 123.65 236.118C123.848 232.856 121.734 219.81 121.734 219.81C121.734 219.81 109.378 215.017 107.132 210.758C107.132 210.758 107.396 207.363 104.489 205.432C104.489 205.432 105.084 203.037 104.092 202.105C103.102 201.173 99.7978 198.177 99.7978 198.177L99.7315 184.599C99.7315 184.599 99.2029 181.204 104.357 180.338C104.357 180.338 106.736 174.814 103.564 171.685C103.564 171.685 98.7404 171.62 96.2296 168.158C93.719 164.698 91.8028 162.967 91.8028 162.967L91.9349 159.039L88.8953 156.378L86.0546 155.379L85.2616 148.123L80.9006 147.392L71.1879 131.816C71.1879 131.816 73.1699 131.084 74.029 130.418C74.8878 129.753 73.9629 115.908 73.9629 115.908L71.1879 120.7C71.1879 120.7 68.5448 112.912 71.9145 102.529C75.2845 92.1452 76.0773 84.5574 85.5258 76.3038C94.9742 68.05 106.339 57.001 107.793 54.2716C109.246 51.5428 109.775 43.2225 109.444 41.1593Z" fill="#E9E9E9"/>
<path d="M159.926 49.6805C159.926 49.6805 165.74 45.5094 167.678 45.1544C169.616 44.7992 177.193 44.7109 177.898 46.4856C178.601 48.2604 177.898 49.9467 177.898 49.9467C177.898 49.9467 184.328 53.6737 183.271 63.7026L179.658 65.5664L177.281 70.9803H173.051C173.051 70.9803 173.04 78.2577 170.138 79.2337C167.237 80.2096 166.356 79.2337 166.356 79.2337L163.89 75.4175V71.2467C163.89 71.2467 161.246 70.0036 161.51 67.4301C161.776 64.8565 163.538 64.1468 163.538 64.1468C163.538 64.1468 163.802 59.3543 162.479 57.668C161.159 55.9816 158.691 52.4321 158.691 52.4321C158.691 52.4321 158.52 50.6576 159.926 49.6805Z" fill="#E9E9E9"/>
<path d="M186.618 70.5374L187.146 66.4546C187.146 66.4546 188.82 65.3892 190.846 66.0998C192.872 66.8099 194.9 69.1177 194.283 70.5374C193.665 71.9569 191.024 73.6435 189.789 73.6435C188.556 73.6435 186.618 70.5374 186.618 70.5374Z" fill="#E9E9E9"/>
<path d="M180.451 27.3146L207.233 37.9644L212.519 43.112L213.224 48.0818H205.296L204.414 54.4716L209.876 59.0866C209.876 59.0866 209.7 62.5479 211.902 63.8793C214.106 65.2103 212.255 69.7478 212.255 69.7478L220.977 71.8665C220.977 71.8665 220.889 77.369 221.593 76.9252C222.298 76.4817 223.091 77.5466 223.091 77.5466V87.3087C223.091 87.3087 214.369 76.3039 210.405 75.3278L207.41 75.5939C207.41 75.5939 208.819 88.3742 211.11 89.8827H214.987C214.987 89.8827 214.281 84.6469 212.785 83.4929C212.785 83.4929 217.365 83.8482 218.863 89.8827C218.863 89.8827 227.408 93.7871 226.35 98.2249C225.293 102.663 219.832 101.864 218.07 101.331C218.07 101.331 215.784 110.916 226.441 113.223H230.315L233.487 108.431V102.219L237.804 95.1189L239.918 96.0956V99.7341L241.68 102.13L243.706 96.7163C243.706 96.7163 245.732 96.7163 246.965 96.1838V102.308C246.965 102.308 248.198 104.082 248.993 104.171C249.784 104.26 251.019 102.485 251.019 102.485L251.459 95.7401L253.133 95.6513L253.573 97.3376L255.688 97.4267L256.745 93.7877C256.745 93.7877 261.327 91.8351 262.12 88.4626L263.175 88.6404L263.704 90.6815L265.113 92.9004L265.994 99.2016L264.056 102.308H260.533C260.533 102.308 258.021 105.428 259.935 109.531C259.984 109.638 260.037 109.744 260.092 109.851C262.296 114.111 249.697 110.473 249.697 110.473C249.697 110.473 248.112 105.326 246.172 104.615C246.172 104.615 242.385 104.083 240.535 109.851C240.535 109.851 235.601 112.958 234.192 116.33H230.14L228.905 123.075L228.201 131.594C228.201 131.594 222.827 136.006 222.034 139.747C222.034 139.747 220.36 148.368 225.117 154.402C225.117 154.402 221.593 162.302 224.413 167.095C224.413 167.095 230.228 169.845 233.575 175.436C233.575 175.436 245.556 177.656 247.758 174.637L253.749 166.827L262.03 166.03C262.03 166.03 262.911 173.395 268.55 179.608L267.669 185.377L264.41 187.239L264.144 193.718L261.061 194.606L260.709 200.907C260.709 200.907 258.154 208.451 259.123 211.911C260.092 215.373 260.004 215.639 262.384 212.976C264.762 210.314 275.95 191.234 277.095 187.506C278.24 183.779 284.672 165.764 285.553 155.201C286.434 144.64 284.848 125.471 284.232 120.412C283.615 115.354 277.537 95.4735 271.721 85.9773C265.906 76.4817 257.185 63.7024 250.841 58.1996C244.499 52.6968 233.399 42.9352 223.532 38.32C213.664 33.7049 188.645 23.6756 180.451 27.3146Z" fill="#E9E9E9"/>
<path d="M101.118 139.746L109.576 148.589V154.18C109.576 154.18 129.133 159.638 133.098 156.31C133.098 156.31 131.121 152.449 129.467 151.783C127.812 151.118 122.526 152.715 119.751 150.851C116.976 148.989 111.954 143.326 109.443 142.23C106.933 141.134 101.118 139.746 101.118 139.746Z" fill="#E9E9E9"/>
<path d="M319.585 158.21V132.68C319.585 132.68 319.636 131.904 319.842 131.233C320.046 130.561 321.38 128.183 317.944 127.563C314.506 126.943 306.247 125.496 302.297 126.53C302.297 126.53 300.142 127.098 299.834 127.77C299.834 127.77 300.348 129.424 300.45 131.181C300.552 132.938 300.501 158.21 300.501 158.21L303.272 157.9L303.221 131.439C303.221 131.439 303.529 131.181 303.529 130.923C303.529 130.664 303.631 129.269 304.195 129.269C304.759 129.269 310.244 130.594 315.225 130.354C315.225 130.354 316.61 130.096 316.867 131.388L316.816 132.576L317.02 132.886L316.816 158.21H319.585Z" fill="#A8A8A8"/>
<path d="M326.949 158.159H322.845C322.845 158.159 322.384 156.763 317.047 156.608C317.047 156.608 310.583 155.988 310.481 157.745H306.018C306.018 157.745 306.941 156.867 309.609 156.247C312.276 155.627 315.612 154.386 321.203 155.885C321.203 155.885 325.204 157.332 326.949 158.159Z" fill="#A8A8A8"/>
<path d="M297.452 158.416L290.27 158.933C290.27 158.933 284.012 159.139 283.857 165.548V170.924C283.857 170.924 284.267 171.906 283.857 172.629V178.159C283.857 178.159 284.32 178.934 283.857 179.554L283.601 185.342C283.601 185.342 284.165 186.014 283.601 186.789V192.422C283.601 192.422 284.216 192.835 283.601 193.921V199.554C283.601 199.554 284.114 200.38 283.601 200.743V206.53C283.601 206.53 284.267 207.202 283.601 207.822V213.508C283.601 213.508 284.165 214.231 283.601 214.852V220.484C283.601 220.484 284.32 221.311 283.601 221.931L283.857 227.668C283.857 227.668 284.32 228.701 283.601 229.166V234.49C283.601 234.49 284.32 235.162 283.908 235.937L283.961 241.622C283.961 241.622 284.524 242.241 284.063 242.914L284.08 249.236C284.08 249.236 284.182 249.425 284.558 249.512C284.936 249.598 288.372 250.372 288.372 250.372C288.372 250.372 288.852 250.528 289.022 250.89C289.194 251.251 289.723 253.147 290.339 254.111C290.954 255.075 293.331 257.59 296.427 257.212C296.427 257.212 293.554 255.162 293.263 252.957C292.972 250.751 293.04 244.654 293.04 244.654L293.092 235.954L293.161 227.099L293.212 217.676L293.178 210.114L293.092 201.845V192.197L292.904 181.948L292.819 172.422L292.87 164.463C292.87 164.463 292.955 162.654 293.554 161.965C294.152 161.276 295.845 159.415 295.845 159.415C295.845 159.415 297.111 158.486 297.452 158.416Z" fill="#DADADA"/>
<path d="M359.705 247.695L352.9 249.099C352.9 249.099 351.771 249.34 351.976 251.753C351.976 251.753 350.643 255.679 347.838 255.405C347.838 255.405 347.462 260.469 352.42 258.918C352.42 258.918 353.926 260.916 356.114 259.677C358.303 258.436 358.679 255.405 357.415 253.2L357.687 252.682L357.415 251.959L357.687 251.097C357.687 251.097 357.735 250.913 358.094 250.861C358.453 250.81 359.107 250.705 359.324 250.021C359.543 249.336 359.705 247.695 359.705 247.695Z" fill="#A8A8A8"/>
<path d="M337.852 158.591C337.852 158.591 312.611 157.488 308.781 157.558C304.951 157.626 302.146 157.555 302.146 157.555C302.146 157.555 294.985 157.419 295.121 166.378C295.259 175.335 295.12 188.186 295.12 188.186V250.306C295.12 250.306 295.306 257.128 301.12 258.093C301.12 258.093 303.855 258.575 306.25 258.575H317.331L347.497 255.543C347.497 255.543 351.36 255.68 352.216 251.512C352.216 251.512 352.216 249.307 353.481 249.168C354.747 249.031 359.706 247.964 359.706 247.964C359.706 247.964 360.321 242.106 359.877 241.452C359.877 241.452 359.789 241.039 360.038 240.487V234.906C360.038 234.906 359.672 234.424 359.808 234.217C359.945 234.009 360.038 233.699 360.038 233.699V227.773C360.038 227.773 359.721 227.326 360.038 226.877L360.219 220.848C360.219 220.848 359.808 220.435 360.219 219.849L360.389 214.026C360.389 214.026 359.843 213.476 360.389 212.717V207.274C360.389 207.274 359.911 206.654 360.389 206.068V200.142C360.389 200.142 359.843 199.693 360.389 199.005V193.389C360.389 193.389 359.774 192.734 360.389 192.114V186.395C360.389 186.395 359.877 186.119 360.219 185.155L360.151 179.539C360.151 179.539 359.671 178.711 360.185 178.264L360.116 172.51C360.116 172.51 359.603 171.994 360.116 171.235L359.911 165.103C359.911 165.103 358.646 159.349 354.507 159.143C350.37 158.936 337.852 158.591 337.852 158.591Z" fill="#DADADA"/>
<path d="M312.276 157.555C312.276 157.555 304.428 158.068 304.12 167.836C303.812 177.602 304.12 252.794 304.12 252.794C304.12 252.794 305.973 253.149 306.793 253.096C307.615 253.046 308.13 253.102 308.13 253.102V166.441C308.13 166.441 307.813 159.986 312.276 157.555Z" fill="#A8A8A8"/>
<path d="M317.52 255.524C317.52 255.524 318.803 252.785 316.391 252.732C313.98 252.681 306.234 253.301 304.849 253.094C303.464 252.888 298.898 252.268 298.898 252.268C298.898 252.268 297.41 254.542 299.565 255.213L303.925 255.524C303.925 255.524 305.516 256.195 305.259 256.97C305.002 257.746 303.515 261.777 305.977 263.379C305.977 263.379 307.259 264.309 308.542 263.895L309.414 263.689C309.414 263.689 310.646 264.93 311.98 264.93C313.313 264.93 315.93 263.327 315.775 260.072C315.622 256.816 313.518 256.144 311.313 256.403L311.056 255.937L317.52 255.524Z" fill="#A8A8A8"/>
<path d="M301.166 157.643L297.062 158.417C297.062 158.417 292.547 159.709 292.394 164.619C292.239 169.529 292.394 182.449 292.394 182.449L292.65 206.583L292.547 231.649L292.326 248.393C292.326 248.393 291.778 255.422 295.934 257.127C295.934 257.127 297.779 257.85 298.395 257.825C298.395 257.825 300.011 258.263 301.166 258.135C301.166 258.135 297.96 257.437 296.934 255.189C295.908 252.941 295.857 251.674 295.857 251.184C295.857 250.692 296.036 234.982 296.036 234.982L296.216 217.566L296.242 199.375L296.112 183.947L295.805 169.297C295.805 169.297 295.369 164.18 296.216 162.345C297.062 160.511 298.319 158.34 301.166 157.643Z" fill="#A8A8A8"/>
<path d="M289.184 250.552L284.319 249.307C284.319 249.307 284.353 251.891 285.549 252.235L286.299 252.438C286.299 252.438 286.195 253.264 286.721 253.677C286.721 253.677 286.543 254.208 286.94 254.466C286.94 254.466 284.324 260.022 290.71 260.099C290.71 260.099 295.468 262.881 296.734 257.299C296.734 257.299 294.929 257.244 293.634 256.688C292.338 256.133 290.839 255.448 289.594 251.818L289.184 250.552Z" fill="#A8A8A8"/>
<path d="M359.985 178.791H296.118V178.894H359.985V178.791Z" fill="white"/>
<path d="M359.985 172.072L359.987 171.968L309.663 171.039L296.117 171.504L296.12 171.606L309.663 171.142L359.985 172.072Z" fill="white"/>
<path d="M309.953 185.869L309.929 185.831C309.931 185.852 309.946 185.867 309.953 185.869ZM303.041 185.928C299.617 185.909 296.153 185.872 296.117 185.871L296.119 185.768C300.67 185.818 309.257 185.884 309.922 185.791C309.952 185.746 310.169 185.736 312.123 185.722C313.421 185.712 315.328 185.706 317.792 185.702C321.941 185.696 327.727 185.699 334.986 185.709C347.344 185.729 359.86 185.768 359.985 185.768V185.871C359.496 185.869 311.516 185.724 310.014 185.861C309.939 185.905 309.495 185.941 306.672 185.941C305.742 185.941 304.556 185.937 303.041 185.928Z" fill="white"/>
<path d="M296.733 193.618H310.584L359.986 192.691L359.983 192.588L310.582 193.516H296.733V193.618Z" fill="white"/>
<path d="M296.733 200.908H311.045L359.986 199.667L359.983 199.564L311.045 200.804H296.733V200.908Z" fill="white"/>
<path d="M296.707 208.114H311.148L359.962 206.531L359.959 206.428L311.146 208.011H296.707V208.114Z" fill="white"/>
<path d="M296.707 216.039H311.59L360.117 213.765L360.113 213.662L311.588 215.936H296.707V216.039Z" fill="white"/>
<path d="M306.195 237.942C308.098 237.942 309.917 237.852 309.944 237.851L359.707 234.439L359.7 234.336L309.938 237.748C309.898 237.749 305.811 237.951 303.483 237.748C301.15 237.543 296.756 237.029 296.712 237.024L296.699 237.126C296.745 237.132 301.14 237.646 303.473 237.851C304.256 237.919 305.236 237.942 306.195 237.942Z" fill="white"/>
<path d="M306.825 245.739C309.03 245.739 310.944 245.605 310.973 245.602L359.71 241.261L359.7 241.158L310.964 245.499C310.923 245.503 306.624 245.806 303.484 245.499C300.341 245.193 296.041 244.474 295.997 244.467L295.981 244.568C296.024 244.576 300.329 245.296 303.474 245.602C304.53 245.706 305.715 245.739 306.825 245.739Z" fill="white"/>
<path d="M305.591 230.716C307.918 230.716 309.766 230.515 309.795 230.51L359.709 227.359L359.701 227.256L309.786 230.407C309.742 230.413 305.591 230.866 301.895 230.409C298.192 229.949 296.269 229.739 296.251 229.736L296.239 229.839C296.259 229.841 298.18 230.052 301.882 230.51C303.125 230.665 304.419 230.716 305.591 230.716Z" fill="white"/>
<path d="M304.425 223.287C306.568 223.287 308.481 223.174 308.509 223.173L360.066 220.486L360.062 220.383L308.504 223.07C308.46 223.073 304.163 223.324 301.227 223.07C298.284 222.814 296.268 222.708 296.248 222.708L296.242 222.811C296.262 222.813 298.277 222.917 301.217 223.173C302.204 223.259 303.343 223.287 304.425 223.287Z" fill="white"/>
<path d="M291.963 171.701H284.233V171.804H291.963V171.701Z" fill="white"/>
<path d="M291.963 179.004H284.233V179.108H291.963V179.004Z" fill="white"/>
<path d="M291.962 186.102H283.96V186.204H291.962V186.102Z" fill="white"/>
<path d="M291.962 193.197H283.96V193.3H291.962V193.197Z" fill="white"/>
<path d="M291.962 200.156H283.96V200.259H291.962V200.156Z" fill="white"/>
<path d="M291.962 207.84L291.966 207.737L283.962 207.393L283.958 207.495L291.962 207.84Z" fill="white"/>
<path d="M291.957 215.283L291.968 215.18L283.966 214.215L283.953 214.318L291.957 215.283Z" fill="white"/>
<path d="M291.957 222.175L291.968 222.072L283.966 221.107L283.953 221.21L291.957 222.175Z" fill="white"/>
<path d="M291.957 229.271L291.968 229.17L283.966 228.205L283.953 228.307L291.957 229.271Z" fill="white"/>
<path d="M291.959 236.161L291.969 236.06L283.965 235.232L283.955 235.335L291.959 236.161Z" fill="white"/>
<path d="M291.954 243.948L291.972 243.847L284.379 242.469L284.36 242.57L291.954 243.948Z" fill="white"/>
<path d="M289.71 200.537C289.71 200.537 290.377 200.227 290.222 198.47C290.069 196.712 290.246 192.579 290.246 192.579C290.246 192.579 289.659 190.098 288.274 190.408C286.888 190.718 286.939 191.7 286.837 193.302C286.734 194.904 286.529 198.522 286.221 200.847C285.913 203.173 285.76 210.511 286.221 213.456C286.683 216.402 287.093 220.537 286.991 221.726C286.888 222.914 286.631 224.516 288.325 225.137C288.325 225.137 289.837 225.421 290.094 223.637C290.094 223.637 290.428 223.121 290.402 221.726C290.377 220.33 290.404 215.73 290.404 215.73C290.404 215.73 290.222 214.568 289.659 214.491C289.659 214.491 288.402 209.141 289.068 202.888C289.068 202.888 289.196 200.614 289.71 200.537Z" fill="#A8A8A8"/>
<path d="M266.004 183.376V161.926C266.004 161.926 265.962 161.275 265.789 160.711C265.617 160.146 264.496 158.148 267.383 157.628C270.272 157.106 277.211 155.891 280.531 156.759C280.531 156.759 282.34 157.236 282.6 157.801C282.6 157.801 282.169 159.19 282.082 160.666C281.996 162.143 282.04 183.376 282.04 183.376L279.711 183.116L279.755 160.884C279.755 160.884 279.496 160.666 279.496 160.451C279.496 160.233 279.411 159.06 278.935 159.06C278.461 159.06 273.853 160.173 269.669 159.972C269.669 159.972 268.504 159.754 268.289 160.841L268.333 161.84L268.159 162.1L268.333 183.376H266.004Z" fill="#A8A8A8"/>
<path d="M259.817 183.331H263.265C263.265 183.331 263.654 182.159 268.136 182.029C268.136 182.029 273.567 181.507 273.654 182.983H277.404C277.404 182.983 276.628 182.246 274.387 181.724C272.145 181.202 269.343 180.161 264.644 181.42C264.644 181.42 261.283 182.636 259.817 183.331Z" fill="#A8A8A8"/>
<path d="M284.602 183.551L290.636 183.985C290.636 183.985 295.894 184.158 296.023 189.542V194.059C296.023 194.059 295.678 194.884 296.023 195.493V200.138C296.023 200.138 295.636 200.789 296.023 201.311L296.239 206.174C296.239 206.174 295.765 206.738 296.239 207.39V212.122C296.239 212.122 295.722 212.47 296.239 213.382V218.115C296.239 218.115 295.809 218.81 296.239 219.114V223.977C296.239 223.977 295.678 224.541 296.239 225.063V229.84C296.239 229.84 295.765 230.447 296.239 230.969V235.701C296.239 235.701 295.636 236.396 296.239 236.918L296.023 241.737C296.023 241.737 295.636 242.605 296.239 242.997V247.469C296.239 247.469 295.636 248.033 295.98 248.685L295.936 253.462C295.936 253.462 295.463 253.982 295.851 254.547L295.837 259.859C295.837 259.859 295.751 260.018 295.434 260.091C295.118 260.162 292.231 260.814 292.231 260.814C292.231 260.814 291.828 260.944 291.684 261.249C291.541 261.552 291.095 263.145 290.578 263.956C290.061 264.766 288.063 266.879 285.463 266.56C285.463 266.56 287.878 264.838 288.122 262.985C288.366 261.133 288.308 256.009 288.308 256.009L288.265 248.699L288.208 241.26L288.164 233.342L288.193 226.987L288.265 220.041V211.935L288.422 203.322L288.495 195.318L288.451 188.63C288.451 188.63 288.38 187.111 287.878 186.532C287.374 185.953 285.951 184.39 285.951 184.39C285.951 184.39 284.888 183.608 284.602 183.551Z" fill="#A8A8A8"/>
<path d="M232.295 258.561L238.013 259.741C238.013 259.741 238.961 259.943 238.789 261.969C238.789 261.969 239.91 265.27 242.266 265.038C242.266 265.038 242.581 269.293 238.416 267.991C238.416 267.991 237.15 269.67 235.311 268.628C233.473 267.585 233.156 265.038 234.22 263.186L233.99 262.751L234.22 262.144L233.99 261.419C233.99 261.419 233.951 261.263 233.648 261.22C233.346 261.178 232.797 261.09 232.614 260.514C232.431 259.94 232.295 258.561 232.295 258.561Z" fill="#A8A8A8"/>
<path d="M250.657 183.695C250.657 183.695 271.864 182.769 275.083 182.827C278.301 182.884 280.658 182.824 280.658 182.824C280.658 182.824 286.675 182.711 286.56 190.237C286.445 197.765 286.561 208.562 286.561 208.562V260.755C286.561 260.755 286.405 266.488 281.52 267.298C281.52 267.298 279.22 267.704 277.208 267.704H267.898L242.552 265.156C242.552 265.156 239.306 265.272 238.588 261.768C238.588 261.768 238.588 259.916 237.524 259.8C236.461 259.685 232.294 258.787 232.294 258.787C232.294 258.787 231.778 253.866 232.151 253.317C232.151 253.317 232.225 252.968 232.015 252.505V247.816C232.015 247.816 232.323 247.411 232.208 247.237C232.093 247.064 232.015 246.802 232.015 246.802V241.824C232.015 241.824 232.282 241.447 232.015 241.071L231.863 236.005C231.863 236.005 232.208 235.658 231.863 235.165L231.72 230.273C231.72 230.273 232.179 229.809 231.72 229.173V224.6C231.72 224.6 232.123 224.078 231.72 223.586V218.607C231.72 218.607 232.179 218.231 231.72 217.652V212.934C231.72 212.934 232.238 212.384 231.72 211.862V207.057C231.72 207.057 232.151 206.825 231.863 206.015L231.921 201.295C231.921 201.295 232.323 200.602 231.893 200.225L231.95 195.391C231.95 195.391 232.381 194.956 231.95 194.319L232.123 189.166C232.123 189.166 233.185 184.332 236.663 184.158C240.139 183.985 250.657 183.695 250.657 183.695Z" fill="#A8A8A8"/>
<path d="M272.146 182.824C272.146 182.824 278.741 183.256 278.999 191.463C279.258 199.668 278.999 262.846 278.999 262.846C278.999 262.846 277.443 263.145 276.752 263.1C276.062 263.058 275.63 263.105 275.63 263.105V190.289C275.63 190.289 275.895 184.867 272.146 182.824Z" fill="#C7C6C6"/>
<path d="M267.739 265.142C267.739 265.142 266.661 262.841 268.687 262.796C270.713 262.754 277.222 263.275 278.386 263.101C279.549 262.928 283.386 262.406 283.386 262.406C283.386 262.406 284.635 264.317 282.825 264.882L279.162 265.142C279.162 265.142 277.825 265.706 278.041 266.358C278.257 267.009 279.506 270.396 277.436 271.742C277.436 271.742 276.36 272.524 275.281 272.177L274.549 272.003C274.549 272.003 273.515 273.044 272.394 273.044C271.273 273.044 269.075 271.698 269.204 268.962C269.334 266.228 271.101 265.664 272.954 265.879L273.17 265.489L267.739 265.142Z" fill="#A8A8A8"/>
<path d="M281.48 182.896L284.928 183.548C284.928 183.548 288.722 184.633 288.851 188.759C288.98 192.884 288.851 203.74 288.851 203.74L288.636 224.019L288.722 245.078L288.909 259.148C288.909 259.148 289.369 265.052 285.877 266.486C285.877 266.486 284.325 267.093 283.809 267.072C283.809 267.072 282.451 267.441 281.48 267.332C281.48 267.332 284.175 266.746 285.036 264.858C285.899 262.968 285.941 261.905 285.941 261.492C285.941 261.079 285.791 247.879 285.791 247.879L285.64 233.246L285.619 217.961L285.726 204.999L285.985 192.689C285.985 192.689 286.351 188.389 285.64 186.848C284.928 185.306 283.873 183.482 281.48 182.896Z" fill="#A8A8A8"/>
<path d="M291.549 260.962L295.636 259.916C295.636 259.916 295.608 262.087 294.602 262.377L293.973 262.547C293.973 262.547 294.06 263.242 293.617 263.589C293.617 263.589 293.768 264.034 293.434 264.251C293.434 264.251 295.632 268.919 290.266 268.985C290.266 268.985 286.268 271.322 285.205 266.632C285.205 266.632 286.72 266.585 287.809 266.118C288.897 265.652 290.158 265.076 291.204 262.026L291.549 260.962Z" fill="#A8A8A8"/>
<path d="M285.722 200.668H232.061V200.755H285.722V200.668Z" fill="white"/>
<path d="M232.06 195.021L232.059 194.934L274.342 194.152L285.724 194.544L285.72 194.63L274.341 194.24L232.06 195.021Z" fill="white"/>
<path d="M274.119 206.581L274.099 206.614C274.104 206.611 274.117 206.6 274.119 206.581ZM276.855 206.674C274.483 206.674 274.11 206.644 274.046 206.607C272.785 206.491 232.471 206.614 232.061 206.616V206.528C232.166 206.528 242.682 206.497 253.066 206.48C259.164 206.471 264.025 206.468 267.513 206.473C269.583 206.477 271.184 206.483 272.275 206.491C273.916 206.503 274.099 206.51 274.124 206.548C274.683 206.626 281.898 206.57 285.722 206.528L285.723 206.616C285.693 206.616 282.782 206.647 279.906 206.664C278.633 206.671 277.636 206.674 276.855 206.674Z" fill="white"/>
<path d="M285.205 213.127H273.566L232.059 212.347L232.06 212.26L273.567 213.04H285.205V213.127Z" fill="white"/>
<path d="M285.205 219.25H273.179L232.059 218.208L232.06 218.121L273.18 219.164H285.205V219.25Z" fill="white"/>
<path d="M285.228 225.307H273.094L232.079 223.976L232.082 223.889L273.096 225.219H285.228V225.307Z" fill="white"/>
<path d="M285.228 231.965H272.722L231.948 230.055L231.952 229.969L272.724 231.878H285.228V231.965Z" fill="white"/>
<path d="M277.254 250.367C275.656 250.367 274.127 250.292 274.104 250.291L232.293 247.424L232.299 247.338L274.11 250.204C274.144 250.205 277.577 250.375 279.534 250.204C281.493 250.032 285.185 249.6 285.223 249.596L285.233 249.682C285.195 249.686 281.502 250.119 279.541 250.291C278.884 250.348 278.06 250.367 277.254 250.367Z" fill="white"/>
<path d="M276.726 256.919C274.874 256.919 273.266 256.806 273.242 256.805L232.292 253.157L232.299 253.07L273.249 256.718C273.284 256.721 276.895 256.975 279.534 256.718C282.175 256.461 285.788 255.856 285.825 255.85L285.838 255.936C285.803 255.942 282.186 256.548 279.543 256.805C278.656 256.891 277.66 256.919 276.726 256.919Z" fill="white"/>
<path d="M277.763 244.296C275.808 244.296 274.254 244.126 274.232 244.123L232.293 241.476L232.299 241.389L274.239 244.037C274.276 244.041 277.763 244.423 280.869 244.037C283.98 243.651 285.595 243.474 285.611 243.473L285.621 243.56C285.604 243.561 283.99 243.737 280.879 244.123C279.836 244.253 278.748 244.296 277.763 244.296Z" fill="white"/>
<path d="M278.743 238.055C276.941 238.055 275.335 237.96 275.311 237.959L231.991 235.7L231.994 235.613L275.315 237.872C275.352 237.874 278.961 238.086 281.43 237.872C283.901 237.657 285.596 237.569 285.613 237.567L285.617 237.654C285.6 237.656 283.909 237.743 281.437 237.959C280.608 238.03 279.651 238.055 278.743 238.055Z" fill="white"/>
<path d="M295.707 194.709H289.212V194.795H295.707V194.709Z" fill="white"/>
<path d="M295.707 200.848H289.212V200.935H295.707V200.848Z" fill="white"/>
<path d="M295.936 206.811H289.212V206.898H295.936V206.811Z" fill="white"/>
<path d="M295.936 212.773H289.212V212.861H295.936V212.773Z" fill="white"/>
<path d="M295.936 218.621H289.212V218.708H295.936V218.621Z" fill="white"/>
<path d="M289.215 225.075L289.212 224.988L295.936 224.699L295.94 224.785L289.215 225.075Z" fill="white"/>
<path d="M289.219 231.328L289.209 231.242L295.933 230.432L295.943 230.517L289.219 231.328Z" fill="white"/>
<path d="M289.219 237.117L289.209 237.031L295.933 236.221L295.943 236.306L289.219 237.117Z" fill="white"/>
<path d="M289.219 243.082L289.209 242.996L295.933 242.186L295.943 242.271L289.219 243.082Z" fill="white"/>
<path d="M289.217 248.87L289.209 248.784L295.934 248.09L295.943 248.176L289.217 248.87Z" fill="white"/>
<path d="M289.222 255.413L289.206 255.328L295.585 254.17L295.601 254.256L289.222 255.413Z" fill="white"/>
<path d="M291.108 218.938C291.108 218.938 290.547 218.678 290.676 217.202C290.805 215.725 290.656 212.251 290.656 212.251C290.656 212.251 291.15 210.167 292.314 210.427C293.478 210.688 293.434 211.513 293.521 212.859C293.608 214.206 293.781 217.244 294.039 219.198C294.297 221.152 294.426 227.318 294.039 229.794C293.65 232.269 293.305 235.742 293.392 236.741C293.478 237.741 293.694 239.087 292.271 239.607C292.271 239.607 291 239.846 290.784 238.348C290.784 238.348 290.505 237.913 290.526 236.741C290.547 235.569 290.524 231.705 290.524 231.705C290.524 231.705 290.676 230.727 291.15 230.663C291.15 230.663 292.206 226.168 291.647 220.915C291.647 220.915 291.539 219.004 291.108 218.938Z" fill="#A8A8A8"/>
<path d="M224.138 17.7597C220.402 17.7597 217.373 20.791 217.373 24.5298C217.373 28.2689 220.402 31.3001 224.138 31.3001C227.875 31.3001 230.903 28.2689 230.903 24.5298C230.903 20.791 227.875 17.7597 224.138 17.7597ZM224.566 52.2663C224.566 52.2663 210.523 32.425 210.865 22.7634C211.208 13.1015 220.456 10.1684 224.566 10.3411C228.676 10.5135 238.781 12.584 238.439 24.1434C238.096 35.7031 224.566 52.2663 224.566 52.2663Z" fill="#DADADA"/>
<path d="M81.913 106.674C78.1768 106.674 75.1481 109.705 75.1481 113.444C75.1481 117.183 78.1768 120.214 81.913 120.214C85.6493 120.214 88.6783 117.183 88.6783 113.444C88.6783 109.705 85.6493 106.674 81.913 106.674ZM82.3413 141.18C82.3413 141.18 68.2976 121.339 68.6399 111.677C68.9825 102.016 78.2309 99.0825 82.3413 99.2552C86.4516 99.4275 96.5563 101.498 96.2138 113.058C95.8716 124.617 82.3413 141.18 82.3413 141.18Z" fill="#DADADA"/>
<path d="M209.301 45.8828L208.704 48.1018C208.704 48.1018 210.449 48.5719 212.17 49.1102C213.031 49.3759 213.888 49.6556 214.523 49.875C214.838 49.9862 215.1 50.0789 215.285 50.1437C215.461 50.2086 215.561 50.2457 215.561 50.2457L216.371 48.0958C216.371 48.0958 216.258 48.0538 216.059 47.9804C215.866 47.9128 215.591 47.8158 215.26 47.6994C214.602 47.4716 213.724 47.1846 212.841 46.9123C211.079 46.3615 209.301 45.8828 209.301 45.8828Z" fill="#DADADA"/>
<path d="M198.62 43.4531L198.209 45.7148C198.209 45.7151 199.988 46.0401 201.756 46.4198C203.525 46.7904 205.28 47.2219 205.28 47.2219L205.815 44.9866C205.815 44.9866 204.028 44.5475 202.227 44.1703C200.429 43.7842 198.62 43.4534 198.62 43.4531Z" fill="#DADADA"/>
<path d="M187.781 41.9004L187.553 44.1881C187.553 44.1881 187.666 44.1988 187.862 44.2177C188.059 44.2397 188.339 44.2709 188.676 44.3087C189.35 44.3816 190.248 44.4843 191.144 44.6046C192.937 44.8317 194.722 45.1172 194.722 45.1172L195.075 42.8456C195.075 42.8456 193.259 42.5551 191.435 42.324C190.524 42.2015 189.61 42.0976 188.925 42.0232C188.581 41.9847 188.296 41.9528 188.096 41.9307C187.896 41.9114 187.781 41.9004 187.781 41.9004Z" fill="#DADADA"/>
<path d="M176.844 41.2637L176.812 43.563C176.812 43.563 177.263 43.5727 177.939 43.5877C178.616 43.5963 179.519 43.6322 180.421 43.6716C181.323 43.7009 182.224 43.7687 182.901 43.8055C183.578 43.8418 184.028 43.8828 184.028 43.8828L184.192 41.5896C184.192 41.5896 183.735 41.5481 183.046 41.5109C182.358 41.4732 181.441 41.4046 180.522 41.3749C179.602 41.3341 178.683 41.2978 177.993 41.2888C177.304 41.274 176.844 41.2637 176.844 41.2637Z" fill="#DADADA"/>
<path d="M165.887 41.6198L166.068 43.9117C166.068 43.9117 166.18 43.902 166.378 43.8853C166.573 43.8661 166.856 43.8451 167.193 43.826C167.869 43.7881 168.768 43.7166 169.669 43.6802C170.572 43.6482 171.473 43.5976 172.149 43.5896C172.826 43.577 173.277 43.5684 173.277 43.5684L173.242 41.2695C173.242 41.2695 172.782 41.2781 172.093 41.2913C171.402 41.2994 170.482 41.3506 169.563 41.3834C168.642 41.4209 167.724 41.4935 167.035 41.5322C166.69 41.5518 166.403 41.5733 166.202 41.5926C166.002 41.61 165.887 41.6198 165.887 41.6198Z" fill="#DADADA"/>
<path d="M155.006 43.0599L155.422 45.3206C155.422 45.3206 155.866 45.2374 156.53 45.1124C157.197 45.004 158.086 44.86 158.976 44.7155C159.87 44.5937 160.763 44.4712 161.433 44.3799C162.104 44.296 162.553 44.2511 162.553 44.2511L162.296 41.9668C162.296 41.9668 161.837 42.0122 161.152 42.0981C160.467 42.1916 159.555 42.3165 158.641 42.4413C157.731 42.589 156.821 42.7365 156.139 42.8472C155.458 42.9749 155.006 43.0599 155.006 43.0599Z" fill="#DADADA"/>
<path d="M144.337 45.6869L145.005 47.8854C145.005 47.8854 145.435 47.7522 146.081 47.5528C146.73 47.3706 147.599 47.1276 148.466 46.8848C149.34 46.6662 150.214 46.4475 150.869 46.2835C151.197 46.1987 151.472 46.1411 151.665 46.0992C151.857 46.0571 151.967 46.033 151.967 46.033L151.469 43.7891C151.469 43.7891 151.357 43.8136 151.16 43.857C150.963 43.9 150.68 43.9587 150.346 44.0456C149.675 44.2133 148.779 44.4374 147.884 44.6616C146.996 44.9105 146.106 45.1593 145.439 45.3461C144.778 45.5504 144.337 45.6869 144.337 45.6869Z" fill="#DADADA"/>
<path d="M134.036 49.558L134.965 51.6583C134.965 51.6583 135.371 51.4622 135.996 51.206C136.619 50.9473 137.444 50.5845 138.281 50.2506C139.121 49.9276 139.962 49.6049 140.593 49.3626C141.231 49.1396 141.656 48.9904 141.656 48.9904L140.902 46.8203C140.902 46.8203 140.466 46.973 139.813 47.2021C139.165 47.4503 138.303 47.7819 137.44 48.1133C136.581 48.4557 135.735 48.8278 135.094 49.0936C134.453 49.357 134.036 49.558 134.036 49.558Z" fill="#DADADA"/>
<path d="M124.294 54.7013L125.479 56.666C125.479 56.666 125.866 56.4351 126.446 56.0885C126.736 55.9155 127.075 55.7133 127.438 55.4963C127.803 55.2842 128.201 55.0738 128.595 54.8543C129.386 54.4242 130.167 53.975 130.777 53.6824C131.38 53.3779 131.782 53.1747 131.782 53.1747L130.768 51.1152C130.768 51.1152 130.355 51.3238 129.736 51.6365C129.11 51.9374 128.307 52.3979 127.494 52.8404C127.09 53.0654 126.681 53.2819 126.306 53.5C125.933 53.7226 125.585 53.9299 125.287 54.1079C124.691 54.4639 124.294 54.7013 124.294 54.7013Z" fill="#DADADA"/>
<path d="M115.282 61.0492L116.706 62.8462C116.706 62.8462 116.793 62.7751 116.946 62.6503C117.101 62.5284 117.311 62.3394 117.584 62.1397C118.123 61.7312 118.842 61.1868 119.562 60.6424C119.917 60.364 120.292 60.1147 120.637 59.8702C120.983 59.6275 121.306 59.4011 121.583 59.2073C121.86 59.0132 122.091 58.8516 122.252 58.7384C122.413 58.6237 122.508 58.5635 122.508 58.5635L121.241 56.6504C121.241 56.6504 121.144 56.7126 120.979 56.8303C120.813 56.9465 120.576 57.1125 120.291 57.3116C120.007 57.511 119.675 57.7434 119.32 57.9922C118.966 58.2441 118.58 58.5005 118.215 58.786C117.477 59.3449 116.738 59.9043 116.184 60.3235C115.904 60.5289 115.688 60.7226 115.529 60.8477C115.372 60.9759 115.282 61.0492 115.282 61.0492Z" fill="#DADADA"/>
<path d="M107.131 68.4783L108.761 70.0872C108.761 70.0872 109.077 69.7637 109.55 69.2789C110.014 68.7841 110.678 68.1719 111.331 67.5482C111.658 67.2367 111.985 66.926 112.292 66.6343C112.596 66.3401 112.901 66.0894 113.153 65.8624C113.66 65.4146 113.999 65.1164 113.999 65.1164L112.503 63.3789C112.503 63.3789 112.156 63.6853 111.635 64.1447C111.377 64.378 111.064 64.6357 110.752 64.9371C110.437 65.2363 110.101 65.5552 109.766 65.8743C109.096 66.5141 108.415 67.1427 107.94 67.6498C107.454 68.1466 107.131 68.4783 107.131 68.4783Z" fill="#DADADA"/>
<path d="M99.9092 76.8157L101.71 78.229C101.71 78.229 101.988 77.8719 102.406 77.3368C102.615 77.0694 102.859 76.7572 103.12 76.4228C103.393 76.0983 103.684 75.752 103.976 75.4061C104.561 74.7171 105.132 74.0137 105.585 73.509C106.04 73.0066 106.344 72.6717 106.344 72.6717L104.653 71.127C104.653 71.127 104.343 71.4703 103.876 71.9851C103.412 72.5022 102.828 73.2214 102.228 73.9271C101.93 74.2816 101.632 74.6363 101.352 74.9685C101.085 75.3106 100.835 75.6298 100.621 75.9034C100.194 76.4509 99.9092 76.8157 99.9092 76.8157Z" fill="#DADADA"/>
<path d="M93.6289 85.8776L95.5629 87.099C95.5629 87.099 95.8025 86.7138 96.1615 86.136C96.51 85.5509 97.0231 84.8036 97.5274 84.0504C98.0376 83.3016 98.5267 82.5369 98.9275 81.9887C99.326 81.4385 99.5916 81.0718 99.5916 81.0718L97.7432 79.7227C97.7432 79.7227 97.4718 80.0977 97.0646 80.6603C96.655 81.2214 96.1553 82.0009 95.6344 82.7662C95.1191 83.5354 94.5955 84.2991 94.2397 84.8954C93.8734 85.485 93.6289 85.8776 93.6289 85.8776Z" fill="#DADADA"/>
<path d="M88.2402 95.4876L90.2755 96.5281C90.2755 96.5281 90.3255 96.4262 90.4127 96.2475C90.4983 96.0679 90.6253 95.8142 90.7881 95.515C91.1078 94.9134 91.5337 94.1114 91.96 93.3096C92.1748 92.9097 92.3816 92.5048 92.5898 92.1339C92.802 91.7654 92.9999 91.4212 93.1695 91.1259C93.5089 90.5361 93.7353 90.1426 93.7353 90.1426L91.7646 88.9824C91.7646 88.9824 91.534 89.3836 91.188 89.9852C91.0152 90.2858 90.8135 90.6367 90.5972 91.0127C90.3851 91.3909 90.1744 91.8027 89.9554 92.2099C89.5214 93.0267 89.0876 93.8436 88.7621 94.4562C88.5964 94.7611 88.467 95.0196 88.3801 95.202C88.2912 95.3838 88.2402 95.4876 88.2402 95.4876Z" fill="#DADADA"/>
<path d="M310.886 24.0395L304.002 26.0656C304.002 26.0656 301.99 26.5333 300.135 25.5202C298.279 24.507 281.107 15.7797 281.107 15.7797C281.107 15.7797 279.597 15.3511 279.017 16.0912C279.017 16.0912 278.631 16.9097 279.017 17.2213L291.742 29.4942L267.647 37.9882C267.647 37.9882 256.973 33.9362 256.431 34.0139C255.889 34.0917 255.27 35.1828 256.431 35.884C257.59 36.5855 262.618 40.4816 262.696 40.9491C262.773 41.4167 262.8 42.4036 262.8 42.4036L263.65 42.5854L263.701 46.8714C263.701 46.8714 264.785 47.3391 265.738 45.8585C266.692 44.3777 267.672 43.0792 267.672 43.0792C267.672 43.0792 277.78 42.6377 282.111 41.7804C286.443 40.9233 297.995 37.7022 297.995 37.7022C297.995 37.7022 297.737 44.5337 297.402 45.4171C297.402 45.4171 299.31 46.0403 301.062 44.2998C302.816 42.5595 305.962 38.4816 305.962 38.4816C305.962 38.4816 307.046 38.8712 308.05 38.8712C309.056 38.8712 313.517 38.3517 314.883 36.9493L312.073 33.5463L310.552 34.0139C310.552 34.0139 311.996 32.3515 315.864 30.8449C319.731 29.3386 336.336 22.7148 336.336 22.7148C336.336 22.7148 334.635 15.9874 327.208 18.429C319.782 20.8706 310.886 24.0395 310.886 24.0395Z" fill="#DADADA"/>
<path d="M129.003 266.689L128.751 268.419C128.751 268.419 129.918 268.596 131.095 268.729C131.683 268.799 132.274 268.855 132.72 268.892C132.944 268.909 133.132 268.923 133.263 268.933C133.393 268.942 133.468 268.946 133.468 268.946L133.571 267.2C133.571 267.2 133.5 267.195 133.375 267.188C133.252 267.18 133.075 267.165 132.863 267.15C132.436 267.113 131.864 267.06 131.292 266.991C130.146 266.862 129.003 266.688 129.003 266.689Z" fill="#DADADA"/>
<path d="M122.227 265.414L121.848 267.121C121.848 267.121 122.135 267.185 122.567 267.282C122.999 267.371 123.574 267.502 124.153 267.612C124.731 267.731 125.31 267.841 125.745 267.92C126.181 267.998 126.471 268.05 126.471 268.05L126.768 266.327C126.768 266.327 126.484 266.276 126.057 266.199C125.629 266.122 125.06 266.013 124.493 265.899C123.924 265.789 123.359 265.66 122.934 265.571C122.51 265.477 122.227 265.414 122.227 265.414Z" fill="#DADADA"/>
<path d="M115.545 263.674L115.057 265.353C115.057 265.353 115.34 265.435 115.764 265.558C115.976 265.619 116.224 265.689 116.489 265.766C116.756 265.839 117.04 265.916 117.324 265.994C117.892 266.152 118.462 266.299 118.891 266.408C119.318 266.518 119.604 266.591 119.604 266.591L120.02 264.893C120.02 264.893 119.74 264.822 119.318 264.713C118.897 264.606 118.335 264.461 117.777 264.306C117.497 264.23 117.218 264.153 116.955 264.081C116.694 264.007 116.45 263.935 116.241 263.875C115.824 263.755 115.545 263.674 115.545 263.674Z" fill="#DADADA"/>
<path d="M108.982 261.51L108.392 263.155C108.392 263.155 108.668 263.255 109.084 263.405C109.498 263.558 110.056 263.748 110.613 263.938C110.892 264.032 111.171 264.128 111.432 264.218C111.695 264.303 111.94 264.383 112.15 264.45C112.57 264.586 112.85 264.677 112.85 264.677L113.373 263.009C113.373 263.009 113.097 262.92 112.683 262.786C112.476 262.719 112.235 262.64 111.977 262.557C111.719 262.469 111.445 262.376 111.17 262.282C110.621 262.094 110.072 261.907 109.664 261.756C109.255 261.608 108.982 261.51 108.982 261.51Z" fill="#DADADA"/>
<path d="M102.563 258.943L101.873 260.548C101.873 260.548 102.142 260.67 102.55 260.84C102.957 261.012 103.5 261.242 104.043 261.47C104.59 261.69 105.136 261.909 105.547 262.074C105.956 262.241 106.232 262.342 106.232 262.342L106.856 260.711C106.856 260.711 106.584 260.61 106.18 260.446C105.777 260.284 105.238 260.068 104.7 259.851C104.165 259.625 103.63 259.399 103.229 259.231C102.828 259.063 102.563 258.943 102.563 258.943Z" fill="#DADADA"/>
<path d="M96.3137 255.982L95.5273 257.542C95.5273 257.542 95.7894 257.676 96.1827 257.878C96.5794 258.073 97.1083 258.334 97.6371 258.594C98.1637 258.86 98.7011 259.101 99.1006 259.29C99.501 259.478 99.7679 259.603 99.7679 259.603L100.49 258.012C100.49 258.012 100.227 257.889 99.8325 257.705C99.4389 257.517 98.9097 257.279 98.3912 257.019C97.8704 256.763 97.3497 256.506 96.9589 256.314C96.5717 256.114 96.3137 255.982 96.3137 255.982Z" fill="#DADADA"/>
<path d="M90.2575 252.643L89.377 254.149C89.377 254.149 89.4401 254.188 89.5509 254.253C89.6621 254.319 89.8179 254.418 90.0107 254.526C90.3947 254.745 90.9064 255.038 91.4185 255.331C91.9278 255.628 92.448 255.906 92.8363 256.117C93.2248 256.329 93.4837 256.469 93.4837 256.469L94.3011 254.927C94.3011 254.927 94.0461 254.788 93.6635 254.579C93.2815 254.371 92.7689 254.098 92.2674 253.806C91.7634 253.517 91.2596 253.229 90.8813 253.013C90.6913 252.907 90.5384 252.808 90.4286 252.745C90.3198 252.68 90.2575 252.643 90.2575 252.643Z" fill="#DADADA"/>
<path d="M84.4155 248.932L83.4434 250.381C83.4434 250.381 83.503 250.424 83.6111 250.495C83.7186 250.567 83.872 250.668 84.0566 250.791C84.4253 251.036 84.9174 251.361 85.4093 251.687C85.9009 252.013 86.4051 252.32 86.7774 252.559C87.1517 252.795 87.4012 252.952 87.4012 252.952L88.3122 251.463C88.3122 251.463 88.0667 251.309 87.698 251.076C87.3313 250.841 86.8353 250.54 86.3508 250.218C85.8667 249.896 85.3826 249.576 85.0192 249.335C84.8378 249.215 84.6867 249.115 84.5803 249.045C84.4741 248.975 84.4155 248.932 84.4155 248.932Z" fill="#DADADA"/>
<path d="M78.8223 244.854L77.7617 246.239C77.7617 246.239 77.9958 246.419 78.3467 246.689C78.7004 246.955 79.1598 247.326 79.6399 247.669C80.1164 248.018 80.5928 248.367 80.9499 248.628C81.1288 248.758 81.2775 248.867 81.3817 248.944C81.4875 249.018 81.548 249.06 81.548 249.06L82.5492 247.632C82.5492 247.632 82.4898 247.589 82.3858 247.518C82.2833 247.442 82.1368 247.335 81.961 247.206C81.6091 246.949 81.1401 246.606 80.6714 246.263C80.1984 245.924 79.7464 245.558 79.3982 245.297C79.0526 245.031 78.8223 244.854 78.8223 244.854Z" fill="#DADADA"/>
<path d="M73.4922 240.434L72.3477 241.749C72.3477 241.749 72.568 241.946 72.8982 242.24C73.2354 242.528 73.6859 242.911 74.1355 243.292C74.5868 243.674 75.0321 244.063 75.3801 244.336C75.7246 244.614 75.9541 244.8 75.9541 244.8L77.0427 243.438C77.0427 243.438 76.8168 243.255 76.4777 242.981C76.1348 242.712 75.6965 242.329 75.2521 241.954C74.8097 241.577 74.3665 241.201 74.0342 240.918C73.7092 240.628 73.4922 240.434 73.4922 240.434Z" fill="#DADADA"/>
<path d="M68.4456 235.686L67.2217 236.926C67.2217 236.926 67.4317 237.135 67.7466 237.446C68.0636 237.755 68.4762 238.178 68.9058 238.584C69.7662 239.393 70.6267 240.202 70.6267 240.202L71.7979 238.911C71.7979 238.911 70.9508 238.114 70.1034 237.318C69.6805 236.919 69.2744 236.502 68.9623 236.197C68.6521 235.89 68.4456 235.686 68.4456 235.686Z" fill="#DADADA"/>
<path d="M63.6954 230.637L62.3984 231.799C62.3984 231.799 62.4468 231.856 62.5314 231.953C62.6184 232.049 62.7429 232.185 62.8918 232.349C63.19 232.678 63.5878 233.114 63.9857 233.551C64.1843 233.77 64.3832 233.988 64.5698 234.193C64.7616 234.393 64.9405 234.58 65.0938 234.74C65.4007 235.06 65.6051 235.273 65.6051 235.273L66.8535 234.058C66.8535 234.058 66.6522 233.848 66.35 233.532C66.1992 233.375 66.0228 233.192 65.834 232.995C65.6504 232.794 65.4544 232.578 65.2585 232.363C64.8669 231.932 64.4754 231.501 64.1815 231.178C64.0346 231.017 63.9122 230.883 63.8265 230.788C63.7432 230.692 63.6954 230.637 63.6954 230.637Z" fill="#DADADA"/>
<path d="M59.2678 225.295L57.9033 226.377C57.9033 226.377 58.0841 226.61 58.3554 226.961C58.6246 227.313 59.0069 227.765 59.3783 228.225C59.7523 228.682 60.1263 229.14 60.4067 229.483C60.545 229.657 60.6703 229.793 60.7533 229.892C60.8379 229.99 60.886 230.046 60.886 230.046L62.2059 228.91C62.2059 228.91 62.1585 228.854 62.0751 228.758C61.9932 228.661 61.8699 228.527 61.7337 228.355C61.4576 228.018 61.089 227.566 60.7205 227.116C60.3549 226.663 59.9782 226.218 59.7129 225.871C59.4457 225.525 59.2678 225.295 59.2678 225.295Z" fill="#DADADA"/>
<path d="M55.1601 219.703L53.7354 220.702C53.7354 220.702 53.9035 220.945 54.1553 221.31C54.2815 221.493 54.4282 221.706 54.5858 221.934C54.7446 222.16 54.9225 222.397 55.0959 222.636C55.7935 223.591 56.4913 224.546 56.4913 224.546L57.8762 223.491C57.8762 223.491 57.1885 222.55 56.5008 221.61C56.3301 221.374 56.155 221.141 55.9981 220.917C55.8429 220.692 55.698 220.482 55.574 220.302C55.3258 219.943 55.1601 219.703 55.1601 219.703Z" fill="#DADADA"/>
<path d="M51.3739 213.875L49.8955 214.793C49.8955 214.793 50.0499 215.044 50.2817 215.423C50.3979 215.612 50.5331 215.832 50.678 216.068C50.8214 216.305 50.9779 216.556 51.1417 216.802C51.7869 217.794 52.4323 218.785 52.4323 218.785L53.8754 217.813C53.8754 217.813 53.2391 216.835 52.6029 215.859C52.4414 215.616 52.2869 215.369 52.1456 215.134C52.003 214.901 51.8692 214.684 51.755 214.497C51.5263 214.124 51.3739 213.875 51.3739 213.875Z" fill="#DADADA"/>
<path d="M47.9142 207.85L46.3887 208.683C46.3887 208.683 46.5293 208.944 46.7407 209.333C46.9553 209.722 47.2255 210.248 47.5227 210.76C48.1135 211.784 48.704 212.809 48.704 212.809L50.1989 211.92C50.1989 211.92 49.6161 210.908 49.0332 209.898C48.7401 209.393 48.4733 208.874 48.2617 208.491C48.0534 208.105 47.9142 207.85 47.9142 207.85Z" fill="#DADADA"/>
<path d="M44.7775 201.643L43.2109 202.396C43.2109 202.396 43.3375 202.663 43.5276 203.063C43.72 203.463 43.9629 204.002 44.2365 204.527C44.7714 205.583 45.3061 206.638 45.3061 206.638L46.8461 205.83C46.8461 205.83 46.3183 204.788 45.7901 203.746C45.5196 203.229 45.2801 202.696 45.0897 202.301C44.9025 201.906 44.7775 201.643 44.7775 201.643Z" fill="#DADADA"/>
<path d="M41.9499 195.283L40.3486 195.958C40.3486 195.958 40.4609 196.232 40.6296 196.642C40.7924 197.054 41.0324 197.594 41.2721 198.136C41.7501 199.217 42.2279 200.299 42.2279 200.299L43.8064 199.571C43.8064 199.571 43.3345 198.502 42.8625 197.434C42.6254 196.9 42.3882 196.367 42.2273 195.958C42.061 195.553 41.9499 195.283 41.9499 195.283Z" fill="#DADADA"/>
<path d="M39.4239 188.793L37.793 189.392C37.793 189.392 37.8174 189.462 37.8604 189.583C37.9028 189.706 37.9635 189.881 38.0444 190.088C38.2019 190.501 38.4123 191.054 38.6227 191.607C38.8327 192.16 39.0432 192.714 39.2007 193.127C39.3557 193.543 39.4701 193.816 39.4701 193.816L41.0816 193.165C41.0816 193.165 40.9684 192.896 40.8156 192.485C40.6598 192.075 40.4518 191.529 40.2438 190.983C40.036 190.435 39.8281 189.889 39.6722 189.479C39.5923 189.276 39.5323 189.103 39.4904 188.982C39.4483 188.862 39.4239 188.793 39.4239 188.793Z" fill="#DADADA"/>
<path d="M37.1972 182.191L35.542 182.717C35.542 182.717 35.9054 183.844 36.2687 184.969C36.4502 185.532 36.6288 186.095 36.781 186.511C36.9282 186.93 37.0262 187.208 37.0262 187.208L38.6655 186.634C38.6655 186.634 38.5686 186.358 38.423 185.943C38.2724 185.532 38.0957 184.974 37.9161 184.417C37.5567 183.305 37.1972 182.191 37.1972 182.191Z" fill="#DADADA"/>
<path d="M35.2535 175.496L33.5781 175.953C33.5781 175.953 33.6547 176.239 33.7698 176.667C33.8881 177.094 34.0306 177.669 34.1991 178.235C34.5338 179.368 34.8685 180.503 34.8685 180.503L36.5311 179.998C36.5311 179.998 36.1994 178.876 35.8681 177.754C35.7014 177.193 35.5602 176.625 35.4432 176.202C35.3294 175.778 35.2535 175.496 35.2535 175.496Z" fill="#DADADA"/>
<path d="M90.0461 268.357L89.4609 270.004C89.4609 270.004 90.5707 270.408 91.6991 270.773C92.2617 270.957 92.8302 271.13 93.2601 271.256C93.4769 271.316 93.6577 271.368 93.7841 271.403C93.9108 271.438 93.9828 271.456 93.9828 271.456L94.425 269.765C94.425 269.765 94.356 269.747 94.236 269.715C94.1162 269.681 93.9454 269.632 93.7404 269.575C93.3293 269.455 92.7788 269.288 92.2309 269.109C91.1336 268.755 90.0461 268.357 90.0461 268.357Z" fill="#DADADA"/>
<path d="M83.6507 265.764L82.9453 267.362C82.9453 267.362 83.2147 267.482 83.6188 267.662C84.0257 267.835 84.5636 268.078 85.1097 268.302C85.6528 268.531 86.1994 268.754 86.611 268.918C87.0223 269.081 87.297 269.19 87.297 269.19L87.9251 267.559C87.9251 267.559 87.6558 267.453 87.2521 267.293C86.8482 267.131 86.3117 266.913 85.7778 266.687C85.2418 266.467 84.7127 266.23 84.3128 266.058C83.9156 265.881 83.6507 265.764 83.6507 265.764Z" fill="#DADADA"/>
<path d="M77.4396 262.732L76.6328 264.28C76.6328 264.28 76.894 264.418 77.286 264.622C77.4823 264.723 77.7113 264.843 77.9563 264.971C78.2033 265.095 78.4668 265.228 78.7303 265.359C79.2556 265.627 79.7864 265.884 80.185 266.076C80.5832 266.268 80.8488 266.397 80.8488 266.397L81.5887 264.815C81.5887 264.815 81.3275 264.689 80.9355 264.499C80.5435 264.31 80.0211 264.057 79.5041 263.794C79.2449 263.664 78.9854 263.533 78.7422 263.411C78.501 263.286 78.2757 263.168 78.0826 263.068C77.6965 262.867 77.4396 262.732 77.4396 262.732Z" fill="#DADADA"/>
<path d="M71.4287 259.309L70.5283 260.804C70.5283 260.804 70.7803 260.957 71.1583 261.185C71.5348 261.418 72.0442 261.716 72.5535 262.013C72.8081 262.161 73.0626 262.31 73.3017 262.449C73.5423 262.585 73.7672 262.71 73.96 262.819C74.3455 263.036 74.6025 263.181 74.6025 263.181L75.4407 261.648C75.4407 261.648 75.1874 261.507 74.8078 261.294C74.6183 261.187 74.3969 261.062 74.1596 260.928C73.9245 260.791 73.674 260.645 73.4233 260.499C72.9214 260.206 72.4197 259.915 72.049 259.684C71.677 259.459 71.4287 259.309 71.4287 259.309Z" fill="#DADADA"/>
<path d="M65.6362 255.52L64.6465 256.957C64.6465 256.957 64.8867 257.129 65.2533 257.376C65.6188 257.626 66.1062 257.958 66.5938 258.291C67.087 258.614 67.5803 258.938 67.9503 259.181C68.3189 259.426 68.5698 259.58 68.5698 259.58L69.5001 258.104C69.5001 258.104 69.2528 257.951 68.8899 257.711C68.5254 257.472 68.0397 257.152 67.5541 256.834C67.0739 256.506 66.5938 256.178 66.2339 255.934C65.8725 255.69 65.6362 255.52 65.6362 255.52Z" fill="#DADADA"/>
<path d="M60.0873 251.377L59.0117 252.751C59.0117 252.751 59.2426 252.933 59.5886 253.211C59.9393 253.479 60.4068 253.841 60.8745 254.2C61.3391 254.564 61.8187 254.909 62.1733 255.173C62.529 255.436 62.7663 255.612 62.7663 255.612L63.7846 254.196C63.7846 254.196 63.5511 254.023 63.2008 253.764C62.8515 253.504 62.379 253.165 61.9217 252.806C61.4612 252.45 61.0006 252.096 60.6554 251.83C60.3146 251.558 60.0873 251.377 60.0873 251.377Z" fill="#DADADA"/>
<path d="M54.8021 246.902L53.6445 248.204C53.6445 248.204 53.699 248.254 53.7944 248.342C53.891 248.427 54.0242 248.556 54.1921 248.7C54.5258 248.992 54.9704 249.379 55.4151 249.768C55.8563 250.161 56.3123 250.536 56.6514 250.82C56.991 251.104 57.2174 251.295 57.2174 251.295L58.3205 249.944C58.3205 249.944 58.0973 249.757 57.7631 249.477C57.4292 249.196 56.9803 248.828 56.5459 248.442C56.108 248.059 55.67 247.677 55.3419 247.39C55.1761 247.248 55.0449 247.121 54.9498 247.037C54.8561 246.951 54.8021 246.902 54.8021 246.902Z" fill="#DADADA"/>
<path d="M49.8005 242.105L48.5645 243.333C48.5645 243.333 48.6143 243.388 48.7066 243.478C48.7979 243.569 48.9288 243.699 49.0859 243.856C49.3994 244.169 49.818 244.587 50.2364 245.004C50.6548 245.42 51.0891 245.822 51.4079 246.129C51.7287 246.435 51.9424 246.639 51.9424 246.639L53.1265 245.36C53.1265 245.36 52.916 245.158 52.6 244.858C52.2866 244.555 51.8589 244.161 51.4471 243.749C51.0348 243.339 50.623 242.929 50.314 242.62C50.1593 242.466 50.0309 242.338 49.9406 242.248C49.8499 242.158 49.8005 242.105 49.8005 242.105Z" fill="#DADADA"/>
<path d="M45.114 236.996L43.8037 238.144C43.8037 238.144 43.9978 238.367 44.2891 238.701C44.5838 239.031 44.9617 239.487 45.3655 239.919C45.7645 240.355 46.1632 240.792 46.4626 241.118C46.612 241.283 46.7365 241.418 46.8239 241.514C46.913 241.608 46.964 241.661 46.964 241.661L48.2252 240.459C48.2252 240.459 48.1751 240.406 48.0873 240.315C48.0014 240.221 47.8787 240.086 47.7314 239.925C47.4367 239.603 47.0441 239.174 46.6516 238.744C46.2537 238.32 45.882 237.871 45.5918 237.545C45.305 237.216 45.114 236.996 45.114 236.996Z" fill="#DADADA"/>
<path d="M40.7503 231.607L39.3711 232.669C39.3711 232.669 39.5483 232.907 39.8145 233.261C40.0893 233.61 40.4559 234.074 40.8221 234.537C41.1899 235.002 41.5505 235.471 41.8386 235.808C42.1219 236.148 42.3107 236.377 42.3107 236.377L43.6441 235.256C43.6441 235.256 43.4581 235.033 43.1796 234.696C42.8959 234.365 42.5407 233.903 42.1788 233.447C41.8183 232.99 41.4575 232.534 41.1866 232.191C40.9248 231.84 40.7503 231.607 40.7503 231.607Z" fill="#DADADA"/>
<path d="M36.7306 225.951L35.2881 226.925C35.2881 226.925 35.4534 227.17 35.7011 227.538C35.9517 227.905 36.2735 228.401 36.6151 228.884C37.3008 229.847 37.9864 230.812 37.9864 230.812L39.3868 229.779C39.3868 229.779 38.712 228.83 38.0372 227.881C37.7002 227.405 37.3835 226.916 37.1371 226.556C36.8928 226.193 36.7306 225.951 36.7306 225.951Z" fill="#DADADA"/>
<path d="M33.0611 220.057L31.5625 220.939C31.5625 220.939 31.5991 221.003 31.6628 221.116C31.7294 221.227 31.8247 221.386 31.9386 221.576C32.1668 221.956 32.4715 222.465 32.7759 222.972C32.9283 223.225 33.0809 223.48 33.2238 223.717C33.3725 223.951 33.5115 224.17 33.6304 224.357C33.8686 224.732 34.0276 224.981 34.0276 224.981L35.4891 224.037C35.4891 224.037 35.3326 223.791 35.0982 223.423C34.9807 223.238 34.8439 223.022 34.6975 222.792C34.5565 222.558 34.4067 222.308 34.2567 222.059C33.9568 221.559 33.6568 221.059 33.4318 220.684C33.3196 220.497 33.2258 220.341 33.1601 220.231C33.0971 220.12 33.0611 220.057 33.0611 220.057Z" fill="#DADADA"/>
<path d="M29.7638 213.945L28.2148 214.736C28.2148 214.736 28.3465 215 28.5442 215.397C28.739 215.796 29.0256 216.315 29.2998 216.84C29.577 217.363 29.8543 217.884 30.0621 218.278C30.1642 218.475 30.2602 218.633 30.3224 218.746C30.3861 218.859 30.4221 218.924 30.4221 218.924L31.9384 218.072C31.9384 218.072 31.9025 218.007 31.8398 217.897C31.7786 217.786 31.6839 217.63 31.5835 217.436C31.3789 217.048 31.1057 216.534 30.8327 216.018C30.5623 215.502 30.2801 214.992 30.088 214.599C29.8933 214.207 29.7638 213.945 29.7638 213.945Z" fill="#DADADA"/>
<path d="M26.8295 207.645L25.2373 208.342C25.2373 208.342 25.3544 208.614 25.5301 209.022C25.6178 209.225 25.7206 209.463 25.8304 209.718C25.9416 209.973 26.0699 210.239 26.1932 210.509C26.6907 211.582 27.1883 212.656 27.1883 212.656L28.7523 211.897C28.7523 211.897 28.2617 210.839 27.7712 209.78C27.65 209.514 27.5239 209.252 27.4138 209.001C27.3055 208.751 27.2045 208.516 27.1178 208.315C26.9447 207.913 26.8295 207.645 26.8295 207.645Z" fill="#DADADA"/>
<path d="M24.2566 201.184L22.6279 201.79C22.6279 201.79 22.7301 202.067 22.8836 202.484C22.9602 202.692 23.0499 202.936 23.1458 203.195C23.2399 203.456 23.3441 203.733 23.4568 204.008C23.8959 205.107 24.3349 206.208 24.3349 206.208L25.9397 205.54C25.9397 205.54 25.5068 204.455 25.074 203.372C24.963 203.102 24.86 202.829 24.7674 202.571C24.6729 202.314 24.5845 202.074 24.5089 201.868C24.3573 201.458 24.2566 201.184 24.2566 201.184Z" fill="#DADADA"/>
<path d="M22.0418 194.588L20.3828 195.104C20.3828 195.104 20.4699 195.387 20.6007 195.811C20.7352 196.234 20.8974 196.803 21.0888 197.364C21.4679 198.486 21.8467 199.608 21.8467 199.608L23.4862 199.032C23.4862 199.032 23.1122 197.925 22.7383 196.819C22.5495 196.266 22.3894 195.704 22.2568 195.285C22.1278 194.867 22.0418 194.588 22.0418 194.588Z" fill="#DADADA"/>
<path d="M20.1781 187.881L18.4951 188.308C18.4951 188.308 18.5669 188.596 18.6749 189.027C18.7857 189.456 18.9182 190.033 19.0841 190.602C19.4023 191.743 19.7205 192.883 19.7205 192.883L21.3879 192.396C21.3879 192.396 21.074 191.271 20.7597 190.145C20.5958 189.583 20.465 189.014 20.3556 188.59C20.2492 188.164 20.1781 187.881 20.1781 187.881Z" fill="#DADADA"/>
<path d="M18.6503 181.086L16.9482 181.43C16.9482 181.43 17.0049 181.721 17.0897 182.156C17.169 182.592 17.2985 183.17 17.4282 183.747C17.6855 184.904 17.9424 186.058 17.9424 186.058L19.6325 185.658C19.6325 185.658 19.3784 184.516 19.1246 183.376C18.9963 182.805 18.8685 182.235 18.7903 181.803C18.7062 181.372 18.6503 181.086 18.6503 181.086Z" fill="#DADADA"/>
<path d="M17.4405 174.221L15.7246 174.485C15.7246 174.485 15.7348 174.558 15.7531 174.687C15.7707 174.814 15.7963 174.998 15.835 175.215C15.9085 175.654 16.0068 176.237 16.1049 176.822C16.203 177.405 16.3012 177.988 16.3749 178.426C16.4454 178.864 16.5044 179.155 16.5044 179.155L18.2114 178.836C18.2114 178.836 18.1532 178.55 18.0834 178.117C18.0107 177.684 17.9137 177.106 17.8168 176.53C17.7196 175.953 17.6226 175.377 17.5498 174.944C17.5116 174.728 17.4862 174.547 17.4686 174.419C17.4509 174.294 17.4405 174.221 17.4405 174.221Z" fill="#DADADA"/>
<path d="M16.5473 167.305L14.8213 167.493C14.8213 167.493 14.9578 168.668 15.094 169.845C15.1621 170.432 15.2271 171.019 15.2952 171.458C15.3573 171.898 15.399 172.191 15.399 172.191L17.1188 171.951C17.1188 171.951 17.0776 171.663 17.0159 171.227C16.9484 170.794 16.8844 170.212 16.8171 169.63C16.6821 168.468 16.5473 167.305 16.5473 167.305Z" fill="#DADADA"/>
<path d="M15.9508 160.357L14.2188 160.475C14.2188 160.475 14.2382 160.769 14.2674 161.212C14.2998 161.654 14.3274 162.246 14.3816 162.834C14.4886 164.012 14.5952 165.19 14.5952 165.19L16.3234 165.025C16.3234 165.025 16.2179 163.861 16.1122 162.694C16.0584 162.111 16.0311 161.525 15.9989 161.088C15.9701 160.649 15.9508 160.357 15.9508 160.357Z" fill="#DADADA"/>
<path d="M135.353 265.254L134.412 271.842L142.171 269.583L135.353 265.254Z" fill="#DADADA"/>
<path d="M11.209 157.259L17.8149 157.343L14.5836 149.887L11.209 157.259Z" fill="#DADADA"/>
<path d="M177.319 226.892C177.319 226.892 176.862 229.547 176.727 230.089L170.592 229.547C170.592 229.547 170.511 228.301 170.889 227.515C171.265 226.729 172.234 225.482 172.234 225.482L177.319 226.892Z" fill="#A8A8A8"/>
<path d="M176.36 128.428L197.884 131.174L202.259 156.47C202.259 156.47 199.964 165.793 196.09 172.948C192.215 180.103 190.781 187.331 190.422 189.355C190.063 191.379 189.847 194.413 190.063 197.594C190.279 200.775 192.431 210.354 192.574 213.189C192.718 216.024 196.018 228.311 196.304 228.889C196.304 228.889 194.654 228.383 193.543 228.889C192.431 229.395 189.955 231.346 190.35 232.936C190.35 232.936 189.31 233.189 189.058 232.503C188.807 231.817 188.664 231.202 188.7 230.552C188.735 229.901 186.19 223.974 185.256 221.95C184.324 219.926 182.674 216.566 182.674 216.566C182.674 216.566 180.235 221.95 179.876 223.179C179.517 224.409 178.656 226.613 178.764 227.19C178.764 227.19 178.691 227.625 177.4 227.587C176.109 227.552 172.091 226.684 171.732 225.818C171.732 225.818 172.701 220.144 173.347 217.072C173.992 214 174.889 208.941 175.177 206.339C175.463 203.738 176.539 200.161 177.4 197.052C178.261 193.945 177.006 189.029 176.97 187.549C176.933 186.066 173.49 177.574 172.199 175.117C170.908 172.66 165.885 164.24 166.424 159.759C166.962 155.277 176.36 128.428 176.36 128.428Z" fill="#888888"/>
<path d="M177.706 91.7112C177.706 91.7112 180.218 94.819 183.661 94.8912C187.105 94.9634 189.904 94.313 191.697 92.6508C193.491 90.9885 193.705 90.3379 193.705 90.3379C193.705 90.3379 198.486 106.055 199.518 108.045C200.877 110.671 198.871 121.272 197.15 124.452C197.15 124.452 198.441 131.101 197.868 131.751C197.868 131.751 191.123 132.474 189.186 131.751C189.186 131.751 186.89 130.884 185.025 131.101C185.025 131.101 183.159 131.318 180.936 130.017C180.936 130.017 177.492 130.234 175.985 129.655L177.706 91.7112Z" fill="#888888"/>
<path d="M175.387 86.3624L174.93 86.7962C174.93 86.7962 165.433 87.8803 163.523 90.1027C163.523 90.1027 163.092 91.8917 162.77 93.4636C162.446 95.0355 161.128 101.378 161.074 103.302C161.02 105.226 160.24 108.343 159.945 110.132C159.648 111.921 159.81 116.528 159.487 118.317C159.165 120.106 157.442 124.523 157.066 126.421C156.689 128.318 155.827 133.088 155.344 134.66C154.86 136.232 153.756 139.403 153.434 140.785C153.11 142.168 153.245 143.685 152.814 144.526C152.384 145.366 149.802 152.059 149.667 152.412V152.846C149.667 152.846 151.672 152.923 152.868 153.262C154.236 153.649 158.465 155.773 158.465 155.773C158.465 155.773 160.537 150.299 161.263 148.32C161.989 146.341 162.473 145.04 162.743 144.173C162.743 144.173 162.446 149.134 161.639 151.248C160.832 153.362 160.51 156.044 160.24 157.481C159.972 158.917 159.218 160.895 159.541 161.356C159.541 161.356 165.595 162.386 166.778 163.145C166.778 163.145 168.042 163.768 168.58 163.66C168.58 163.66 168.177 160.299 169.173 156.83C170.167 153.362 172.239 148.13 172.751 146.667C173.262 145.203 175.145 139.891 175.576 137.831C176.006 135.771 177.701 129.402 177.809 128.047C177.917 126.692 178.347 124.47 178.32 123.927C178.32 123.927 178.35 116.067 178.321 114.848C178.293 113.628 178.401 106.744 178.455 105.633C178.509 104.522 178.858 100.185 178.912 98.586C178.966 96.9869 179.288 92.1083 179.288 91.214V83.6523L177.836 84.9803L175.387 86.3624Z" fill="#A8A8A8"/>
<path d="M153.588 153.373C153.588 153.373 155.516 154.183 155.757 154.391C155.757 154.391 155.434 155.944 155.515 156.18C155.515 156.18 152.538 156.026 152.376 156.036C152.376 156.036 152.341 153.718 153.588 153.373Z" fill="#A8A8A8"/>
<path d="M144.062 176.82V159.881C144.062 159.881 144.028 159.378 143.896 158.941C143.761 158.503 142.894 156.958 145.129 156.555C147.363 156.152 152.732 155.212 155.3 155.884C155.3 155.884 156.701 156.254 156.901 156.69C156.901 156.69 156.567 157.765 156.501 158.907C156.434 160.049 156.466 176.82 156.466 176.82L154.666 176.618L154.7 159.075C154.7 159.075 154.5 158.907 154.5 158.739C154.5 158.571 154.433 157.664 154.066 157.664C153.698 157.664 150.134 158.525 146.897 158.369C146.897 158.369 145.996 158.202 145.83 159.041L145.862 159.814L145.729 160.016L145.862 176.477L144.062 176.82Z" fill="#A8A8A8"/>
<path d="M139.275 176.785H141.944C141.944 176.785 142.243 175.877 145.712 175.777C145.712 175.777 149.913 175.373 149.98 176.516H152.881C152.881 176.516 152.281 175.944 150.547 175.541C148.812 175.138 146.646 174.332 143.011 175.305C143.011 175.305 140.409 176.247 139.275 176.785Z" fill="#A8A8A8"/>
<path d="M158.449 176.951L163.119 177.287C163.119 177.287 167.186 177.421 167.287 181.588V185.081C167.287 185.081 167.02 185.72 167.287 186.19V189.785C167.287 189.785 166.986 190.288 167.287 190.691L167.453 194.454C167.453 194.454 167.087 194.89 167.453 195.395V199.057C167.453 199.057 167.053 199.325 167.453 200.03V203.692C167.453 203.692 167.12 204.229 167.453 204.465V208.227C167.453 208.227 167.02 208.664 167.453 209.067V212.762C167.453 212.762 167.087 213.232 167.453 213.635V217.297C167.453 217.297 166.986 217.835 167.453 218.238L167.287 221.967C167.287 221.967 166.986 222.639 167.453 222.942V226.402C167.453 226.402 166.986 226.838 167.253 227.342L167.22 231.037C167.22 231.037 166.853 231.44 167.154 231.877L167.142 235.987C167.142 235.987 167.076 236.11 166.832 236.165C166.586 236.221 164.353 236.726 164.353 236.726C164.353 236.726 164.041 236.827 163.93 237.062C163.818 237.297 163.475 238.529 163.075 239.155C162.674 239.783 161.129 241.418 159.116 241.172C159.116 241.172 160.985 239.839 161.173 238.405C161.362 236.971 161.318 233.008 161.318 233.008L161.284 227.354L161.24 221.598L161.206 215.472L161.229 210.557L161.284 205.181V198.911L161.406 192.247L161.461 186.056L161.429 180.882C161.429 180.882 161.373 179.705 160.985 179.258C160.594 178.811 159.495 177.6 159.495 177.6C159.495 177.6 158.672 176.995 158.449 176.951Z" fill="#DADADA"/>
<path d="M117.983 234.986L122.407 235.898C122.407 235.898 123.141 236.055 123.008 237.623C123.008 237.623 123.875 240.176 125.698 239.997C125.698 239.997 125.942 243.289 122.719 242.281C122.719 242.281 121.74 243.581 120.318 242.775C118.895 241.968 118.65 239.997 119.473 238.564L119.295 238.228L119.473 237.758L119.295 237.197C119.295 237.197 119.264 237.077 119.031 237.043C118.797 237.01 118.373 236.943 118.23 236.497C118.089 236.053 117.983 234.986 117.983 234.986Z" fill="#A8A8A8"/>
<path d="M132.189 177.064C132.189 177.064 148.596 176.348 151.086 176.394C153.576 176.438 155.399 176.391 155.399 176.391C155.399 176.391 160.054 176.304 159.965 182.126C159.875 187.949 159.966 196.302 159.966 196.302V236.683C159.966 236.683 159.845 241.116 156.066 241.744C156.066 241.744 154.288 242.057 152.731 242.057H145.528L125.919 240.086C125.919 240.086 123.408 240.176 122.852 237.466C122.852 237.466 122.852 236.034 122.029 235.944C121.206 235.854 117.983 235.159 117.983 235.159C117.983 235.159 117.583 231.351 117.872 230.927C117.872 230.927 117.929 230.658 117.767 230.299V226.672C117.767 226.672 118.005 226.357 117.916 226.223C117.827 226.089 117.767 225.887 117.767 225.887V222.035C117.767 222.035 117.973 221.745 117.767 221.453L117.649 217.534C117.649 217.534 117.916 217.266 117.649 216.884L117.538 213.099C117.538 213.099 117.894 212.742 117.538 212.249V208.71C117.538 208.71 117.85 208.307 117.538 207.927V204.073C117.538 204.073 117.894 203.783 117.538 203.336V199.684C117.538 199.684 117.938 199.259 117.538 198.856V195.139C117.538 195.139 117.872 194.959 117.649 194.331L117.694 190.681C117.694 190.681 118.005 190.143 117.672 189.853L117.716 186.113C117.716 186.113 118.05 185.777 117.716 185.284L117.85 181.297C117.85 181.297 118.672 177.557 121.362 177.423C124.052 177.288 132.189 177.064 132.189 177.064Z" fill="#DADADA"/>
<path d="M148.812 176.391C148.812 176.391 153.915 176.725 154.115 183.074C154.315 189.423 154.115 238.299 154.115 238.299C154.115 238.299 152.911 238.531 152.378 238.496C151.843 238.463 151.508 238.499 151.508 238.499V182.166C151.508 182.166 151.714 177.971 148.812 176.391Z" fill="#A8A8A8"/>
<path d="M145.404 240.076C145.404 240.076 144.57 238.295 146.138 238.261C147.706 238.228 152.741 238.631 153.641 238.496C154.542 238.362 157.51 237.959 157.51 237.959C157.51 237.959 158.476 239.437 157.076 239.874L154.241 240.076C154.241 240.076 153.208 240.512 153.374 241.016C153.541 241.519 154.507 244.141 152.907 245.181C152.907 245.181 152.074 245.786 151.24 245.517L150.672 245.383C150.672 245.383 149.872 246.189 149.005 246.189C148.138 246.189 146.439 245.148 146.538 243.032C146.637 240.915 148.005 240.479 149.439 240.646L149.605 240.344L145.404 240.076Z" fill="#A8A8A8"/>
<path d="M156.035 176.449L158.703 176.952C158.703 176.952 161.637 177.793 161.737 180.984C161.837 184.175 161.737 192.573 161.737 192.573L161.57 208.262L161.637 224.555L161.781 235.439C161.781 235.439 162.137 240.008 159.436 241.116C159.436 241.116 158.236 241.586 157.836 241.571C157.836 241.571 156.786 241.855 156.035 241.772C156.035 241.772 158.119 241.318 158.786 239.857C159.453 238.395 159.486 237.573 159.486 237.253C159.486 236.934 159.369 226.722 159.369 226.722L159.253 215.4L159.236 203.576L159.32 193.548L159.52 184.024C159.52 184.024 159.804 180.699 159.253 179.505C158.703 178.313 157.885 176.902 156.035 176.449Z" fill="#A8A8A8"/>
<path d="M163.824 236.842L166.987 236.033C166.987 236.033 166.966 237.714 166.187 237.937L165.7 238.069C165.7 238.069 165.767 238.606 165.425 238.875C165.425 238.875 165.542 239.219 165.283 239.388C165.283 239.388 166.984 243 162.832 243.05C162.832 243.05 159.739 244.858 158.918 241.23C158.918 241.23 160.09 241.193 160.931 240.831C161.774 240.471 162.749 240.025 163.558 237.665L163.824 236.842Z" fill="#A8A8A8"/>
<path d="M159.316 190.195H117.801V190.264H159.316V190.195Z" fill="#DADADA"/>
<path d="M117.801 185.828L117.8 185.761L150.512 185.156L159.317 185.459L159.316 185.526L150.512 185.223L117.801 185.828Z" fill="#DADADA"/>
<path d="M150.339 194.771L150.323 194.796C150.329 194.794 150.338 194.786 150.339 194.771ZM152.456 194.843C150.621 194.843 150.333 194.82 150.284 194.791C149.307 194.701 118.119 194.796 117.801 194.797L117.801 194.73C117.882 194.73 126.018 194.706 134.052 194.693C138.77 194.686 142.531 194.684 145.228 194.687C146.83 194.69 148.07 194.694 148.913 194.701C150.183 194.71 150.323 194.716 150.345 194.746C150.776 194.806 156.358 194.763 159.316 194.73L159.317 194.797C159.294 194.797 157.043 194.821 154.817 194.834C153.832 194.84 153.06 194.843 152.456 194.843Z" fill="#DADADA"/>
<path d="M158.917 199.836H149.913L117.8 199.233L117.801 199.164L149.913 199.769H158.917V199.836Z" fill="#DADADA"/>
<path d="M158.917 204.574H149.612L117.8 203.768L117.802 203.699L149.614 204.507H158.917V204.574Z" fill="#DADADA"/>
<path d="M158.935 209.256H149.548L117.816 208.227L117.818 208.16L149.549 209.189H158.935V209.256Z" fill="#DADADA"/>
<path d="M158.934 214.41H149.259L117.715 212.932L117.718 212.865L149.261 214.343H158.934V214.41Z" fill="#DADADA"/>
<path d="M152.766 228.645C151.53 228.645 150.347 228.586 150.33 228.585L117.981 226.368L117.986 226.301L150.334 228.518C150.359 228.519 153.015 228.651 154.529 228.519C156.046 228.386 158.902 228.052 158.93 228.049L158.939 228.115C158.909 228.119 156.052 228.452 154.535 228.585C154.027 228.631 153.389 228.645 152.766 228.645Z" fill="#DADADA"/>
<path d="M152.357 233.714C150.924 233.714 149.68 233.626 149.661 233.625L117.98 230.804L117.987 230.736L149.667 233.558C149.694 233.559 152.488 233.756 154.529 233.558C156.572 233.359 159.367 232.89 159.396 232.886L159.407 232.952C159.379 232.957 156.581 233.426 154.536 233.625C153.85 233.692 153.079 233.714 152.357 233.714Z" fill="#DADADA"/>
<path d="M153.16 223.947C151.648 223.947 150.446 223.815 150.427 223.814L117.981 221.764L117.986 221.697L150.433 223.747C150.461 223.75 153.16 224.046 155.562 223.747C157.968 223.448 159.218 223.311 159.231 223.311L159.238 223.377C159.225 223.378 157.977 223.514 155.571 223.814C154.763 223.914 153.922 223.947 153.16 223.947Z" fill="#DADADA"/>
<path d="M153.917 219.119C152.524 219.119 151.281 219.046 151.263 219.044L117.748 217.298L117.751 217.23L151.265 218.977C151.294 218.978 154.087 219.143 155.997 218.977C157.908 218.811 159.219 218.743 159.232 218.743L159.236 218.81C159.222 218.81 157.914 218.878 156.003 219.044C155.362 219.1 154.62 219.119 153.917 219.119Z" fill="#DADADA"/>
<path d="M167.042 185.586H162.018V185.653H167.042V185.586Z" fill="#DADADA"/>
<path d="M167.042 190.334H162.018V190.401H167.042V190.334Z" fill="#DADADA"/>
<path d="M167.22 194.945H162.018V195.013H167.22V194.945Z" fill="#DADADA"/>
<path d="M167.22 199.561H162.018V199.628H167.22V199.561Z" fill="#DADADA"/>
<path d="M167.22 204.084H162.018V204.151H167.22V204.084Z" fill="#DADADA"/>
<path d="M162.019 209.081L162.017 209.013L167.219 208.789L167.222 208.856L162.019 209.081Z" fill="#DADADA"/>
<path d="M162.022 213.915L162.014 213.848L167.216 213.221L167.225 213.288L162.022 213.915Z" fill="#DADADA"/>
<path d="M162.022 218.396L162.014 218.329L167.216 217.701L167.225 217.768L162.022 218.396Z" fill="#DADADA"/>
<path d="M162.022 223.009L162.014 222.942L167.216 222.314L167.225 222.382L162.022 223.009Z" fill="#DADADA"/>
<path d="M162.022 227.488L162.015 227.422L167.216 226.885L167.223 226.951L162.022 227.488Z" fill="#DADADA"/>
<path d="M162.024 232.55L162.012 232.484L166.948 231.588L166.959 231.655L162.024 232.55Z" fill="#DADADA"/>
<path d="M163.483 204.333C163.483 204.333 163.049 204.131 163.15 202.989C163.249 201.846 163.134 199.159 163.134 199.159C163.134 199.159 163.516 197.546 164.417 197.748C165.316 197.949 165.284 198.588 165.35 199.629C165.417 200.671 165.55 203.022 165.751 204.534C165.951 206.045 166.05 210.816 165.751 212.731C165.45 214.645 165.183 217.333 165.25 218.105C165.316 218.879 165.484 219.919 164.383 220.322C164.383 220.322 163.4 220.508 163.234 219.349C163.234 219.349 163.016 219.013 163.032 218.105C163.049 217.198 163.032 214.209 163.032 214.209C163.032 214.209 163.15 213.453 163.516 213.403C163.516 213.403 164.333 209.925 163.9 205.861C163.9 205.861 163.817 204.383 163.483 204.333Z" fill="#A8A8A8"/>
<path d="M195.883 228.248C195.883 228.248 196.287 228.953 196.314 229.657C196.314 229.657 192.898 230.741 192.817 231.445C192.817 231.445 192.439 234.508 191.848 234.889C191.256 235.267 190.744 235.782 190.744 235.782C190.744 235.782 190.368 235.051 190.341 233.181C190.341 233.181 190.26 231.744 190.1 230.688C190.1 230.688 191.632 228.302 195.883 228.248Z" fill="#A8A8A8"/>
<path d="M180.672 81.7363C180.672 81.7363 179.273 82.6398 178.806 83.1096C178.341 83.5793 174.501 86.5426 174.501 86.5426C174.501 86.5426 171.74 91.5114 171.74 92.3247C171.74 93.1377 175.416 94.3483 175.416 94.3483L170.95 93.8063C170.95 93.8063 170.825 97.2393 171.093 99.1365C171.363 101.034 171.847 104.792 172.189 106.093C172.529 107.394 173.731 112.67 174.304 114.368C174.879 116.067 177.102 123.023 177.909 124.306C177.909 124.306 178.143 97.5826 179.219 94.4929C179.219 94.4929 179.354 93.3815 179.341 92.921C179.327 92.4602 179.327 85.874 180.201 83.7736C180.201 83.7736 180.819 81.8943 181.049 81.7363H180.672Z" fill="#A8A8A8"/>
<path d="M198.979 86.6348C198.979 86.6348 204.091 86.9059 205.114 88.2068C206.137 89.5078 206.621 90.1041 206.943 93.7901C206.943 93.7901 209.795 100.945 210.549 102.788C211.302 104.631 216.038 114.334 215.768 118.562C215.499 122.79 213.886 123.278 211.034 123.658L205.33 120.243C205.33 120.243 210.28 115.743 209.043 114.93C207.805 114.117 205.007 113.142 205.007 113.142C205.007 113.142 203.232 100.674 202.585 99.1564C201.939 97.6387 198.979 86.6348 198.979 86.6348Z" fill="#A8A8A8"/>
<path d="M199.132 116.771C199.132 116.771 202.415 117.639 203.114 118.723C203.114 118.723 203.235 121.075 203.395 121.943C203.557 122.81 203.221 124.577 203.814 127.504C204.671 131.745 204.634 136.1 204.895 140.456C205.077 143.46 205.135 147.239 206.895 149.811C207.972 151.383 207.957 154.553 207.203 157.047C207.203 157.047 206.342 157.209 205.267 157.697C204.19 158.185 202.899 158.564 202.037 158.564C202.037 158.564 200.047 159.703 199.669 160.462H199.132C199.132 160.462 200.369 151.789 199.455 148.536C198.54 145.284 198.056 141.002 198.11 137.478C198.163 133.955 197.357 129.889 197.249 128.968C197.141 128.046 196.872 122.517 198.002 119.644L199.132 116.771Z" fill="#A8A8A8"/>
<path d="M197.649 112.897C197.649 112.897 197.406 105.634 196.761 103.763C196.115 101.894 194.295 97.1234 193.424 94.3137C193.076 93.19 193.155 88.9526 193.182 88.4918C193.209 88.031 192.149 85.347 192.149 85.347C192.149 85.347 193.487 84.6291 193.838 84.1953C193.838 84.1953 197.701 89.0738 200.042 90.1849C200.042 90.1849 200.204 90.7542 199.854 90.8897C199.854 90.8897 198.562 91.2827 198.631 91.6757C198.631 91.6757 199.827 96.3645 200.499 99.0748C201.173 101.785 201.819 104.035 201.979 105.308C202.141 106.582 202.302 107.124 202.249 107.693H201.441L197.649 112.897Z" fill="#A8A8A8"/>
<path d="M180.937 75.4141C180.937 75.4141 181.441 79.1541 180.902 81.0785C180.364 83.0028 179.853 84.5161 179.287 85.3451V93.5729C179.287 93.5729 182.275 95.1449 185.53 94.8467C188.785 94.5486 192.525 93.0038 193.17 91.2692C193.17 91.2692 193.251 89.0198 193.17 88.3692C193.089 87.7187 192.15 85.3471 192.15 85.3471C192.15 85.3471 191.719 85.6184 190.703 85.5233C190.703 85.5233 188.274 85.3608 186.418 83.0299C184.561 80.699 180.937 75.4141 180.937 75.4141Z" fill="#A8A8A8"/>
<path d="M195.632 86.4358H197.166V86.1465H199.048C199.048 86.1465 200.771 90.483 201.738 94.4131C202.707 98.3429 204.538 106.555 204.376 107.91L202.17 107.775C202.17 107.775 199.399 96.4457 198.861 94.7111C198.322 92.9765 195.632 86.4358 195.632 86.4358Z" fill="#A8A8A8"/>
<path d="M209.422 107.809L197.996 114.223C197.996 114.223 196.248 114.498 196.321 114.535C196.391 114.571 201.566 107.574 201.566 107.574L209.422 107.809Z" fill="#D0D2D3"/>
<path d="M198.678 113.646L194.893 115.073V115.742L198.821 115.507L200.544 114.224L198.678 113.646Z" fill="#D0D2D3"/>
<path d="M213.924 106.221L217.87 107.612L213.602 109.889L208.992 108.841L213.924 106.221Z" fill="#BBBDBF"/>
<path d="M205.243 115.869L214.963 109.437C214.963 109.437 213.905 109.87 208.579 108.1L197.082 114.333C197.082 114.333 201.601 115.652 205.243 115.869Z" fill="#3B2314"/>
<path d="M151.287 157.339C151.287 157.339 150.576 158.259 150.415 158.245C150.253 158.232 148.477 158.372 148.477 158.372C148.477 158.372 148.705 159.886 150.171 159.873C150.171 159.873 151.059 159.954 151.543 159.683C151.543 159.683 152.524 159.697 152.794 159.643C153.064 159.589 153.265 159.277 153.265 159.277C153.265 159.277 154.718 159.371 154.88 159.331C154.88 159.331 155.498 159.317 155.734 158.694C155.969 158.071 155.874 156.837 155.626 156.674C155.378 156.513 155.148 156.35 154.752 156.518C154.752 156.518 154.375 156.153 153.898 156.301C153.42 156.451 153.057 156.85 153.057 156.85C153.057 156.85 152.835 156.634 152.593 156.634C152.35 156.634 151.287 157.339 151.287 157.339Z" fill="#A8A8A8"/>
<path d="M181.784 76.7142C181.784 76.7142 185.945 82.7131 186.698 83.3996C187.452 84.0862 190.214 86.2813 192.151 85.3463C194.089 84.4115 196.779 80.9063 197.639 77.0755L197.244 76.0999C197.244 76.0999 196.958 75.1963 197.137 74.7266C197.317 74.2569 198.5 72.486 198.5 72.2331C198.5 71.9801 198.77 67.1559 197.135 64.9435C197.135 64.9435 196.301 64.7134 195.62 65.1832C195.62 65.1832 194.806 64.3009 193.12 64.5359C190.468 64.9054 190.197 66.7221 188.978 67.1919C187.758 67.6619 185.013 70.8601 182.68 70.8961C182.68 70.8961 181.03 69.6313 180.314 70.336C179.596 71.0406 178.986 72.6307 179.955 74.4014C180.922 76.172 181.21 76.4974 183.147 76.5335L181.784 76.7142Z" fill="#A8A8A8"/>
<path d="M198.025 76.5153C198.025 76.5153 196.914 75.648 196.375 75.6662C195.837 75.6841 190.707 76.5877 188.484 75.2144C186.26 73.8413 181.937 70.3359 181.937 70.3359C182.127 70.5618 182.313 70.7909 182.505 71.0157C182.938 71.5243 183.365 72.0357 183.792 72.5485C184.251 73.1009 184.73 73.6363 185.181 74.197C185.472 74.5598 185.846 74.8897 186.096 75.2813C186.578 76.0345 186.652 76.955 186.082 77.6751C185.687 78.1732 185.026 78.4619 184.43 78.1324C183.928 77.8552 183.661 77.1768 183.339 76.724C183.235 76.5787 183.145 76.4303 183.05 76.2805C183.05 76.2805 181.991 76.6598 181.524 76.2624V76.407L184.251 80.2645C184.251 80.2645 186.655 83.3724 187.246 83.9234C189.134 85.6803 191.54 86.4712 194.271 84.242C195.268 83.4283 195.984 82.3327 196.545 81.1916C196.985 80.2951 197.383 79.3672 197.632 78.3971C197.697 78.1482 197.754 77.8972 197.805 77.6451C197.862 77.3679 197.915 77.0899 197.968 76.8123C197.987 76.7134 198.007 76.6142 198.025 76.5153Z" fill="#888888"/>
<path d="M198.502 70.3364C198.502 70.3364 198.574 65.6206 197.175 63.5605C195.776 61.5008 193.785 59.5492 191.417 59.2962C191.417 59.2962 190.565 54.6527 185.884 53.7583C181.202 52.864 180.664 55.6014 180.046 56.848C179.427 58.0948 178.997 61.4013 178.136 62.5397C177.275 63.678 174.88 66.9304 174.799 68.4481C174.718 69.966 173.427 74.3837 174.288 77.2567C175.149 80.1295 177.382 82.3789 177.382 82.3789C177.382 82.3789 174.88 78.8285 174.585 77.3649C174.288 75.9016 174.342 72.8931 174.504 72.2696C174.504 72.2696 174.961 75.3593 176.199 77.3649C176.199 77.3649 174.585 73.3267 175.284 70.6705C175.284 70.6705 176.494 75.8743 178.512 78.2052C178.512 78.2052 176.521 74.7089 176.629 71.565C176.629 71.565 177.032 75.793 180.342 78.7743C180.342 78.7743 178.916 79.4248 178.62 80.6716C178.323 81.9182 179.589 82.3789 179.589 82.3789C179.589 82.3789 177.758 80.5901 180.261 79.5061C180.261 79.5061 179.346 80.4004 179.695 80.9426C179.695 80.9426 179.83 79.8313 180.745 79.6416C180.745 79.6416 181.042 80.1838 181.418 80.2921C181.418 80.2921 180.976 77.8319 181.325 76.2058C181.337 76.1572 181.074 75.9108 181.047 75.8773C180.806 75.5859 180.582 75.28 180.388 74.955C179.908 74.1519 179.453 73.1138 179.515 72.1576C179.56 71.4505 179.946 70.5009 180.721 70.3472C181.098 70.2723 181.48 70.2456 181.843 70.3975C182.116 70.5113 182.377 70.6888 182.607 70.8721C182.607 70.8721 184.2 72.1396 184.36 72.2479C184.36 72.2479 185.695 68.4481 190.081 66.9574C190.081 66.9574 191.722 64.8183 193.309 64.7088C193.309 64.7088 194.977 64.5723 195.623 65.3583C195.623 65.3583 196.189 64.8434 196.727 65.006C197.264 65.1688 198.072 67.1833 198.502 70.3364Z" fill="#3B2314"/>
<path d="M191.13 59.4238C191.13 59.4238 187.928 58.2854 184.404 59.8573C180.879 61.4292 178.781 64.2209 178.511 65.1152C178.243 66.0097 176.763 68.5303 177.625 72.2163C177.625 72.2163 178.162 74.8993 179.211 76.2544C179.211 76.2544 176.924 69.0451 181.714 65.1424C186.502 61.2396 192.582 61.3479 194.763 62.947C194.763 62.947 194.009 60.5349 191.13 59.4238Z" fill="#3B2314"/>
<path d="M209.584 114.334C209.584 114.334 207.539 113.114 207.108 112.951C206.678 112.789 202.911 112.518 202.697 112.518C202.481 112.518 202.024 113.222 202.077 113.426C202.077 113.426 200.517 113.304 200.086 113.426C199.656 113.548 199.091 114.469 199.279 114.794C199.279 114.794 198.284 115.065 198.149 115.933C198.149 115.933 198.014 116.529 199.36 116.99C200.705 117.45 200.705 118.047 201.485 118.697C202.265 119.348 203.864 120.784 203.864 120.784C203.864 120.784 205.198 121.272 205.763 120.621C205.763 120.621 206.059 120.08 206.032 119.835C206.032 119.835 207.054 120.025 207.485 119.754C207.485 119.754 208.077 119.131 208.104 118.562C208.104 118.562 209.26 118.48 209.395 116.556C209.395 116.556 209.986 115.553 209.584 114.334Z" fill="#A8A8A8"/>
<path d="M190.767 235.646L192.22 232.719C192.22 232.719 191.844 231.525 192.544 230.821C193.243 230.116 193.835 229.955 193.835 229.955C193.835 229.955 193.781 229.304 194.534 229.304C195.288 229.304 195.933 229.033 196.202 229.304C196.471 229.574 196.768 229.683 197.117 229.683C197.467 229.683 198.893 230.821 199.512 230.739C200.13 230.659 202.685 229.737 203.735 230.496C204.785 231.255 207.071 232.99 205.618 236.865C205.618 236.865 201.421 239.711 200.776 240.579C200.13 241.446 199.727 242.747 199.431 242.991C199.136 243.234 195.423 246.27 194.051 245.674C192.679 245.077 192.086 243.56 192.006 242.259C191.925 240.957 192.06 238.871 191.951 238.356C191.844 237.841 190.509 236.166 190.767 235.646Z" fill="#888888"/>
<path d="M194.722 243.423C194.722 243.423 195.449 242.582 195.501 241.553C195.556 240.523 197.17 238.028 198.031 236.945C198.892 235.86 201.986 232.663 203.224 232.5C204.461 232.337 205.484 232.853 205.806 234.112C206.129 235.373 205.671 236.945 205.592 237.162C205.511 237.378 202.053 239.791 201.138 240.928C201.138 240.928 200.546 241.742 200.183 242.528C200.183 242.528 198.529 245.149 195.583 245.749C195.583 245.749 193.919 246.051 193.444 245.455C193.444 245.455 192.705 245.183 194.722 243.423Z" fill="#A8A8A8"/>
<path d="M174.697 241.609C174.697 241.609 180.589 242.043 182.364 241.609C182.364 241.609 183.091 240.688 180.428 240.227C180.428 240.227 175.316 240.229 174.697 241.014C174.697 241.014 174.267 241.393 174.697 241.609Z" fill="#A8A8A8"/>
<path d="M170.619 229.06L175.059 229.223C175.059 229.223 175.328 228.518 175.624 228.598C175.92 228.68 177.4 229.764 177.4 229.764C177.4 229.764 177.103 231.391 177.4 232.637C177.695 233.884 178.529 236.215 180.063 236.974C181.597 237.733 183.023 238.41 182.431 241.229C182.431 241.229 181.3 240.443 178.853 240.714C176.404 240.984 175.624 241.555 174.656 241.555C173.687 241.555 172.45 241.229 172.261 240.93C172.072 240.633 172.207 240.307 171.83 239.765C171.454 239.223 168.737 238.789 168.521 238.274C168.307 237.76 168.978 234.751 169.274 233.694C169.571 232.637 170.619 229.06 170.619 229.06Z" fill="#888888"/>
<path d="M150.22 152.443C150.22 152.443 148.188 154.755 148.148 156.056L150.052 155.819C150.052 155.819 150.749 154.901 151.019 155.064C151.019 155.064 150.65 158.65 150.731 158.88C150.731 158.88 151.498 159.72 152.198 158.88C152.897 158.04 152.696 156.902 152.682 156.549C152.667 156.197 152.883 153.852 154.081 153.622L154.323 153.473C154.323 153.473 153.165 152.578 152.574 152.443C151.982 152.308 150.22 152.443 150.22 152.443Z" fill="#A8A8A8"/>
</svg>
