<svg width="40" height="40" viewBox="0 0 40 40" fill="none" xmlns="http://www.w3.org/2000/svg">
<rect x="2" y="6" width="36" height="28" rx="4" fill="#76B900"/>
<path d="M22 6H34C36.2 6 38 7.8 38 10V34C38 36.2 36.2 38 34 38H6C3.8 38 2 36.2 2 34V10C2 7.8 3.8 6 6 6H14L16 8H20L22 6Z" fill="#76B900"/>
<rect x="6" y="10" width="28" height="4" rx="2" fill="white" fill-opacity="0.9"/>
<path d="M20 16L14 24H18V32H22V24H26L20 16Z" fill="white"/>
<rect x="26" y="20" width="10" height="8" rx="1" fill="white" fill-opacity="0.8"/>
<path d="M27 22H35" stroke="#76B900" stroke-width="1"/>
<path d="M27 24H33" stroke="#76B900" stroke-width="1"/>
<path d="M27 26H35" stroke="#76B900" stroke-width="1"/>
</svg>
